<svg width="870" height="500" viewBox="0 0 870 500" fill="none" xmlns="http://www.w3.org/2000/svg">
<rect width="870" height="500" fill="#F7F7F7"/>
<rect y="491.625" width="4.2439" height="8.37518" rx="2.12195" fill="#9EA0A3"/>
<rect x="8.4878" y="494.975" width="4.2439" height="5.02512" rx="2.12195" fill="#9EA0A3"/>
<rect x="16.9756" y="495.812" width="4.2439" height="4.18762" rx="2.09381" fill="#9EA0A3"/>
<rect x="25.4634" y="492.462" width="4.2439" height="7.53769" rx="2.12195" fill="#9EA0A3"/>
<rect x="33.9512" y="484.925" width="4.2439" height="15.0754" rx="2.12195" fill="#9EA0A3"/>
<rect x="42.439" y="489.95" width="4.2439" height="10.0502" rx="2.12195" fill="#9EA0A3"/>
<rect x="50.9268" y="487.437" width="4.2439" height="12.5628" rx="2.12195" fill="#9EA0A3"/>
<rect x="59.4146" y="484.925" width="4.2439" height="15.0754" rx="2.12195" fill="#9EA0A3"/>
<rect x="67.9024" y="482.412" width="4.24391" height="17.5879" rx="2.12196" fill="#9EA0A3"/>
<rect x="76.3902" y="479.062" width="4.2439" height="20.938" rx="2.12195" fill="#9EA0A3"/>
<rect x="84.878" y="474.875" width="4.2439" height="25.1256" rx="2.12195" fill="#9EA0A3"/>
<rect x="93.3659" y="476.549" width="4.2439" height="23.4506" rx="2.12195" fill="#9EA0A3"/>
<rect x="101.854" y="479.899" width="4.2439" height="20.1005" rx="2.12195" fill="#9EA0A3"/>
<rect x="110.341" y="483.25" width="4.2439" height="16.7504" rx="2.12195" fill="#9EA0A3"/>
<rect x="118.829" y="477.387" width="4.2439" height="22.6131" rx="2.12195" fill="#9EA0A3"/>
<rect x="127.317" y="475.712" width="4.2439" height="24.2881" rx="2.12195" fill="#9EA0A3"/>
<rect x="135.805" y="479.899" width="4.24391" height="20.1005" rx="2.12196" fill="#9EA0A3"/>
<rect x="144.293" y="480.737" width="4.2439" height="19.263" rx="2.12195" fill="#9EA0A3"/>
<rect x="152.78" y="474.875" width="4.24391" height="25.1256" rx="2.12196" fill="#9EA0A3"/>
<rect x="161.268" y="465.662" width="4.2439" height="34.3383" rx="2.12195" fill="#9EA0A3"/>
<rect x="169.756" y="467.337" width="4.24391" height="32.6633" rx="2.12196" fill="#9EA0A3"/>
<rect x="178.244" y="467.337" width="4.2439" height="32.6633" rx="2.12195" fill="#9EA0A3"/>
<rect x="186.732" y="469.849" width="4.24391" height="30.1507" rx="2.12196" fill="#9EA0A3"/>
<rect x="195.22" y="472.362" width="4.24391" height="27.6382" rx="2.12196" fill="#9EA0A3"/>
<rect x="203.707" y="470.687" width="4.2439" height="29.3132" rx="2.12195" fill="#9EA0A3"/>
<rect x="212.195" y="467.337" width="4.2439" height="32.6633" rx="2.12195" fill="#9EA0A3"/>
<rect x="220.683" y="471.524" width="4.2439" height="28.4757" rx="2.12195" fill="#9EA0A3"/>
<rect x="229.171" y="472.362" width="4.24393" height="27.6382" rx="2.12196" fill="#9EA0A3"/>
<rect x="237.659" y="474.875" width="4.2439" height="25.1256" rx="2.12195" fill="#9EA0A3"/>
<rect x="246.146" y="469.012" width="4.2439" height="30.9883" rx="2.12195" fill="#9EA0A3"/>
<rect x="254.634" y="467.337" width="4.24391" height="32.6633" rx="2.12196" fill="#9EA0A3"/>
<rect x="263.122" y="469.849" width="4.2439" height="30.1507" rx="2.12195" fill="#9EA0A3"/>
<rect x="271.61" y="472.362" width="4.24393" height="27.6382" rx="2.12196" fill="#9EA0A3"/>
<rect x="280.098" y="469.849" width="4.2439" height="30.1507" rx="2.12195" fill="#9EA0A3"/>
<rect x="288.585" y="458.961" width="4.2439" height="41.0385" rx="2.12195" fill="#9EA0A3"/>
<rect x="297.073" y="448.074" width="4.2439" height="51.9263" rx="2.12195" fill="#9EA0A3"/>
<rect x="305.561" y="441.374" width="4.2439" height="58.6265" rx="2.12195" fill="#9EA0A3"/>
<rect x="314.049" y="428.811" width="4.2439" height="71.1893" rx="2.12195" fill="#9EA0A3"/>
<rect x="322.537" y="429.648" width="4.2439" height="70.3517" rx="2.12195" fill="#9EA0A3"/>
<rect x="331.024" y="431.323" width="4.2439" height="68.6767" rx="2.12195" fill="#9EA0A3"/>
<rect x="339.512" y="415.41" width="4.24393" height="84.5896" rx="2.12196" fill="#9EA0A3"/>
<rect x="348" y="422.111" width="4.2439" height="77.8894" rx="2.12195" fill="#9EA0A3"/>
<rect x="356.488" y="428.811" width="4.2439" height="71.1893" rx="2.12195" fill="#9EA0A3"/>
<rect x="364.976" y="427.973" width="4.24393" height="72.0268" rx="2.12196" fill="#9EA0A3"/>
<rect x="373.463" y="425.461" width="4.2439" height="74.5394" rx="2.12195" fill="#9EA0A3"/>
<rect x="381.951" y="406.198" width="4.2439" height="93.8023" rx="2.12195" fill="#9EA0A3"/>
<rect x="390.439" y="440.536" width="4.24393" height="59.464" rx="2.12196" fill="#9EA0A3"/>
<rect x="398.927" y="439.698" width="4.2439" height="60.3015" rx="2.12195" fill="#9EA0A3"/>
<rect x="407.415" y="430.486" width="4.2439" height="69.5143" rx="2.12195" fill="#9EA0A3"/>
<rect x="415.902" y="434.673" width="4.2439" height="65.3266" rx="2.12195" fill="#9EA0A3"/>
<rect x="424.39" y="430.486" width="4.2439" height="69.5143" rx="2.12195" fill="#9EA0A3"/>
<rect x="432.878" y="443.886" width="4.2439" height="56.1139" rx="2.12195" fill="#9EA0A3"/>
<rect x="441.366" y="437.186" width="4.2439" height="62.8141" rx="2.12195" fill="#9EA0A3"/>
<rect x="449.854" y="435.511" width="4.2439" height="64.4891" rx="2.12195" fill="#9EA0A3"/>
<rect x="458.341" y="439.698" width="4.24396" height="60.3015" rx="2.12198" fill="#9EA0A3"/>
<rect x="466.829" y="440.536" width="4.2439" height="59.464" rx="2.12195" fill="#9EA0A3"/>
<rect x="475.317" y="431.323" width="4.2439" height="68.6767" rx="2.12195" fill="#9EA0A3"/>
<rect x="483.805" y="429.648" width="4.2439" height="70.3517" rx="2.12195" fill="#9EA0A3"/>
<rect x="492.293" y="432.998" width="4.2439" height="67.0017" rx="2.12195" fill="#9EA0A3"/>
<rect x="500.78" y="427.973" width="4.2439" height="72.0268" rx="2.12195" fill="#9EA0A3"/>
<rect x="509.268" y="423.786" width="4.24387" height="76.2144" rx="2.12193" fill="#9EA0A3"/>
<rect x="517.756" y="429.648" width="4.2439" height="70.3517" rx="2.12195" fill="#9EA0A3"/>
<rect x="526.244" y="427.973" width="4.2439" height="72.0268" rx="2.12195" fill="#9EA0A3"/>
<rect x="534.732" y="426.298" width="4.2439" height="73.7019" rx="2.12195" fill="#9EA0A3"/>
<rect x="543.219" y="413.735" width="4.24396" height="86.2646" rx="2.12198" fill="#9EA0A3"/>
<rect x="551.707" y="407.873" width="4.2439" height="92.1273" rx="2.12195" fill="#9EA0A3"/>
<rect x="560.195" y="410.385" width="4.2439" height="89.6147" rx="2.12195" fill="#9EA0A3"/>
<rect x="568.683" y="404.522" width="4.24396" height="95.4774" rx="2.12198" fill="#9EA0A3"/>
<rect x="577.171" y="380.234" width="4.2439" height="119.766" rx="2.12195" fill="#9EA0A3"/>
<rect x="585.659" y="394.472" width="4.2439" height="105.528" rx="2.12195" fill="#9EA0A3"/>
<rect x="594.146" y="381.91" width="4.2439" height="118.09" rx="2.12195" fill="#9EA0A3"/>
<rect x="602.634" y="367.672" width="4.2439" height="132.328" rx="2.12195" fill="#9EA0A3"/>
<rect x="611.122" y="371.022" width="4.2439" height="128.978" rx="2.12195" fill="#9EA0A3"/>
<rect x="619.61" y="383.584" width="4.2439" height="116.415" rx="2.12195" fill="#9EA0A3"/>
<rect x="628.098" y="375.209" width="4.2439" height="124.791" rx="2.12195" fill="#9EA0A3"/>
<rect x="636.585" y="358.459" width="4.2439" height="141.541" rx="2.12195" fill="#9EA0A3"/>
<rect x="645.073" y="364.322" width="4.2439" height="135.678" rx="2.12195" fill="#9EA0A3"/>
<rect x="653.561" y="368.509" width="4.2439" height="131.491" rx="2.12195" fill="#9EA0A3"/>
<rect x="662.049" y="343.384" width="4.2439" height="156.616" rx="2.12195" fill="#9EA0A3"/>
<rect x="670.537" y="333.333" width="4.2439" height="166.667" rx="2.12195" fill="#9EA0A3"/>
<rect x="679.024" y="266.332" width="4.24396" height="233.668" rx="2.12198" fill="#9EA0A3"/>
<rect x="687.512" y="200.167" width="4.2439" height="299.832" rx="2.12195" fill="#9EA0A3"/>
<rect x="696" y="237.856" width="4.2439" height="262.144" rx="2.12195" fill="#9EA0A3"/>
<rect x="704.488" y="207.705" width="4.2439" height="292.295" rx="2.12195" fill="#9EA0A3"/>
<rect x="712.976" y="187.605" width="4.2439" height="312.395" rx="2.12195" fill="#9EA0A3"/>
<rect x="721.463" y="154.104" width="4.2439" height="345.896" rx="2.12195" fill="#9EA0A3"/>
<rect x="729.951" y="184.255" width="4.24396" height="315.745" rx="2.12198" fill="#9EA0A3"/>
<rect x="738.439" y="160.804" width="4.2439" height="339.196" rx="2.12195" fill="#9EA0A3"/>
<rect x="746.927" y="130.653" width="4.2439" height="369.347" rx="2.12195" fill="#9EA0A3"/>
<rect x="755.415" y="90.4523" width="4.2439" height="409.548" rx="2.12195" fill="#9EA0A3"/>
<rect x="763.902" y="56.9514" width="4.2439" height="443.049" rx="2.12195" fill="#9EA0A3"/>
<rect x="772.39" y="33.5009" width="4.2439" height="466.499" rx="2.12195" fill="#9EA0A3"/>
<rect x="780.878" y="50.2512" width="4.2439" height="449.749" rx="2.12195" fill="#9EA0A3"/>
<rect x="789.366" width="4.2439" height="500" rx="2.12195" fill="#9EA0A3"/>
<rect x="797.854" y="93.8024" width="4.2439" height="406.198" rx="2.12195" fill="#9EA0A3"/>
<rect x="806.341" y="137.353" width="4.2439" height="362.647" rx="2.12195" fill="#9EA0A3"/>
<rect x="814.829" y="120.603" width="4.2439" height="379.397" rx="2.12195" fill="#9EA0A3"/>
<rect x="823.317" y="113.903" width="4.2439" height="386.097" rx="2.12195" fill="#9EA0A3"/>
<rect x="831.805" y="26.8007" width="4.2439" height="473.199" rx="2.12195" fill="#9EA0A3"/>
<rect x="840.293" y="13.4004" width="4.24396" height="486.6" rx="2.12198" fill="#9EA0A3"/>
<rect x="848.781" y="36.851" width="4.2439" height="463.149" rx="2.12195" fill="#9EA0A3"/>
<rect x="857.268" y="43.551" width="4.2439" height="456.449" rx="2.12195" fill="#9EA0A3"/>
<rect x="865.756" y="73.7019" width="4.2439" height="426.298" rx="2.12195" fill="#9EA0A3"/>
</svg>
