<svg width="257" height="280" viewBox="0 0 257 280" fill="none" xmlns="http://www.w3.org/2000/svg">
<path d="M168.149 192.282L168.241 193.793C168.46 197.258 169.2 199.654 170.44 201.663C171.681 203.667 173.409 205.197 175.554 206.176C177.7 207.155 180.166 207.597 183.635 207.38L191.164 206.529C194.633 206.312 197.029 205.572 199.034 204.331C201.042 203.092 202.571 201.364 203.547 199.216C204.526 197.07 204.967 194.604 204.751 191.135L204.659 189.624C204.442 186.156 203.702 183.759 202.461 181.755C201.222 179.747 199.49 178.215 197.345 177.235C195.2 176.262 192.73 175.819 189.261 176.035L181.738 176.885C178.27 177.102 175.874 177.842 173.869 179.083C171.861 180.322 170.329 182.054 169.35 184.199C168.374 186.347 167.933 188.814 168.149 192.282Z" stroke="#1D1D1F" stroke-width="8.88273" stroke-linejoin="round"/>
<path d="M168.148 192.28L168.242 193.792C168.458 197.26 169.2 199.655 170.439 201.661C171.68 203.668 173.409 205.199 175.556 206.177C177.701 207.155 180.169 207.596 183.636 207.38L191.164 206.529C194.631 206.313 197.027 205.572 199.033 204.333C201.04 203.092 202.571 201.363 203.549 199.216C204.527 197.071 204.968 194.603 204.752 191.135L204.658 189.623C204.442 186.156 203.701 183.76 202.461 181.755C201.221 179.748 199.492 178.217 197.344 177.238C195.199 176.261 192.731 175.819 189.264 176.035L181.736 176.886C178.269 177.102 175.873 177.844 173.868 179.083C171.861 180.324 170.33 182.052 169.351 184.2C168.374 186.345 167.932 188.813 168.148 192.28Z" fill="#E6E0E0"/>
<path d="M147.437 195.095C146.784 186.887 152.903 179.706 161.112 179.053L179.631 177.57L182.004 207.286L163.482 208.766C155.277 209.422 148.096 203.302 147.437 195.095Z" stroke="#1D1D1F" stroke-width="8.88273" stroke-linejoin="round"/>
<path d="M147.439 195.096C146.784 186.889 152.904 179.707 161.111 179.051L179.632 177.572L182.004 207.288L163.483 208.767C155.277 209.422 148.094 203.302 147.439 195.096Z" fill="#BFBDBD"/>
<path d="M138.76 165.59C145.538 160.563 155.108 161.986 160.135 168.763L169.364 180.431C174.39 187.208 172.971 196.776 166.19 201.805C159.413 206.832 149.842 205.416 144.816 198.638L135.59 186.968C130.563 180.19 131.979 170.62 138.76 165.59Z" stroke="#1D1D1F" stroke-width="8.88273" stroke-linejoin="round"/>
<path d="M138.76 165.592C145.539 160.564 155.108 161.983 160.136 168.761L169.362 180.43C174.39 187.209 172.971 196.778 166.192 201.806C159.413 206.834 149.844 205.415 144.816 198.636L135.59 186.968C130.562 180.189 131.981 170.62 138.76 165.592Z" fill="#BFBDBD"/>
<path d="M168.148 192.28L168.242 193.792C168.458 197.26 169.2 199.655 170.439 201.661C171.68 203.668 173.409 205.199 175.556 206.177C177.701 207.155 180.169 207.596 183.636 207.38L191.164 206.529C194.631 206.313 197.027 205.572 199.033 204.333C201.04 203.092 202.571 201.363 203.549 199.216C204.527 197.071 204.968 194.603 204.752 191.135L204.658 189.623C204.442 186.156 203.701 183.76 202.461 181.755C201.221 179.748 199.492 178.217 197.344 177.238C195.199 176.261 192.731 175.819 189.264 176.035L181.736 176.886C178.269 177.102 175.873 177.844 173.868 179.083C171.861 180.324 170.33 182.052 169.351 184.2C168.374 186.345 167.932 188.813 168.148 192.28Z" fill="white"/>
<path d="M192.904 182.485L192.117 182.505" stroke="white" stroke-width="9.32686" stroke-linecap="round"/>
<path d="M194.686 186.633L203.995 186.053" stroke="#1D1D1F" stroke-width="4.8855" stroke-linecap="round"/>
<path d="M195.891 196.053L205.219 195.36L195.891 196.053Z" fill="white"/>
<path d="M195.891 196.053L205.219 195.36" stroke="#1D1D1F" stroke-width="4.8855" stroke-linecap="round"/>
<path d="M193.516 182.223C191.487 178.709 192.666 174.283 196.073 172.315C199.48 170.348 203.903 171.541 205.932 175.055C207.01 176.922 209.403 177.61 211.297 176.516C213.191 175.422 213.792 173.006 212.714 171.139C208.53 163.891 199.32 161.322 192.125 165.477C184.929 169.631 182.549 178.891 186.733 186.139L231.41 263.521C232.488 265.388 234.882 266.076 236.776 264.982C238.67 263.889 239.271 261.472 238.193 259.605L193.516 182.223Z" fill="white" stroke="#1D1D1F" stroke-width="3.5"/>
<path d="M147.439 195.096C146.784 186.889 152.904 179.707 161.111 179.051L179.632 177.572L182.004 207.288L163.483 208.767C155.277 209.422 148.094 203.302 147.439 195.096Z" fill="white"/>
<path d="M138.76 165.592C145.539 160.564 155.108 161.983 160.136 168.761L169.362 180.43C174.39 187.209 172.971 196.778 166.192 201.806C159.413 206.834 149.844 205.415 144.816 198.636L135.59 186.968C130.562 180.189 131.981 170.62 138.76 165.592Z" fill="white"/>
<path d="M182.842 208.569L180.315 175.637L182.842 208.569Z" fill="white"/>
<path d="M182.842 208.569L180.315 175.637" stroke="#1D1D1F" stroke-width="4.8855" stroke-linecap="round" stroke-linejoin="round"/>
<path d="M207.63 254.196L193.958 242.354L186.154 204.231C185.263 199.857 183.444 196.135 180.931 193.218C178.424 190.299 175.219 188.184 171.551 187.021C167.881 185.863 163.749 185.653 159.373 186.549C154.997 187.445 151.276 189.264 148.356 191.771C145.441 194.279 148.174 195.997 147.015 199.671C145.858 203.337 145.647 207.473 146.542 211.849L157.216 264.021L207.63 254.196Z" stroke="#1D1D1F" stroke-width="8.88273" stroke-linejoin="round"/>
<path d="M207.627 254.196L193.957 242.355L186.155 204.23C185.26 199.857 183.442 196.136 180.932 193.218C178.422 190.299 175.219 188.185 171.55 187.023C167.881 185.865 163.749 185.654 159.371 186.55C154.998 187.445 151.277 189.263 148.358 191.769C145.44 194.279 148.176 195.999 147.014 199.669C145.856 203.337 145.646 207.474 146.541 211.847L157.218 264.022L207.627 254.196Z" fill="white"/>
<path d="M184.635 215.261C188.798 203.462 182.61 190.527 170.812 186.364L144.007 176.906C132.208 172.743 119.272 178.931 115.11 190.729C110.947 202.528 118.928 212.257 130.726 216.419L157.532 225.877C169.33 230.04 180.472 227.059 184.635 215.261Z" stroke="#1D1D1F" stroke-width="8.88273" stroke-linejoin="round"/>
<path d="M184.635 215.261C188.798 203.462 182.61 190.527 170.812 186.364L144.007 176.906C132.208 172.743 119.272 178.931 115.11 190.729C110.947 202.528 118.928 212.257 130.726 216.419L157.532 225.877C169.33 230.04 180.472 227.059 184.635 215.261Z" fill="white"/>
<path d="M207.627 254.196L193.957 242.355L186.155 204.23C185.26 199.857 183.442 196.136 180.932 193.218C178.422 190.299 175.219 188.185 171.55 187.023C167.881 185.865 163.749 185.654 159.371 186.55C154.998 187.445 151.277 189.263 148.358 191.769C145.44 194.279 148.176 195.999 147.014 199.669C145.856 203.337 145.646 207.474 146.541 211.847L157.218 264.022L207.627 254.196Z" fill="white"/>
<path d="M173.413 261.104C173.413 261.104 165.023 224.44 163.805 217.644C163.058 213.473 159.017 208.6 152.863 211.49C146.709 214.381 149.32 224.878 149.32 224.878L157.188 263.979L173.413 261.104Z" fill="#E1DCDC"/>
<path d="M184.899 261.313C198.757 258.246 210.009 255.757 210.01 255.758C210.01 255.759 198.758 258.251 184.9 261.318C171.042 264.385 159.79 266.874 159.79 266.873C159.79 266.871 171.041 264.38 184.899 261.313Z" fill="#0098A6"/>
<path d="M184.899 261.313C198.757 258.246 210.009 255.757 210.01 255.758C210.01 255.759 198.758 258.251 184.9 261.318C171.042 264.385 159.79 266.874 159.79 266.873C159.79 266.871 171.041 264.38 184.899 261.313Z" stroke="#1D1D1F" stroke-width="4.41002"/>
<path d="M184.635 215.261C188.798 203.462 182.61 190.527 170.812 186.364L144.007 176.906C132.208 172.743 119.272 178.931 115.11 190.729C110.947 202.528 118.928 212.257 130.726 216.419L157.532 225.877C169.33 230.04 180.472 227.059 184.635 215.261Z" fill="white"/>
<path d="M190.071 265.701L177.505 252.697L173.11 214.031C172.604 209.595 171.123 205.729 168.882 202.598C166.637 199.468 163.634 197.079 160.085 195.597C156.532 194.12 152.433 193.546 147.995 194.047C143.559 194.553 139.693 196.034 136.561 198.271C133.436 200.515 136.005 202.471 134.523 206.021C133.046 209.573 132.468 213.673 132.974 218.11L138.989 271.024L190.071 265.701Z" stroke="#1D1D1F" stroke-width="8.88273" stroke-linejoin="round"/>
<path d="M190.073 265.701L177.504 252.696L173.108 214.03C172.604 209.595 171.123 205.727 168.881 202.598C166.638 199.47 163.636 197.08 160.083 195.597C156.531 194.119 152.434 193.544 147.995 194.049C143.56 194.553 139.692 196.034 136.562 198.272C133.433 200.514 136.007 202.469 134.524 206.022C133.046 209.573 132.471 213.675 132.975 218.11L138.992 271.026L190.073 265.701Z" fill="white"/>
<path d="M110.142 177.341C101.53 186.414 101.902 200.751 110.975 209.363L131.589 228.936C140.662 237.547 153.667 238.419 162.279 229.347C170.896 220.271 170.523 205.938 161.452 197.322L142.168 176.51C133.091 167.897 118.758 168.27 110.142 177.341Z" stroke="#1D1D1F" stroke-width="8.88273" stroke-linejoin="round"/>
<path d="M110.143 177.341C101.529 186.414 101.901 200.749 110.974 209.363L131.588 228.934C140.662 237.549 153.667 238.419 162.281 229.346C170.895 220.272 170.523 205.937 161.45 197.323L142.166 176.51C133.092 167.895 118.758 168.267 110.143 177.341Z" fill="white"/>
<path d="M139.538 140.72C153.367 142.773 162.916 155.647 160.867 169.477L157.537 196.066C155.484 209.894 142.611 219.444 128.781 217.394C114.951 215.345 105.403 202.468 107.452 188.638L110.786 162.05C112.835 148.22 125.708 138.671 139.538 140.72Z" stroke="#1D1D1F" stroke-width="8.88273"/>
<path d="M139.539 140.722C153.369 142.772 162.918 155.647 160.867 169.477L157.536 196.066C155.485 209.896 142.611 219.445 128.78 217.394C114.95 215.344 105.401 202.469 107.452 188.639L110.783 162.05C112.834 148.22 125.709 138.671 139.539 140.722Z" fill="#E1DCDC"/>
<path d="M139.539 140.722C153.369 142.772 162.918 155.647 160.867 169.477L157.536 196.066C155.485 209.896 144.781 206.251 130.951 204.2C117.121 202.149 110.167 183.723 112.218 169.893L110.783 162.05C112.834 148.22 125.709 138.671 139.539 140.722Z" fill="white"/>
<path d="M190.073 265.701L177.504 252.696L173.108 214.03C172.604 209.595 171.123 205.727 168.881 202.598C166.638 199.47 163.636 197.08 160.083 195.597C156.531 194.119 152.434 193.544 147.995 194.049C143.56 194.553 139.692 196.034 136.562 198.272C133.433 200.514 136.007 202.469 134.524 206.022C133.046 209.573 132.471 213.675 132.975 218.11L138.992 271.026L190.073 265.701Z" fill="white"/>
<path d="M110.143 177.341C101.529 186.414 101.901 200.749 110.974 209.363L131.588 228.934C140.662 237.549 153.667 238.419 162.281 229.346C170.895 220.272 170.523 205.937 161.45 197.323L142.166 176.51C133.092 167.895 118.758 168.267 110.143 177.341Z" fill="white"/>
<path d="M104.441 188.085C102.807 195.57 105.012 203.702 110.975 209.363C110.975 209.363 113.15 197.876 113.928 188.389C109.894 186.517 109.061 187.449 104.441 188.085Z" fill="#E1DCDC"/>
<path d="M109.213 193.233C105.647 197.583 104.327 202.41 107.714 206.19L132.302 230.258C136.111 234.508 142.545 238.653 146.555 233.762C150.565 228.871 149.846 222.633 146.037 218.384L115.299 188.24C111.49 183.99 112.779 188.884 109.213 193.233Z" fill="#E1DCDC"/>
<path d="M155.39 269.405C155.39 269.405 149.841 232.206 149.149 225.335C148.725 221.12 145.07 215.951 138.712 218.36C132.355 220.769 134.151 231.435 134.151 231.435L138.992 271.026L155.39 269.405Z" fill="#E1DCDC"/>
<path d="M164.132 270.421C178.258 269.034 189.727 267.909 189.727 267.91C189.727 267.912 178.258 269.039 164.133 270.426C150.007 271.813 138.538 272.938 138.538 272.937C138.538 272.936 150.007 271.808 164.132 270.421Z" fill="#0098A6"/>
<path d="M164.132 270.421C178.258 269.034 189.727 267.909 189.727 267.91C189.727 267.912 178.258 269.039 164.133 270.426C150.007 271.813 138.538 272.938 138.538 272.937C138.538 272.936 150.007 271.808 164.132 270.421Z" stroke="#1D1D1F" stroke-width="4.41002"/>
<path d="M154.195 186.034L109.306 186.804L154.195 186.034Z" fill="white"/>
<path d="M154.195 186.034L109.306 186.804" stroke="#1D1D1F" stroke-width="4.8855" stroke-linecap="round" stroke-linejoin="round"/>
<path d="M156.585 171.411C160.627 171.583 163.767 175.002 163.595 179.044L163.048 191.913C162.876 195.955 159.457 199.095 155.415 198.923C151.373 198.751 148.233 195.332 148.405 191.29L148.952 178.422C149.124 174.379 152.542 171.24 156.585 171.411Z" fill="white"/>
<path d="M156.585 171.411C160.627 171.583 163.767 175.002 163.595 179.044L163.048 191.913C162.876 195.955 159.457 199.095 155.415 198.923C151.373 198.751 148.233 195.332 148.405 191.29L148.952 178.422C149.124 174.379 152.542 171.24 156.585 171.411Z" stroke="#1D1D1F" stroke-width="4.8855"/>
<path d="M157.769 184.958L162.984 185.338L157.769 184.958Z" fill="white"/>
<path d="M157.769 184.958L162.984 185.338" stroke="#1D1D1F" stroke-width="5.32964" stroke-linecap="round" stroke-linejoin="round"/>
<path d="M200.273 88.5453C197.64 88.158 195.185 88.4171 193.037 89.2323C190.889 90.0475 189.046 91.413 187.64 93.2342C186.24 95.0528 185.278 97.327 184.886 99.9582L184.392 103.307C184.001 105.938 184.26 108.394 185.074 110.546C185.889 112.694 187.255 114.537 189.077 115.938C190.898 117.344 193.173 118.306 195.805 118.694C198.437 119.085 200.892 118.826 203.04 118.011C205.188 117.196 207.031 115.83 208.437 114.009C209.838 112.186 210.801 109.912 211.192 107.281L211.686 103.932C212.078 101.301 211.818 98.8451 211.003 96.6971C210.188 94.5492 208.823 92.7063 207.001 91.3007C205.179 89.8993 202.904 88.9367 200.273 88.5453Z" fill="white"/>
<path d="M200.273 88.5453C197.64 88.158 195.185 88.4171 193.037 89.2323C190.889 90.0475 189.046 91.413 187.64 93.2342C186.24 95.0528 185.278 97.327 184.886 99.9582L184.392 103.307C184.001 105.938 184.26 108.394 185.074 110.546C185.889 112.694 187.255 114.537 189.077 115.938C190.898 117.344 193.173 118.306 195.805 118.694C198.437 119.085 200.892 118.826 203.04 118.011C205.188 117.196 207.031 115.83 208.437 114.009C209.838 112.186 210.801 109.912 211.192 107.281L211.686 103.932C212.078 101.301 211.818 98.8451 211.003 96.6971C210.188 94.5492 208.823 92.7063 207.001 91.3007C205.179 89.8993 202.904 88.9367 200.273 88.5453Z" stroke="#1D1D1F" stroke-width="4.44136"/>
<path d="M142.235 49.5587L151.895 50.306C165.078 51.3311 173.479 54.1115 180.605 58.6607C187.727 63.2125 193.109 69.5012 196.505 77.2413C199.906 84.983 201.358 93.709 200.337 106.894L199.759 114.339C198.738 127.523 195.953 135.923 191.404 143.049C186.852 150.17 180.568 155.555 172.828 158.951C165.166 162.314 156.541 163.773 143.589 162.811L133.513 162.029C120.328 161.009 111.927 158.228 104.802 153.675C97.6809 149.123 92.2968 142.838 88.9005 135.098C85.5364 127.44 84.0813 118.817 85.0392 105.864L85.647 98.0011C86.6736 84.8134 89.4525 76.4169 94.0017 69.2902C98.555 62.165 104.842 56.7865 112.584 53.386C120.324 49.9897 129.05 48.5378 142.235 49.5587Z" stroke="#1D1D1F" stroke-width="8.88273" stroke-linecap="round" stroke-linejoin="round"/>
<path d="M142.235 49.5587L151.895 50.306C165.078 51.3311 173.479 54.1115 180.605 58.6607C187.727 63.2125 193.109 69.5012 196.505 77.2413C199.906 84.983 201.358 93.709 200.337 106.894L199.759 114.339C198.738 127.523 195.953 135.923 191.404 143.049C186.852 150.17 180.568 155.555 172.828 158.951C165.166 162.314 156.541 163.773 143.589 162.811L133.513 162.029C120.328 161.009 111.927 158.228 104.802 153.675C97.6809 149.123 92.2968 142.838 88.9005 135.098C85.5364 127.44 84.0813 118.817 85.0392 105.864L85.647 98.0011C86.6736 84.8134 89.4525 76.4169 94.0017 69.2902C98.555 62.165 104.842 56.7865 112.584 53.386C120.324 49.9897 129.05 48.5378 142.235 49.5587Z" fill="white"/>
<path d="M142.235 49.5587C142.235 49.5587 105.678 50.1624 102.077 105.221C98.9932 152.374 133.513 162.029 133.513 162.029C120.328 161.009 111.927 158.228 104.802 153.675C97.6809 149.123 92.2968 142.838 88.9005 135.098C85.5364 127.44 84.0813 118.817 85.0392 105.864L85.647 98.0011C86.6736 84.8135 89.4525 76.4169 94.0017 69.2902C98.555 62.165 104.842 56.7866 112.584 53.386C120.324 49.9897 129.05 48.5378 142.235 49.5587Z" fill="#E1DCDC"/>
<path d="M84.7262 167.541C67.7279 164.333 66.2215 148.886 69.3898 125.793C73.2665 97.5392 45.376 92.5813 42.4368 92.5455" stroke="#1D1D1F" stroke-width="12.5617" stroke-linecap="round"/>
<path d="M84.7262 167.541C67.7279 164.333 66.2215 148.886 69.3898 125.793C73.2665 97.5392 45.376 92.5813 42.4368 92.5455" stroke="white" stroke-width="4.18723" stroke-linecap="round"/>
<path d="M98.0704 153.96L101.614 155.392C104.429 156.386 105.349 157.039 106.18 157.954C107.017 158.866 107.541 159.962 107.726 161.186L107.751 161.341C107.903 162.483 107.811 163.6 106.917 166.171L98.3588 190.428C97.3654 193.243 96.7124 194.162 95.7973 194.994C94.8848 195.831 93.7898 196.355 92.5655 196.54L92.3318 196.573C91.217 196.713 90.0919 196.604 87.5803 195.731L84.0372 194.299C81.2218 193.305 80.3022 192.652 79.4706 191.737C78.6337 190.825 78.1098 189.73 77.9246 188.505L77.8995 188.35C77.7472 187.208 77.8396 186.091 78.7333 183.52L87.2919 159.264C88.2853 156.448 88.9383 155.529 89.8534 154.697C90.7659 153.86 91.861 153.336 93.0852 153.151L93.3189 153.118C94.4337 152.979 95.5588 153.087 98.0704 153.96Z" fill="white"/>
<path d="M98.0704 153.96L101.614 155.392C104.429 156.386 105.349 157.039 106.18 157.954C107.017 158.866 107.541 159.962 107.726 161.186L107.751 161.341C107.903 162.483 107.811 163.6 106.917 166.171L98.3588 190.428C97.3654 193.243 96.7124 194.162 95.7973 194.994C94.8848 195.831 93.7898 196.355 92.5655 196.54L92.3318 196.573C91.217 196.713 90.0919 196.604 87.5803 195.731L84.0372 194.299C81.2218 193.305 80.3022 192.652 79.4706 191.737C78.6337 190.825 78.1098 189.73 77.9246 188.505L77.8995 188.35C77.7472 187.208 77.8396 186.091 78.7333 183.52L87.2919 159.264C88.2853 156.448 88.9383 155.529 89.8534 154.697C90.7659 153.86 91.861 153.336 93.0852 153.151L93.3189 153.118C94.4337 152.979 95.5588 153.087 98.0704 153.96Z" stroke="#1D1D1F" stroke-width="4.60595" stroke-linejoin="round"/>
<path d="M97.9402 154.4L100.696 155.267C103.511 156.26 104.431 156.913 105.262 157.828C106.099 158.741 106.623 159.836 106.808 161.06L106.841 161.294C106.986 162.432 106.868 163.585 105.937 166.223L103.361 173.524L84.5856 167.005L87.1617 159.703C88.1551 156.888 88.8081 155.969 89.7232 155.137C90.6357 154.3 91.7308 153.776 92.955 153.591L93.1887 153.558C94.3035 153.418 95.4286 153.527 97.9402 154.4Z" fill="white"/>
<path d="M97.9402 154.4L100.696 155.267C103.511 156.26 104.431 156.913 105.262 157.828C106.099 158.741 106.623 159.836 106.808 161.06L106.841 161.294C106.986 162.432 106.868 163.585 105.937 166.223L103.361 173.524L84.5856 167.005L87.1617 159.703C88.1551 156.888 88.8081 155.969 89.7232 155.137C90.6357 154.3 91.7308 153.776 92.955 153.591L93.1887 153.558C94.3035 153.418 95.4286 153.527 97.9402 154.4Z" stroke="#1D1D1F" stroke-width="4.60595" stroke-linejoin="round"/>
<path d="M173.573 67.1348C178.121 70.0668 181.872 73.8011 184.739 78.2465L173.573 67.1348Z" fill="white"/>
<path d="M173.573 67.1348C178.121 70.0668 181.872 73.8011 184.739 78.2465" stroke="#1D1D1F" stroke-width="4.8855" stroke-linecap="round"/>
<path d="M84.7004 77.1181C81.9885 76.7029 79.465 76.9381 77.2638 77.7345C75.0627 78.5309 73.1786 79.8809 71.7534 81.6962C70.3318 83.5071 69.3646 85.7797 68.9886 88.4164L68.5144 91.7719C68.1384 94.4086 68.4267 96.8765 69.2883 99.0436C70.1487 101.208 71.5742 103.067 73.4609 104.496C75.3484 105.925 77.6982 106.909 80.4094 107.329C83.1198 107.748 85.6438 107.513 87.8449 106.717C90.0461 105.92 91.9312 104.571 93.3553 102.755C94.7784 100.94 95.7456 98.6673 96.1216 96.0306L96.5958 92.6751C96.9718 90.0384 96.6808 87.5715 95.8204 85.4075C94.96 83.2436 93.5393 81.377 91.6493 79.9514C89.7604 78.5267 87.4118 77.5332 84.7004 77.1181Z" fill="#E1DCDC"/>
<path d="M84.7004 77.1181C81.9885 76.7029 79.465 76.9381 77.2638 77.7345C75.0627 78.5309 73.1786 79.8809 71.7534 81.6962C70.3318 83.5071 69.3646 85.7797 68.9886 88.4164L68.5144 91.7719C68.1384 94.4086 68.4267 96.8765 69.2883 99.0436C70.1487 101.208 71.5742 103.067 73.4609 104.496C75.3484 105.925 77.6982 106.909 80.4094 107.329C83.1198 107.748 85.6438 107.513 87.8449 106.717C90.0461 105.92 91.9312 104.571 93.3553 102.755C94.7784 100.94 95.7456 98.6673 96.1216 96.0306L96.5958 92.6751C96.9718 90.0384 96.6808 87.5715 95.8204 85.4075C94.96 83.2436 93.5393 81.377 91.6493 79.9514C89.7604 78.5267 87.4118 77.5332 84.7004 77.1181Z" stroke="#1D1D1F" stroke-width="4.44136"/>
<path d="M81.667 85.8237L79.0715 97.5948" stroke="white" stroke-width="4.8855" stroke-linecap="round" stroke-linejoin="round"/>
<path d="M149.147 81.573L162.326 81.9041C169.001 82.074 174.144 83.4364 178.428 85.871C182.709 88.3 186.032 91.7897 188.246 96.1927C190.458 100.59 191.565 105.794 191.399 112.471L191.356 114.103C191.19 120.78 189.823 125.921 187.393 130.207C184.964 134.488 181.47 137.809 177.071 140.025C172.67 142.235 167.47 143.344 160.789 143.177L147.615 142.847C140.934 142.68 135.793 141.313 131.511 138.885C127.227 136.45 123.904 132.96 121.694 128.559C119.483 124.161 118.376 118.957 118.541 112.281L118.581 110.646C118.751 103.971 120.113 98.8288 122.548 94.5448C124.977 90.2635 128.466 86.9405 132.87 84.7263C137.267 82.5147 142.471 81.4074 149.147 81.573Z" fill="white"/>
<path d="M149.147 81.573L162.326 81.9041C169.001 82.074 174.144 83.4364 178.428 85.871C182.709 88.3 186.032 91.7897 188.246 96.1927C190.458 100.59 191.565 105.794 191.399 112.471L191.356 114.103C191.19 120.78 189.823 125.921 187.393 130.207C184.964 134.488 181.47 137.809 177.071 140.025C172.67 142.235 167.47 143.344 160.789 143.177L147.615 142.847C140.934 142.68 135.793 141.313 131.511 138.885C127.227 136.45 123.904 132.96 121.694 128.559C119.483 124.161 118.376 118.957 118.541 112.281L118.581 110.646C118.751 103.971 120.113 98.8288 122.548 94.5448C124.977 90.2635 128.466 86.9405 132.87 84.7263C137.267 82.5147 142.471 81.4074 149.147 81.573Z" stroke="#1D1D1F" stroke-width="4.44136" stroke-linecap="round" stroke-linejoin="round"/>
<path d="M135.914 119.67C139.58 119.955 142.786 117.21 143.071 113.543C143.355 109.877 140.61 106.671 136.944 106.386C133.277 106.102 130.071 108.847 129.787 112.513C129.502 116.18 132.247 119.386 135.914 119.67Z" fill="#1D1D1F"/>
<path d="M132.406 98.6739L144.179 97.2438" stroke="#1D1D1F" stroke-width="4.44135" stroke-linecap="round"/>
<path d="M176.886 120.037C180.552 120.321 183.759 117.576 184.043 113.91C184.328 110.243 181.583 107.037 177.916 106.752C174.25 106.468 171.043 109.213 170.759 112.879C170.475 116.546 173.22 119.752 176.886 120.037Z" fill="#1D1D1F"/>
<path d="M185.161 99.1295L173.411 97.5209" stroke="#1D1D1F" stroke-width="4.44135" stroke-linecap="round"/>
<path d="M153.487 115.665C154.912 122.292 164.012 122.292 164.59 115.749" stroke="#1D1D1F" stroke-width="4.44135" stroke-linecap="round"/>
<mask id="path-69-outside-1" maskUnits="userSpaceOnUse" x="72.5068" y="213.996" width="51.2164" height="43.0351" fill="black">
<rect fill="white" x="72.5068" y="213.996" width="51.2164" height="43.0351"/>
<path fill-rule="evenodd" clip-rule="evenodd" d="M103.728 223.958L94.3245 223.136C87.9175 222.575 82.2692 227.315 81.7087 233.722C81.1481 240.129 85.8876 245.777 92.2946 246.338L101.698 247.16C108.105 247.721 113.753 242.981 114.314 236.574C114.874 230.167 110.135 224.519 103.728 223.958ZM94.6296 219.649C86.2969 218.92 78.951 225.084 78.222 233.417C77.493 241.749 83.657 249.095 91.9896 249.824L101.393 250.647C109.726 251.376 117.072 245.212 117.801 236.879C118.53 228.547 112.366 221.201 104.033 220.472L94.6296 219.649Z"/>
</mask>
<path fill-rule="evenodd" clip-rule="evenodd" d="M103.728 223.958L94.3245 223.136C87.9175 222.575 82.2692 227.315 81.7087 233.722C81.1481 240.129 85.8876 245.777 92.2946 246.338L101.698 247.16C108.105 247.721 113.753 242.981 114.314 236.574C114.874 230.167 110.135 224.519 103.728 223.958ZM94.6296 219.649C86.2969 218.92 78.951 225.084 78.222 233.417C77.493 241.749 83.657 249.095 91.9896 249.824L101.393 250.647C109.726 251.376 117.072 245.212 117.801 236.879C118.53 228.547 112.366 221.201 104.033 220.472L94.6296 219.649Z" fill="white"/>
<path d="M93.9759 227.121L103.379 227.943L104.077 219.974L94.6732 219.151L93.9759 227.121ZM85.6935 234.07C86.0615 229.864 89.7696 226.753 93.9759 227.121L94.6732 219.151C86.0654 218.398 78.477 224.765 77.7239 233.373L85.6935 234.07ZM92.6433 242.353C88.437 241.985 85.3255 238.277 85.6935 234.07L77.7239 233.373C76.9708 241.981 83.3383 249.569 91.946 250.322L92.6433 242.353ZM102.047 243.175L92.6433 242.353L91.946 250.322L101.349 251.145L102.047 243.175ZM110.329 236.226C109.961 240.432 106.253 243.543 102.047 243.175L101.349 251.145C109.957 251.898 117.546 245.531 118.299 236.923L110.329 236.226ZM103.379 227.943C107.586 228.311 110.697 232.019 110.329 236.226L118.299 236.923C119.052 228.315 112.684 220.727 104.077 219.974L103.379 227.943ZM82.2068 233.765C82.7433 227.633 88.149 223.097 94.281 223.634L94.9782 215.664C84.4448 214.743 75.1588 222.535 74.2372 233.068L82.2068 233.765ZM92.3382 245.839C86.2063 245.303 81.6703 239.897 82.2068 233.765L74.2372 233.068C73.3157 243.601 81.1076 252.887 91.641 253.809L92.3382 245.839ZM101.742 246.662L92.3382 245.839L91.641 253.809L101.044 254.632L101.742 246.662ZM113.816 236.531C113.279 242.663 107.873 247.199 101.742 246.662L101.044 254.632C111.578 255.553 120.864 247.761 121.785 237.228L113.816 236.531ZM103.684 224.457C109.816 224.993 114.352 230.399 113.816 236.531L121.785 237.228C122.707 226.695 114.915 217.409 104.382 216.487L103.684 224.457ZM94.281 223.634L103.684 224.457L104.382 216.487L94.9782 215.664L94.281 223.634Z" fill="#1D1D1F" mask="url(#path-69-outside-1)"/>
<rect x="64.813" y="229.931" width="64.9459" height="38.0919" rx="5.5" transform="rotate(5 64.813 229.931)" fill="white" stroke="#1D1D1F" stroke-width="4"/>
<path d="M99.8317 189.765L98.3179 189.771C94.8462 189.791 92.4116 190.393 90.3359 191.516C88.2637 192.641 86.6381 194.278 85.5379 196.364C84.4376 198.451 83.8562 200.888 83.8742 204.363L84.2941 211.929C84.3121 215.404 84.9141 217.839 86.0391 219.911C87.1616 221.986 88.7991 223.612 90.8878 224.709C92.974 225.809 95.4113 226.39 98.8866 226.372L100.4 226.367C103.876 226.348 106.31 225.747 108.382 224.621C110.458 223.499 112.086 221.858 113.187 219.772C114.281 217.687 114.865 215.246 114.847 211.77L114.428 204.211C114.41 200.736 113.808 198.301 112.683 196.229C111.56 194.153 109.919 192.525 107.833 191.425C105.744 190.328 103.307 189.747 99.8317 189.765Z" stroke="#1D1D1F" stroke-width="8.88273" stroke-linejoin="round"/>
<path d="M99.8343 189.764L98.3189 189.771C94.8449 189.789 92.411 190.392 90.3381 191.515C88.2635 192.639 86.636 194.278 85.5367 196.366C84.4383 198.452 83.8564 200.89 83.8741 204.364L84.2936 211.928C84.3113 215.402 84.9144 217.836 86.0375 219.909C87.1615 221.984 88.8002 223.611 90.888 224.711C92.9739 225.809 95.4126 226.391 98.8865 226.373L100.401 226.366C103.875 226.348 106.31 225.745 108.383 224.622C110.457 223.498 112.085 221.859 113.184 219.771C114.283 217.685 114.864 215.247 114.847 211.773L114.427 204.209C114.41 200.735 113.806 198.301 112.683 196.228C111.559 194.153 109.921 192.526 107.833 191.426C105.747 190.328 103.308 189.746 99.8343 189.764Z" fill="white"/>
<path d="M99.2086 168.619C107.442 168.724 114.03 175.477 113.926 183.711L113.7 202.288L83.8923 201.92L84.1207 183.34C84.2222 175.11 90.976 168.522 99.2086 168.619Z" stroke="#1D1D1F" stroke-width="8.88273" stroke-linejoin="round"/>
<path d="M99.2086 168.622C107.44 168.724 114.03 175.478 113.928 183.71L113.698 202.289L83.8908 201.92L84.1206 183.342C84.2224 175.11 90.9767 168.52 99.2086 168.622Z" fill="white"/>
<path d="M121.118 182.315C121.028 182.409 120.937 182.497 120.844 182.589L110.523 193.302C104.483 199.194 94.8116 199.074 88.916 193.031C83.0239 186.991 83.1405 177.317 89.1808 171.425L99.5052 160.714C105.545 154.822 115.22 154.938 121.115 160.981C122.251 162.148 123.168 163.452 123.86 164.841" stroke="#1D1D1F" stroke-width="8.88273" stroke-linecap="round" stroke-linejoin="round"/>
<path d="M121.118 182.317C121.029 182.408 120.938 182.5 120.846 182.589L110.523 193.3C104.482 199.194 94.8089 199.074 88.9152 193.033C83.0216 186.991 83.1412 177.318 89.1825 171.424L99.5049 160.714C105.546 154.82 115.219 154.94 121.113 160.981C122.253 162.149 123.167 163.453 123.858 164.839" fill="white"/>
<path d="M107.515 209.188L108.863 209.025" stroke="#1D1D1F" stroke-width="18.2096" stroke-linecap="round"/>
<path d="M99.8343 189.764L98.3189 189.771C94.8449 189.789 92.411 190.392 90.3381 191.515C88.2635 192.639 86.636 194.278 85.5367 196.366C84.4383 198.452 83.8564 200.89 83.8741 204.364L84.2936 211.928C84.3113 215.402 84.9144 217.836 86.0375 219.909C87.1615 221.984 88.8002 223.611 90.888 224.711C92.9739 225.809 95.4126 226.391 98.8865 226.373L100.401 226.366C103.875 226.348 106.31 225.745 108.383 224.622C110.457 223.498 112.085 221.859 113.184 219.771C114.283 217.685 114.864 215.247 114.847 211.773L114.427 204.209C114.41 200.735 113.806 198.301 112.683 196.228C111.559 194.153 109.921 192.526 107.833 191.426C105.747 190.328 103.308 189.746 99.8343 189.764Z" fill="white"/>
<path d="M107.515 209.188L108.863 209.025" stroke="white" stroke-width="9.32687" stroke-linecap="round"/>
<path d="M96.1367 226.181L95.9781 216.828L96.1367 226.181Z" fill="white"/>
<path d="M96.1367 226.181L95.9781 216.828" stroke="#1D1D1F" stroke-width="4.8855" stroke-linecap="round"/>
<path d="M105.131 226.135L105.083 216.808" stroke="#1D1D1F" stroke-width="4.8855" stroke-linecap="round"/>
<path d="M99.2086 168.622C107.44 168.724 114.03 175.478 113.928 183.71L113.698 202.289L83.8908 201.92L84.1206 183.342C84.2224 175.11 90.9767 168.52 99.2086 168.622Z" fill="white"/>
<path d="M121.113 160.981C127.007 167.023 126.887 176.696 120.846 182.589L110.523 193.3C104.482 199.194 94.8089 199.074 88.9152 193.033C83.0216 186.991 83.1412 177.318 89.1825 171.424L99.5049 160.714C105.546 154.82 115.219 154.94 121.113 160.981Z" fill="white"/>
<path d="M85.1913 186.679C83.6494 181.425 84.9898 175.515 89.1825 171.425L99.5048 160.714C103.717 156.605 109.696 155.419 114.927 157.126C105.819 166.169 91.1061 180.797 85.1913 186.679Z" fill="#E1DCDC"/>
<path d="M93.3579 201.514L83.8907 201.92L84.1205 183.341C84.1891 177.795 88.2488 169.18 94.8742 175.195C91.0617 178.587 93.3579 201.514 93.3579 201.514Z" fill="#E1DCDC"/>
<path d="M115.41 200.472L82.8789 200.892L115.41 200.472Z" fill="white"/>
<path d="M115.41 200.472L82.8789 200.892" stroke="#1D1D1F" stroke-width="4.8855" stroke-linecap="round" stroke-linejoin="round"/>
<ellipse cx="165.961" cy="58.8692" rx="42.75" ry="13.9801" transform="rotate(22.485 165.961 58.8692)" fill="white" stroke="#1D1D1F" stroke-width="4.4425"/>
<path d="M192.553 63.9019C192.538 63.9252 192.526 63.9487 192.515 63.9738C190.842 67.8146 178.671 66.4443 165.266 60.8957C151.817 55.329 142.218 47.6646 143.827 43.7769C145.287 40.2503 151.261 23.3163 152.358 20.2002C152.453 19.9309 152.753 19.7967 153.018 19.9041L201.001 39.3885C201.233 39.4829 201.36 39.7327 201.295 39.975C200.576 42.6664 196.499 57.5335 192.553 63.9019Z" fill="white" stroke="#1D1D1F" stroke-width="4.4425"/>
<ellipse cx="177.283" cy="29.0891" rx="26.3556" ry="7.61853" transform="rotate(22.485 177.283 29.0891)" fill="white" stroke="#1D1D1F" stroke-width="4.4425"/>
<path fill-rule="evenodd" clip-rule="evenodd" d="M56.0221 207.361C56.7993 207.243 57.5687 207.708 57.7524 208.472L60.8291 221.271C61.0128 222.035 60.5407 222.81 59.7647 222.935C50.7011 224.392 42.6156 218.899 33.6141 220.397C32.8388 220.526 32.0657 220.067 31.8767 219.304L28.7125 206.526C28.5236 205.763 28.9905 204.986 29.765 204.852C39.1598 203.225 47.4766 208.65 56.0221 207.361Z" fill="#07A6B3"/>
<ellipse cx="45.2835" cy="213.806" rx="3.90957" ry="6.1408" transform="rotate(-18.76 45.2835 213.806)" fill="white"/>
<path fill-rule="evenodd" clip-rule="evenodd" d="M33.1316 189.246C33.8161 188.86 34.1364 188.02 33.8105 187.305L28.3525 175.326C28.0266 174.611 27.1777 174.291 26.4895 174.671C18.451 179.104 15.4633 188.411 7.44854 192.774C6.75822 193.15 6.43189 193.988 6.75287 194.705L12.1288 206.722C12.4498 207.439 13.2963 207.764 13.989 207.393C22.3927 202.889 25.6047 193.493 33.1316 189.246Z" fill="#07A6B3"/>
<ellipse rx="3.90957" ry="6.1408" transform="matrix(0.94408 -0.329718 -0.329718 -0.94408 19.7016 191.781)" fill="white"/>
</svg>
