<svg width="815" height="483" viewBox="0 0 815 483" fill="none" xmlns="http://www.w3.org/2000/svg">
<g clip-path="url(#clip0)">
<g filter="url(#filter0_f)">
<path fill-rule="evenodd" clip-rule="evenodd" d="M41.8287 156.788C41.5469 156.788 41.2679 156.732 41.0077 156.624C40.7474 156.516 40.511 156.357 40.3119 156.158C40.1128 155.959 39.9549 155.722 39.8473 155.461C39.7397 155.201 39.6845 154.922 39.6847 154.64C39.6847 153.454 40.6447 152.492 41.8287 152.492C43.0127 152.492 43.9717 153.454 43.9717 154.64C43.9717 155.826 43.0117 156.788 41.8287 156.788ZM161.861 121.349C161.579 121.349 161.3 121.293 161.04 121.185C160.779 121.077 160.543 120.918 160.344 120.719C160.145 120.52 159.987 120.283 159.879 120.022C159.772 119.762 159.716 119.483 159.717 119.201C159.717 118.015 160.677 117.054 161.861 117.054C163.044 117.054 164.004 118.015 164.004 119.201C164.004 120.388 163.044 121.349 161.861 121.349ZM38.4107 31.137C37.9841 31.1362 37.5752 30.9661 37.2739 30.664C36.9726 30.362 36.8035 29.9527 36.8037 29.526C36.8037 28.636 37.5237 27.916 38.4117 27.916C38.8382 27.9168 39.247 28.0868 39.5482 28.3886C39.8495 28.6905 40.0187 29.0995 40.0187 29.526C40.0187 30.416 39.2987 31.136 38.4117 31.136L38.4107 31.137ZM1.10474 107.388C0.961136 107.392 0.818144 107.368 0.684241 107.316C0.550338 107.264 0.428251 107.185 0.325221 107.085C0.22219 106.985 0.140314 106.865 0.0844491 106.733C0.0285838 106.6 -0.000133486 106.458 4.66463e-07 106.314C0.000134419 106.171 0.0291168 106.029 0.0852289 105.896C0.141341 105.764 0.22344 105.644 0.326657 105.545C0.429874 105.445 0.552107 105.366 0.686107 105.315C0.820107 105.263 0.963145 105.238 1.10674 105.243C1.38551 105.252 1.64991 105.369 1.84391 105.569C2.03791 105.77 2.14626 106.038 2.146 106.316C2.14574 106.595 2.03689 106.863 1.84252 107.063C1.64814 107.263 1.38352 107.38 1.10474 107.388ZM176.865 47.25C176.721 47.2542 176.578 47.2295 176.444 47.1774C176.31 47.1253 176.188 47.0468 176.085 46.9466C175.982 46.8465 175.901 46.7266 175.845 46.5942C175.789 46.4619 175.76 46.3196 175.761 46.176C175.761 46.0323 175.79 45.8901 175.846 45.7579C175.902 45.6257 175.984 45.5061 176.088 45.4062C176.191 45.3063 176.313 45.2282 176.447 45.1765C176.581 45.1247 176.724 45.1004 176.868 45.105C177.147 45.1138 177.411 45.2307 177.605 45.4311C177.799 45.6315 177.907 45.8996 177.907 46.1785C177.907 46.4574 177.798 46.7252 177.604 46.9253C177.409 47.1253 177.145 47.2417 176.866 47.25H176.865ZM179.009 196.522C178.868 196.522 178.728 196.494 178.598 196.44C178.468 196.386 178.35 196.307 178.25 196.207C178.151 196.107 178.072 195.989 178.018 195.859C177.964 195.728 177.937 195.589 177.937 195.448C177.937 195.307 177.965 195.168 178.019 195.037C178.073 194.907 178.152 194.789 178.252 194.69C178.351 194.59 178.47 194.511 178.6 194.457C178.73 194.404 178.87 194.376 179.011 194.376C179.295 194.376 179.568 194.49 179.769 194.691C179.97 194.892 180.083 195.165 180.083 195.45C180.082 195.735 179.969 196.007 179.768 196.208C179.566 196.409 179.293 196.522 179.009 196.522ZM793.1 32.216C792.818 32.2157 792.539 32.16 792.279 32.0519C792.018 31.9438 791.782 31.7855 791.583 31.586C791.384 31.3866 791.226 31.1499 791.118 30.8894C791.011 30.6289 790.956 30.3498 790.956 30.068C790.956 28.882 791.916 27.92 793.1 27.92C794.284 27.92 795.243 28.882 795.243 30.068C795.243 31.254 794.283 32.216 793.1 32.216ZM772.737 189.005C772.168 189.004 771.622 188.777 771.221 188.375C770.819 187.972 770.593 187.426 770.594 186.857C770.594 185.671 771.554 184.709 772.737 184.709C773.921 184.709 774.881 185.671 774.881 186.857C774.881 188.043 773.921 189.005 772.737 189.005ZM805.424 124.571C804.997 124.57 804.588 124.4 804.287 124.098C803.986 123.796 803.816 123.387 803.817 122.96C803.817 122.07 804.537 121.35 805.424 121.35C805.85 121.351 806.259 121.52 806.561 121.822C806.862 122.124 807.032 122.533 807.032 122.96C807.032 123.85 806.312 124.57 805.424 124.57V124.571ZM709.506 66.581C709.221 66.5807 708.948 66.4674 708.747 66.266C708.546 66.0646 708.433 65.7916 708.434 65.507C708.434 65.2224 708.547 64.9496 708.749 64.7486C708.95 64.5475 709.223 64.4347 709.508 64.435C709.786 64.4438 710.051 64.5607 710.245 64.7611C710.439 64.9615 710.547 65.2296 710.547 65.5085C710.547 65.7874 710.438 66.0552 710.244 66.2552C710.049 66.4553 709.785 66.5717 709.506 66.58V66.581ZM646.275 2.146C645.99 2.14574 645.717 2.03243 645.516 1.83102C645.315 1.6296 645.203 1.35658 645.203 1.072C645.203 0.787423 645.316 0.514607 645.518 0.313568C645.719 0.112529 645.992 -0.00026475 646.277 4.66655e-07C646.561 0.000265683 646.834 0.113568 647.035 0.314982C647.236 0.516396 647.349 0.789423 647.349 1.074C647.349 1.35858 647.235 1.63139 647.034 1.83243C646.832 2.03347 646.559 2.14627 646.275 2.146ZM697.809 422.089C698.236 422.09 698.645 422.26 698.946 422.562C699.248 422.864 699.417 423.273 699.417 423.7C699.417 424.59 698.697 425.31 697.809 425.31C697.382 425.309 696.973 425.14 696.672 424.838C696.37 424.536 696.201 424.127 696.201 423.7C696.201 422.81 696.921 422.09 697.809 422.09V422.089ZM696.737 300.735C697.164 300.736 697.573 300.906 697.874 301.208C698.176 301.51 698.345 301.919 698.345 302.346C698.345 303.236 697.625 303.957 696.737 303.957C696.31 303.956 695.901 303.787 695.6 303.485C695.298 303.183 695.129 302.774 695.129 302.347C695.129 301.457 695.849 300.735 696.737 300.735ZM599.18 329.731C599.391 329.731 599.6 329.773 599.796 329.854C599.991 329.935 600.168 330.054 600.318 330.203C600.467 330.353 600.586 330.53 600.667 330.726C600.747 330.921 600.789 331.131 600.789 331.342C600.768 331.755 600.59 332.144 600.29 332.428C599.991 332.713 599.594 332.872 599.181 332.872C598.768 332.872 598.37 332.713 598.071 332.428C597.772 332.144 597.593 331.755 597.573 331.342C597.573 330.452 598.293 329.732 599.18 329.732V329.731ZM726.218 400.611C726.361 400.607 726.504 400.631 726.638 400.683C726.772 400.736 726.894 400.814 726.997 400.914C727.1 401.014 727.182 401.134 727.238 401.266C727.294 401.399 727.323 401.541 727.322 401.685C727.322 401.828 727.293 401.97 727.237 402.103C727.181 402.235 727.099 402.355 726.996 402.454C726.893 402.554 726.77 402.633 726.636 402.684C726.502 402.736 726.359 402.761 726.216 402.756C725.937 402.747 725.673 402.63 725.479 402.43C725.285 402.229 725.176 401.961 725.176 401.683C725.177 401.404 725.286 401.136 725.48 400.936C725.674 400.736 725.939 400.619 726.218 400.611ZM729.434 339.397C729.575 339.397 729.714 339.425 729.844 339.479C729.974 339.533 730.093 339.612 730.192 339.712C730.292 339.812 730.371 339.93 730.424 340.06C730.478 340.191 730.506 340.33 730.506 340.471C730.506 340.612 730.478 340.751 730.424 340.882C730.37 341.012 730.29 341.13 730.191 341.229C730.091 341.329 729.973 341.408 729.842 341.462C729.712 341.516 729.573 341.543 729.432 341.543C729.147 341.543 728.874 341.429 728.673 341.228C728.472 341.027 728.359 340.754 728.36 340.469C728.36 340.184 728.473 339.912 728.675 339.711C728.876 339.51 729.149 339.397 729.434 339.397ZM586.852 388.797C586.993 388.797 587.132 388.825 587.262 388.879C587.392 388.933 587.511 389.012 587.61 389.112C587.71 389.212 587.789 389.33 587.842 389.46C587.896 389.591 587.924 389.73 587.924 389.871C587.924 390.012 587.896 390.151 587.842 390.282C587.788 390.412 587.708 390.53 587.609 390.629C587.509 390.729 587.391 390.808 587.26 390.862C587.13 390.916 586.991 390.943 586.85 390.943C586.565 390.943 586.292 390.829 586.091 390.628C585.89 390.427 585.777 390.154 585.778 389.869C585.778 389.584 585.891 389.312 586.093 389.111C586.294 388.91 586.567 388.797 586.852 388.797ZM87.8137 401.686C88.2406 401.687 88.6497 401.857 88.9512 402.159C89.2528 402.461 89.422 402.87 89.4217 403.297C89.4217 404.187 88.7017 404.908 87.8137 404.908C87.3871 404.907 86.9781 404.738 86.6766 404.436C86.3751 404.134 86.2057 403.725 86.2057 403.298C86.2057 402.408 86.9257 401.686 87.8137 401.686ZM104.967 273.889C105.393 273.89 105.802 274.059 106.104 274.361C106.405 274.663 106.575 275.072 106.575 275.499C106.575 276.389 105.855 277.111 104.967 277.111C104.54 277.11 104.131 276.94 103.829 276.638C103.528 276.336 103.358 275.927 103.359 275.5C103.359 274.61 104.079 273.889 104.967 273.889ZM77.6297 326.511C77.7706 326.511 77.9101 326.539 78.0403 326.593C78.1704 326.647 78.2886 326.726 78.3882 326.826C78.4877 326.926 78.5666 327.044 78.6204 327.174C78.6742 327.305 78.7019 327.444 78.7017 327.585C78.7016 327.726 78.6737 327.865 78.6197 327.996C78.5656 328.126 78.4865 328.244 78.3868 328.343C78.287 328.443 78.1687 328.522 78.0384 328.576C77.9082 328.63 77.7686 328.657 77.6277 328.657C77.3432 328.657 77.0704 328.543 76.8693 328.342C76.6683 328.141 76.5555 327.868 76.5557 327.583C76.556 327.298 76.6693 327.026 76.8707 326.825C77.0721 326.624 77.3452 326.511 77.6297 326.511ZM155.89 372.691C156.033 372.687 156.176 372.712 156.31 372.764C156.444 372.816 156.566 372.894 156.669 372.994C156.772 373.095 156.854 373.214 156.91 373.347C156.965 373.479 156.994 373.621 156.994 373.765C156.994 373.909 156.965 374.051 156.909 374.183C156.852 374.315 156.77 374.435 156.667 374.535C156.564 374.635 156.441 374.713 156.307 374.765C156.173 374.816 156.03 374.841 155.887 374.836C155.602 374.836 155.329 374.722 155.128 374.521C154.927 374.32 154.814 374.047 154.815 373.762C154.815 373.477 154.928 373.205 155.13 373.004C155.331 372.803 155.604 372.69 155.889 372.69L155.89 372.691ZM206.275 425.313C206.559 425.313 206.832 425.426 207.033 425.628C207.234 425.829 207.347 426.102 207.347 426.387C207.347 426.671 207.234 426.944 207.033 427.145C206.831 427.346 206.558 427.459 206.274 427.459C206.133 427.459 205.993 427.431 205.863 427.377C205.733 427.323 205.615 427.244 205.515 427.144C205.416 427.045 205.337 426.926 205.283 426.796C205.229 426.666 205.201 426.526 205.201 426.385C205.201 426.245 205.229 426.105 205.283 425.975C205.337 425.845 205.416 425.727 205.516 425.627C205.616 425.527 205.734 425.448 205.864 425.395C205.994 425.341 206.134 425.313 206.275 425.313ZM222.356 265.298C222.497 265.298 222.636 265.326 222.766 265.38C222.896 265.434 223.015 265.513 223.114 265.613C223.214 265.713 223.293 265.831 223.346 265.961C223.4 266.092 223.428 266.231 223.428 266.372C223.428 266.513 223.4 266.652 223.346 266.783C223.292 266.913 223.212 267.031 223.113 267.13C223.013 267.23 222.895 267.309 222.764 267.363C222.634 267.417 222.495 267.444 222.354 267.444C222.069 267.444 221.796 267.33 221.595 267.129C221.394 266.928 221.281 266.655 221.282 266.37C221.282 266.085 221.395 265.813 221.597 265.612C221.798 265.411 222.071 265.298 222.356 265.298Z" fill="#50E3C2"/>
</g>
<path fill-rule="evenodd" clip-rule="evenodd" d="M41.8287 156.788C41.5469 156.788 41.2679 156.732 41.0077 156.624C40.7474 156.516 40.511 156.357 40.3119 156.158C40.1128 155.959 39.9549 155.722 39.8473 155.461C39.7397 155.201 39.6845 154.922 39.6847 154.64C39.6847 153.454 40.6447 152.492 41.8287 152.492C43.0127 152.492 43.9717 153.454 43.9717 154.64C43.9717 155.826 43.0117 156.788 41.8287 156.788ZM161.861 121.349C161.579 121.349 161.3 121.293 161.04 121.185C160.779 121.077 160.543 120.918 160.344 120.719C160.145 120.52 159.987 120.283 159.879 120.022C159.772 119.762 159.716 119.483 159.717 119.201C159.717 118.015 160.677 117.054 161.861 117.054C163.044 117.054 164.004 118.015 164.004 119.201C164.004 120.388 163.044 121.349 161.861 121.349ZM38.4107 31.137C37.9841 31.1362 37.5752 30.9661 37.2739 30.664C36.9726 30.362 36.8035 29.9527 36.8037 29.526C36.8037 28.636 37.5237 27.916 38.4117 27.916C38.8382 27.9168 39.247 28.0868 39.5482 28.3886C39.8495 28.6905 40.0187 29.0995 40.0187 29.526C40.0187 30.416 39.2987 31.136 38.4117 31.136L38.4107 31.137ZM1.10474 107.388C0.961136 107.392 0.818144 107.368 0.684241 107.316C0.550338 107.264 0.428251 107.185 0.325221 107.085C0.22219 106.985 0.140314 106.865 0.0844491 106.733C0.0285838 106.6 -0.000133486 106.458 4.66463e-07 106.314C0.000134419 106.171 0.0291168 106.029 0.0852289 105.896C0.141341 105.764 0.22344 105.644 0.326657 105.545C0.429874 105.445 0.552107 105.366 0.686107 105.315C0.820107 105.263 0.963145 105.238 1.10674 105.243C1.38551 105.252 1.64991 105.369 1.84391 105.569C2.03791 105.77 2.14626 106.038 2.146 106.316C2.14574 106.595 2.03689 106.863 1.84252 107.063C1.64814 107.263 1.38352 107.38 1.10474 107.388ZM176.865 47.25C176.721 47.2542 176.578 47.2295 176.444 47.1774C176.31 47.1253 176.188 47.0468 176.085 46.9466C175.982 46.8465 175.901 46.7266 175.845 46.5942C175.789 46.4619 175.76 46.3196 175.761 46.176C175.761 46.0323 175.79 45.8901 175.846 45.7579C175.902 45.6257 175.984 45.5061 176.088 45.4062C176.191 45.3063 176.313 45.2282 176.447 45.1765C176.581 45.1247 176.724 45.1004 176.868 45.105C177.147 45.1138 177.411 45.2307 177.605 45.4311C177.799 45.6315 177.907 45.8996 177.907 46.1785C177.907 46.4574 177.798 46.7252 177.604 46.9253C177.409 47.1253 177.145 47.2417 176.866 47.25H176.865ZM179.009 196.522C178.868 196.522 178.728 196.494 178.598 196.44C178.468 196.386 178.35 196.307 178.25 196.207C178.151 196.107 178.072 195.989 178.018 195.859C177.964 195.728 177.937 195.589 177.937 195.448C177.937 195.307 177.965 195.168 178.019 195.037C178.073 194.907 178.152 194.789 178.252 194.69C178.351 194.59 178.47 194.511 178.6 194.457C178.73 194.404 178.87 194.376 179.011 194.376C179.295 194.376 179.568 194.49 179.769 194.691C179.97 194.892 180.083 195.165 180.083 195.45C180.082 195.735 179.969 196.007 179.768 196.208C179.566 196.409 179.293 196.522 179.009 196.522ZM793.1 32.216C792.818 32.2157 792.539 32.16 792.279 32.0519C792.018 31.9438 791.782 31.7855 791.583 31.586C791.384 31.3866 791.226 31.1499 791.118 30.8894C791.011 30.6289 790.956 30.3498 790.956 30.068C790.956 28.882 791.916 27.92 793.1 27.92C794.284 27.92 795.243 28.882 795.243 30.068C795.243 31.254 794.283 32.216 793.1 32.216ZM772.737 189.005C772.168 189.004 771.622 188.777 771.221 188.375C770.819 187.972 770.593 187.426 770.594 186.857C770.594 185.671 771.554 184.709 772.737 184.709C773.921 184.709 774.881 185.671 774.881 186.857C774.881 188.043 773.921 189.005 772.737 189.005ZM805.424 124.571C804.997 124.57 804.588 124.4 804.287 124.098C803.986 123.796 803.816 123.387 803.817 122.96C803.817 122.07 804.537 121.35 805.424 121.35C805.85 121.351 806.259 121.52 806.561 121.822C806.862 122.124 807.032 122.533 807.032 122.96C807.032 123.85 806.312 124.57 805.424 124.57V124.571ZM709.506 66.581C709.221 66.5807 708.948 66.4674 708.747 66.266C708.546 66.0646 708.433 65.7916 708.434 65.507C708.434 65.2224 708.547 64.9496 708.749 64.7486C708.95 64.5475 709.223 64.4347 709.508 64.435C709.786 64.4438 710.051 64.5607 710.245 64.7611C710.439 64.9615 710.547 65.2296 710.547 65.5085C710.547 65.7874 710.438 66.0552 710.244 66.2552C710.049 66.4553 709.785 66.5717 709.506 66.58V66.581ZM646.275 2.146C645.99 2.14574 645.717 2.03243 645.516 1.83102C645.315 1.6296 645.203 1.35658 645.203 1.072C645.203 0.787423 645.316 0.514607 645.518 0.313568C645.719 0.112529 645.992 -0.00026475 646.277 4.66655e-07C646.561 0.000265683 646.834 0.113568 647.035 0.314982C647.236 0.516396 647.349 0.789423 647.349 1.074C647.349 1.35858 647.235 1.63139 647.034 1.83243C646.832 2.03347 646.559 2.14627 646.275 2.146ZM697.809 422.089C698.236 422.09 698.645 422.26 698.946 422.562C699.248 422.864 699.417 423.273 699.417 423.7C699.417 424.59 698.697 425.31 697.809 425.31C697.382 425.309 696.973 425.14 696.672 424.838C696.37 424.536 696.201 424.127 696.201 423.7C696.201 422.81 696.921 422.09 697.809 422.09V422.089ZM696.737 300.735C697.164 300.736 697.573 300.906 697.874 301.208C698.176 301.51 698.345 301.919 698.345 302.346C698.345 303.236 697.625 303.957 696.737 303.957C696.31 303.956 695.901 303.787 695.6 303.485C695.298 303.183 695.129 302.774 695.129 302.347C695.129 301.457 695.849 300.735 696.737 300.735ZM599.18 329.731C599.391 329.731 599.6 329.773 599.796 329.854C599.991 329.935 600.168 330.054 600.318 330.203C600.467 330.353 600.586 330.53 600.667 330.726C600.747 330.921 600.789 331.131 600.789 331.342C600.768 331.755 600.59 332.144 600.29 332.428C599.991 332.713 599.594 332.872 599.181 332.872C598.768 332.872 598.37 332.713 598.071 332.428C597.772 332.144 597.593 331.755 597.573 331.342C597.573 330.452 598.293 329.732 599.18 329.732V329.731ZM726.218 400.611C726.361 400.607 726.504 400.631 726.638 400.683C726.772 400.736 726.894 400.814 726.997 400.914C727.1 401.014 727.182 401.134 727.238 401.266C727.294 401.399 727.323 401.541 727.322 401.685C727.322 401.828 727.293 401.97 727.237 402.103C727.181 402.235 727.099 402.355 726.996 402.454C726.893 402.554 726.77 402.633 726.636 402.684C726.502 402.736 726.359 402.761 726.216 402.756C725.937 402.747 725.673 402.63 725.479 402.43C725.285 402.229 725.176 401.961 725.176 401.683C725.177 401.404 725.286 401.136 725.48 400.936C725.674 400.736 725.939 400.619 726.218 400.611ZM729.434 339.397C729.575 339.397 729.714 339.425 729.844 339.479C729.974 339.533 730.093 339.612 730.192 339.712C730.292 339.812 730.371 339.93 730.424 340.06C730.478 340.191 730.506 340.33 730.506 340.471C730.506 340.612 730.478 340.751 730.424 340.882C730.37 341.012 730.29 341.13 730.191 341.229C730.091 341.329 729.973 341.408 729.842 341.462C729.712 341.516 729.573 341.543 729.432 341.543C729.147 341.543 728.874 341.429 728.673 341.228C728.472 341.027 728.359 340.754 728.36 340.469C728.36 340.184 728.473 339.912 728.675 339.711C728.876 339.51 729.149 339.397 729.434 339.397ZM586.852 388.797C586.993 388.797 587.132 388.825 587.262 388.879C587.392 388.933 587.511 389.012 587.61 389.112C587.71 389.212 587.789 389.33 587.842 389.46C587.896 389.591 587.924 389.73 587.924 389.871C587.924 390.012 587.896 390.151 587.842 390.282C587.788 390.412 587.708 390.53 587.609 390.629C587.509 390.729 587.391 390.808 587.26 390.862C587.13 390.916 586.991 390.943 586.85 390.943C586.565 390.943 586.292 390.829 586.091 390.628C585.89 390.427 585.777 390.154 585.778 389.869C585.778 389.584 585.891 389.312 586.093 389.111C586.294 388.91 586.567 388.797 586.852 388.797ZM87.8137 401.686C88.2406 401.687 88.6497 401.857 88.9512 402.159C89.2528 402.461 89.422 402.87 89.4217 403.297C89.4217 404.187 88.7017 404.908 87.8137 404.908C87.3871 404.907 86.9781 404.738 86.6766 404.436C86.3751 404.134 86.2057 403.725 86.2057 403.298C86.2057 402.408 86.9257 401.686 87.8137 401.686ZM104.967 273.889C105.393 273.89 105.802 274.059 106.104 274.361C106.405 274.663 106.575 275.072 106.575 275.499C106.575 276.389 105.855 277.111 104.967 277.111C104.54 277.11 104.131 276.94 103.829 276.638C103.528 276.336 103.358 275.927 103.359 275.5C103.359 274.61 104.079 273.889 104.967 273.889ZM77.6297 326.511C77.7706 326.511 77.9101 326.539 78.0403 326.593C78.1704 326.647 78.2886 326.726 78.3882 326.826C78.4877 326.926 78.5666 327.044 78.6204 327.174C78.6742 327.305 78.7019 327.444 78.7017 327.585C78.7016 327.726 78.6737 327.865 78.6197 327.996C78.5656 328.126 78.4865 328.244 78.3868 328.343C78.287 328.443 78.1687 328.522 78.0384 328.576C77.9082 328.63 77.7686 328.657 77.6277 328.657C77.3432 328.657 77.0704 328.543 76.8693 328.342C76.6683 328.141 76.5555 327.868 76.5557 327.583C76.556 327.298 76.6693 327.026 76.8707 326.825C77.0721 326.624 77.3452 326.511 77.6297 326.511ZM155.89 372.691C156.033 372.687 156.176 372.712 156.31 372.764C156.444 372.816 156.566 372.894 156.669 372.994C156.772 373.095 156.854 373.214 156.91 373.347C156.965 373.479 156.994 373.621 156.994 373.765C156.994 373.909 156.965 374.051 156.909 374.183C156.852 374.315 156.77 374.435 156.667 374.535C156.564 374.635 156.441 374.713 156.307 374.765C156.173 374.816 156.03 374.841 155.887 374.836C155.602 374.836 155.329 374.722 155.128 374.521C154.927 374.32 154.814 374.047 154.815 373.762C154.815 373.477 154.928 373.205 155.13 373.004C155.331 372.803 155.604 372.69 155.889 372.69L155.89 372.691ZM206.275 425.313C206.559 425.313 206.832 425.426 207.033 425.628C207.234 425.829 207.347 426.102 207.347 426.387C207.347 426.671 207.234 426.944 207.033 427.145C206.831 427.346 206.558 427.459 206.274 427.459C206.133 427.459 205.993 427.431 205.863 427.377C205.733 427.323 205.615 427.244 205.515 427.144C205.416 427.045 205.337 426.926 205.283 426.796C205.229 426.666 205.201 426.526 205.201 426.385C205.201 426.245 205.229 426.105 205.283 425.975C205.337 425.845 205.416 425.727 205.516 425.627C205.616 425.527 205.734 425.448 205.864 425.395C205.994 425.341 206.134 425.313 206.275 425.313ZM222.356 265.298C222.497 265.298 222.636 265.326 222.766 265.38C222.896 265.434 223.015 265.513 223.114 265.613C223.214 265.713 223.293 265.831 223.346 265.961C223.4 266.092 223.428 266.231 223.428 266.372C223.428 266.513 223.4 266.652 223.346 266.783C223.292 266.913 223.212 267.031 223.113 267.13C223.013 267.23 222.895 267.309 222.764 267.363C222.634 267.417 222.495 267.444 222.354 267.444C222.069 267.444 221.796 267.33 221.595 267.129C221.394 266.928 221.281 266.655 221.282 266.37C221.282 266.085 221.395 265.813 221.597 265.612C221.798 265.411 222.071 265.298 222.356 265.298Z" fill="#50E3C2"/>
<path opacity="0.56" d="M245.532 478.186C260.167 478.186 272.032 466.322 272.032 451.686C272.032 437.05 260.167 425.186 245.532 425.186C230.896 425.186 219.032 437.05 219.032 451.686C219.032 466.322 230.896 478.186 245.532 478.186Z" fill="url(#paint0_linear)"/>
<path opacity="0.3" d="M107.451 101.17C124.251 101.17 137.87 87.6289 137.87 70.9251C137.87 54.2212 124.251 40.6801 107.451 40.6801C90.6508 40.6801 77.0317 54.2212 77.0317 70.9251C77.0317 87.6289 90.6508 101.17 107.451 101.17Z" fill="url(#paint1_linear)"/>
<path d="M118.311 86.9204C146.085 71.5246 165.479 53.411 161.627 46.4625C157.776 39.5139 132.137 46.3618 104.363 61.7576C76.588 77.1534 57.1945 95.267 61.0461 102.216C64.8977 109.164 90.536 102.316 118.311 86.9204Z" stroke="url(#paint2_linear)" stroke-width="2"/>
<path opacity="0.76" d="M538.532 426.186C544.883 426.186 550.032 421.037 550.032 414.686C550.032 408.335 544.883 403.186 538.532 403.186C532.18 403.186 527.032 408.335 527.032 414.686C527.032 421.037 532.18 426.186 538.532 426.186Z" fill="url(#paint3_linear)"/>
<path opacity="0.3" d="M754.032 120.186C754.032 110.797 746.644 103.186 737.532 103.186C728.419 103.186 721.032 110.797 721.032 120.186C721.032 129.575 728.419 137.186 737.532 137.186C746.644 137.186 754.032 129.575 754.032 120.186Z" fill="url(#paint4_linear)"/>
<path d="M746.029 114.307C737.461 98.8502 727.382 88.0561 723.518 90.1981C719.654 92.3401 723.467 106.607 732.035 122.064C740.603 137.522 750.681 148.316 754.546 146.174C758.41 144.032 754.597 129.765 746.029 114.307Z" stroke="url(#paint5_linear)"/>
</g>
<defs>
<filter id="filter0_f" x="-4" y="-4" width="815.032" height="435.459" filterUnits="userSpaceOnUse" color-interpolation-filters="sRGB">
<feFlood flood-opacity="0" result="BackgroundImageFix"/>
<feBlend mode="normal" in="SourceGraphic" in2="BackgroundImageFix" result="shape"/>
<feGaussianBlur stdDeviation="2" result="effect1_foregroundBlur"/>
</filter>
<linearGradient id="paint0_linear" x1="272.032" y1="405.96" x2="233.191" y2="473.903" gradientUnits="userSpaceOnUse">
<stop stop-color="#24EDF2"/>
<stop offset="1" stop-color="#182A64" stop-opacity="0"/>
</linearGradient>
<linearGradient id="paint1_linear" x1="124.446" y1="94.4611" x2="102.562" y2="55.1324" gradientUnits="userSpaceOnUse">
<stop stop-color="#24EDF2"/>
<stop offset="1" stop-color="#0B2840" stop-opacity="0.247"/>
</linearGradient>
<linearGradient id="paint2_linear" x1="123.387" y1="91.1271" x2="108.004" y2="63.3768" gradientUnits="userSpaceOnUse">
<stop stop-color="#268F92"/>
<stop offset="1" stop-color="#0E205D" stop-opacity="0"/>
</linearGradient>
<linearGradient id="paint3_linear" x1="521.909" y1="396.148" x2="545.557" y2="421.413" gradientUnits="userSpaceOnUse">
<stop stop-color="#24EDF2"/>
<stop offset="1" stop-color="#182A64" stop-opacity="0"/>
</linearGradient>
<linearGradient id="paint4_linear" x1="721.032" y1="131.539" x2="747.119" y2="120.748" gradientUnits="userSpaceOnUse">
<stop stop-color="#24EDF2"/>
<stop offset="1" stop-color="#182A64"/>
</linearGradient>
<linearGradient id="paint5_linear" x1="721.446" y1="132.238" x2="747.794" y2="117.472" gradientUnits="userSpaceOnUse">
<stop stop-color="#24EDF2"/>
<stop offset="1" stop-color="#182A64" stop-opacity="0"/>
</linearGradient>
<clipPath id="clip0">
<rect width="815" height="483" fill="white"/>
</clipPath>
</defs>
</svg>
