<svg width="308" height="277" viewBox="0 0 308 277" fill="none" xmlns="http://www.w3.org/2000/svg">
<g clip-path="url(#clip0)">
<path d="M108.207 177.74C105.113 186.009 105.552 195.531 113.506 211.64C95.068 224.292 102.208 234.687 110.185 247.173C74.2899 267.078 70.7318 267.137 70.7318 267.137C48.7865 214.926 83.0811 179.213 108.207 177.74Z" fill="white"/>
<path d="M98.1473 180.65C99.0234 184.318 97.0668 182.972 97.8586 186.514C77.0015 195.918 67.0359 228.297 72.5043 237.68C62.4479 246.407 70.3564 262.894 70.3564 262.894C50.2715 225.915 75.1654 182.595 98.1473 180.65Z" fill="#D8D8D8"/>
<path d="M108.207 177.74C105.113 186.009 105.552 195.531 113.506 211.64C95.068 224.292 102.208 234.687 110.185 247.173C74.2899 267.078 70.7318 267.137 70.7318 267.137C48.7865 214.926 83.0811 179.213 108.207 177.74Z" stroke="black" stroke-width="6.534" stroke-linejoin="round"/>
<path d="M184.877 177.74C187.971 186.009 187.532 195.531 179.578 211.64C198.016 224.292 190.876 234.687 182.899 247.173C218.794 267.078 222.352 267.137 222.352 267.137C244.297 214.926 210.003 179.213 184.877 177.74Z" fill="white"/>
<path d="M184.877 177.74C187.971 186.009 187.532 195.531 179.578 211.64C198.016 224.292 190.876 234.687 182.899 247.173C218.794 267.078 222.352 267.137 222.352 267.137C244.297 214.926 210.003 179.213 184.877 177.74Z" stroke="black" stroke-width="6.534" stroke-linejoin="round"/>
<path d="M141.384 60.1279H151.268C167.579 60.1279 179.293 62.9672 189.266 68.3014C199.234 73.6296 207.063 81.4585 212.391 91.4258C217.725 101.399 220.564 113.113 220.564 129.424V135.768C220.564 152.079 217.725 163.793 212.391 173.766C207.063 183.733 199.234 191.562 189.266 196.89C179.293 202.225 167.579 205.064 151.268 205.064H141.954C125.643 205.064 113.929 202.225 103.956 196.89C93.9887 191.562 86.1598 183.733 80.8316 173.766C75.4975 163.793 72.6582 152.079 72.6582 135.768V129.424C72.6582 113.113 75.4975 101.399 80.8316 91.4258C86.1598 81.4585 93.9887 73.6296 103.956 68.3014C113.811 63.0326 125.37 60.1933 141.384 60.1279Z" stroke="black" stroke-width="13.068"/>
<path d="M141.384 60.1279H151.268C167.579 60.1279 179.293 62.9672 189.266 68.3014C199.234 73.6296 207.063 81.4585 212.391 91.4258C217.725 101.399 220.564 113.113 220.564 129.424V135.768C220.564 152.079 217.725 163.793 212.391 173.766C207.063 183.733 199.234 191.562 189.266 196.89C179.293 202.225 167.579 205.064 151.268 205.064H141.954C125.643 205.064 113.929 202.225 103.956 196.89C93.9887 191.562 86.1598 183.733 80.8316 173.766C75.4975 163.793 72.6582 152.079 72.6582 135.768V129.424C72.6582 113.113 75.4975 101.399 80.8316 91.4258C86.1598 81.4585 93.9887 73.6296 103.956 68.3014C113.811 63.0326 125.37 60.1933 141.384 60.1279Z" fill="white"/>
<path d="M118.498 202.484C113.142 201.13 108.378 199.256 103.956 196.891C93.9887 191.563 86.1598 183.734 80.8316 173.766C75.4975 163.793 72.6582 152.079 72.6582 135.768V129.424C72.6582 113.113 75.4975 101.399 80.8316 91.4261C86.1598 81.4587 93.9887 73.6298 103.956 68.3016C108.295 65.9821 112.963 64.1335 118.197 62.7852C70.4669 92.8594 79.3769 187.899 118.498 202.484Z" fill="#D8D8D8"/>
<path d="M183.736 77.3535C190.104 80.7928 195.492 85.3844 199.774 91.0155L183.736 77.3535Z" fill="white"/>
<path d="M183.736 77.3535C190.104 80.7928 195.492 85.3844 199.774 91.0155" stroke="black" stroke-width="6.534" stroke-linecap="round"/>
<path d="M74.287 95.5595C77.5777 96.9554 80.1913 98.9216 82.0565 101.286C83.9157 103.65 85.0324 106.412 85.3354 109.412C85.6383 112.405 85.1215 115.637 83.7256 118.928L81.7238 123.638C80.3279 126.935 78.3618 129.542 75.9977 131.407C73.6336 133.273 70.8715 134.389 67.8718 134.692C64.878 134.995 61.6526 134.478 58.3559 133.083C55.0651 131.681 52.4515 129.72 50.5923 127.356C48.7271 124.992 47.6104 122.224 47.3075 119.23C47.0045 116.237 47.5213 113.005 48.9172 109.715L50.919 104.998C52.3149 101.707 54.281 99.0938 56.6452 97.2346C59.0093 95.3695 61.7714 94.2527 64.7711 93.9498C67.7648 93.6469 70.9903 94.1636 74.287 95.5595Z" fill="#D8D8D8"/>
<path d="M74.287 95.5595C77.5777 96.9554 80.1913 98.9216 82.0565 101.286C83.9157 103.65 85.0324 106.412 85.3354 109.412C85.6383 112.405 85.1215 115.637 83.7256 118.928L81.7238 123.638C80.3279 126.935 78.3618 129.542 75.9977 131.407C73.6336 133.273 70.8715 134.389 67.8718 134.692C64.878 134.995 61.6526 134.478 58.3559 133.083C55.0651 131.681 52.4515 129.72 50.5923 127.356C48.7271 124.992 47.6104 122.224 47.3075 119.23C47.0045 116.237 47.5213 113.005 48.9172 109.715L50.919 104.998C52.3149 101.707 54.281 99.0938 56.6452 97.2346C59.0093 95.3695 61.7714 94.2527 64.7711 93.9498C67.7648 93.6469 70.9903 94.1636 74.287 95.5595Z" stroke="black" stroke-width="6.534"/>
<path d="M66.2202 105.618L59.9212 120.458" stroke="white" stroke-width="6.534" stroke-linecap="round" stroke-linejoin="round"/>
<path d="M216.174 95.5595C212.884 96.9554 210.27 98.9216 208.411 101.286C206.546 103.65 205.429 106.412 205.126 109.412C204.823 112.405 205.34 115.637 206.736 118.928L208.738 123.638C210.133 126.935 212.1 129.542 214.464 131.407C216.828 133.273 219.59 134.389 222.59 134.692C225.583 134.995 228.809 134.478 232.106 133.083C235.396 131.681 238.01 129.72 239.875 127.356C241.734 124.992 242.851 122.224 243.154 119.23C243.457 116.237 242.94 113.005 241.544 109.715L239.542 104.998C238.147 101.707 236.18 99.0938 233.816 97.2346C231.452 95.3695 228.69 94.2527 225.69 93.9498C222.697 93.6469 219.471 94.1636 216.174 95.5595Z" fill="white"/>
<path d="M216.174 95.5595C212.884 96.9554 210.27 98.9216 208.411 101.286C206.546 103.65 205.429 106.412 205.126 109.412C204.823 112.405 205.34 115.637 206.736 118.928L208.738 123.638C210.133 126.935 212.1 129.542 214.464 131.407C216.828 133.273 219.59 134.389 222.59 134.692C225.583 134.995 228.809 134.478 232.106 133.083C235.396 131.681 238.01 129.72 239.875 127.356C241.734 124.992 242.851 122.224 243.154 119.23C243.457 116.237 242.94 113.005 241.544 109.715L239.542 104.998C238.147 101.707 236.18 99.0938 233.816 97.2346C231.452 95.3695 228.69 94.2527 225.69 93.9498C222.697 93.6469 219.471 94.1636 216.174 95.5595Z" stroke="black" stroke-width="6.534"/>
<path d="M223.579 104.556L229.878 119.395" stroke="#D8D8D8" stroke-width="6.534" stroke-linecap="round" stroke-linejoin="round"/>
<path d="M138.093 97.5498H155.723C164.657 97.5498 171.577 99.2011 177.386 102.308C183.19 105.414 187.752 109.976 190.858 115.78C193.965 121.589 195.616 128.509 195.616 137.443V139.629C195.616 148.563 193.965 155.483 190.858 161.292C187.752 167.095 183.19 171.657 177.386 174.764C171.577 177.87 164.657 179.522 155.723 179.522H138.093C129.159 179.522 122.239 177.87 116.43 174.764C110.627 171.657 106.065 167.095 102.958 161.292C99.8515 155.483 98.2002 148.563 98.2002 139.629V137.443C98.2002 128.509 99.8515 121.589 102.958 115.78C106.065 109.976 110.627 105.414 116.43 102.308C122.239 99.2011 129.159 97.5498 138.093 97.5498Z" fill="white"/>
<path d="M138.093 97.5498H155.723C164.657 97.5498 171.577 99.2011 177.386 102.308C183.19 105.414 187.752 109.976 190.858 115.78C193.965 121.589 195.616 128.509 195.616 137.443V139.629C195.616 148.563 193.965 155.483 190.858 161.292C187.752 167.095 183.19 171.657 177.386 174.764C171.577 177.87 164.657 179.522 155.723 179.522H138.093C129.159 179.522 122.239 177.87 116.43 174.764C110.627 171.657 106.065 167.095 102.958 161.292C99.8515 155.483 98.2002 148.563 98.2002 139.629V137.443C98.2002 128.509 99.8515 121.589 102.958 115.78C106.065 109.976 110.627 105.414 116.43 102.308C122.239 99.2011 129.159 97.5498 138.093 97.5498Z" stroke="black" stroke-width="6.534"/>
<path d="M117.208 146.851C122.786 146.851 127.306 142.331 127.306 136.753C127.306 131.176 122.786 126.655 117.208 126.655C111.631 126.655 107.11 131.176 107.11 136.753C107.11 142.331 111.631 146.851 117.208 146.851Z" fill="black"/>
<path d="M114.238 138.536C115.878 138.536 117.208 137.205 117.208 135.566C117.208 133.926 115.878 132.596 114.238 132.596C112.599 132.596 111.268 133.926 111.268 135.566C111.268 137.205 112.599 138.536 114.238 138.536Z" fill="white"/>
<path d="M110.674 123.388L121.96 119.527" stroke="black" stroke-width="5.94" stroke-linecap="round"/>
<path d="M176.014 146.851C170.437 146.851 165.916 142.331 165.916 136.753C165.916 131.176 170.437 126.655 176.014 126.655C181.592 126.655 186.112 131.176 186.112 136.753C186.112 142.331 181.592 146.851 176.014 146.851Z" fill="black"/>
<path d="M173.638 138.536C171.999 138.536 170.668 137.205 170.668 135.566C170.668 133.926 171.999 132.596 173.638 132.596C175.278 132.596 176.608 133.926 176.608 135.566C176.608 137.205 175.278 138.536 173.638 138.536Z" fill="white"/>
<path d="M182.548 123.388L171.262 119.527" stroke="black" stroke-width="5.94" stroke-linecap="round"/>
<path d="M136.81 133.636C136.81 133.636 136.766 141.126 146.908 141.358C156.078 141.567 157.006 133.636 157.006 133.636L156.97 133.487C157.042 137.26 152.587 141.456 146.946 141.358C141.369 141.261 137.143 138.745 136.774 133.487L136.81 133.636Z" stroke="black" stroke-width="5.346" stroke-linecap="round" stroke-linejoin="round"/>
<path d="M136.81 133.636C136.81 133.636 136.766 141.126 146.908 141.358C156.078 141.567 157.006 133.636 157.006 133.636L156.97 133.487C157.042 137.26 152.587 141.456 146.946 141.358C141.369 141.261 137.143 138.745 136.774 133.487L136.81 133.636Z" fill="black"/>
<path d="M146.544 288.838C180.245 289.224 207.876 261.94 208.267 227.899C208.657 193.858 181.659 165.947 147.958 165.561C114.257 165.175 86.6254 192.459 86.2351 226.5C85.8447 260.541 112.843 288.452 146.544 288.838Z" fill="#07A6B3"/>
<path d="M146.544 288.838C180.245 289.224 207.876 261.94 208.267 227.899C208.657 193.858 181.659 165.947 147.958 165.561C114.257 165.175 86.6254 192.459 86.2351 226.5C85.8447 260.541 112.843 288.452 146.544 288.838Z" stroke="black" stroke-width="6.53401"/>
<path d="M147.502 288.521C181.295 288.521 208.684 260.996 208.684 227.042C208.684 193.089 181.295 165.563 147.502 165.563C113.709 165.563 86.3201 193.089 86.3201 227.042C86.3201 260.996 113.709 288.521 147.502 288.521Z" fill="#07A6B3"/>
<path d="M147.502 288.521C181.295 288.521 208.684 260.996 208.684 227.042C208.684 193.089 181.295 165.563 147.502 165.563C113.709 165.563 86.3201 193.089 86.3201 227.042C86.3201 260.996 113.709 288.521 147.502 288.521Z" stroke="black" stroke-width="6.534"/>
<path d="M147.927 168.856C115.485 168.856 89.1895 195.198 89.1895 227.685C89.1895 260.173 115.491 286.514 147.927 286.514C180.369 286.514 206.665 260.173 206.665 227.685C206.665 195.198 180.374 168.856 147.927 168.856Z" fill="#07A6B3"/>
<path d="M104.4 225.6L112.2 233.4L120 225.6" stroke="white" stroke-width="6" stroke-linecap="round" stroke-linejoin="round"/>
<path d="M148.199 205.799L148.199 227.4L161.4 240.6" stroke="white" stroke-width="6" stroke-linecap="round" stroke-linejoin="round"/>
<path d="M112.2 227.4C112.2 219.072 115.088 211.001 120.372 204.562C125.655 198.124 133.008 193.717 141.177 192.092C149.345 190.467 157.825 191.725 165.17 195.651C172.516 199.577 178.272 205.929 181.46 213.624C184.647 221.319 185.068 229.881 182.65 237.851C180.232 245.821 175.126 252.706 168.2 257.333C161.275 261.961 152.96 264.043 144.671 263.227C136.383 262.411 128.633 258.746 122.744 252.856" stroke="white" stroke-width="6" stroke-linecap="round"/>
<path d="M70.7478 268.493L66.7264 256.381C63.6614 247.157 68.6569 237.201 77.8758 234.136L78.0837 234.071C87.4927 231.077 97.561 236.203 100.674 245.571L104.695 257.682C107.754 266.907 102.764 276.862 93.5396 279.927L93.3376 279.993C83.9287 282.987 73.8604 277.86 70.7478 268.493Z" fill="white"/>
<path d="M70.7478 268.493L66.7264 256.381C63.6614 247.157 68.6569 237.201 77.8758 234.136L78.0837 234.071C87.4927 231.077 97.561 236.203 100.674 245.571L104.695 257.682C107.754 266.907 102.764 276.862 93.5396 279.927L93.3376 279.993C83.9287 282.987 73.8604 277.86 70.7478 268.493Z" stroke="black" stroke-width="6.534"/>
<path d="M98.0118 247.307L82.3935 251.138L98.0118 247.307Z" fill="white"/>
<path d="M98.0118 247.307L82.3935 251.138" stroke="black" stroke-width="6.534" stroke-linecap="round"/>
<path d="M101.861 259.23L86.5842 264.094L101.861 259.23Z" fill="white"/>
<path d="M101.861 259.23L86.5842 264.094" stroke="black" stroke-width="6.534" stroke-linecap="round"/>
<path d="M222.339 268.492L226.36 256.38C229.419 247.156 224.429 237.2 215.205 234.135L215.003 234.07C205.594 231.076 195.525 236.202 192.413 245.57L188.391 257.681C185.326 266.906 190.322 276.861 199.541 279.927L199.749 279.992C209.158 282.986 219.226 277.859 222.339 268.492Z" fill="white"/>
<path d="M222.339 268.492L226.36 256.38C229.419 247.156 224.429 237.2 215.205 234.135L215.003 234.07C205.594 231.076 195.525 236.202 192.413 245.57L188.391 257.681C185.326 266.906 190.322 276.861 199.541 279.927L199.749 279.992C209.158 282.986 219.226 277.859 222.339 268.492Z" stroke="black" stroke-width="6.534"/>
<path d="M195.072 247.306L210.691 251.138L195.072 247.306Z" fill="white"/>
<path d="M195.072 247.306L210.691 251.138" stroke="black" stroke-width="6.534" stroke-linecap="round"/>
<path d="M191.223 259.23L206.5 264.094L191.223 259.23Z" fill="white"/>
<path d="M191.223 259.23L206.5 264.094" stroke="black" stroke-width="6.534" stroke-linecap="round"/>
</g>
<defs>
<clipPath id="clip0">
<rect width="307.2" height="307.2" fill="white"/>
</clipPath>
</defs>
</svg>
