<svg width="64" height="64" viewBox="0 0 64 64" fill="none" xmlns="http://www.w3.org/2000/svg">
<rect x="1" y="24" width="54" height="34" rx="5" stroke="#1D1D1F" stroke-width="2"/>
<path fill-rule="evenodd" clip-rule="evenodd" d="M11.9996 20H43.9996C45.4328 20 46.3873 20.0016 47.1208 20.0615C47.8308 20.1195 48.1558 20.2221 48.3616 20.327C48.9261 20.6146 49.385 21.0735 49.6727 21.638C49.7775 21.8439 49.8801 22.1688 49.9382 22.8789C49.9428 22.9361 49.9472 22.9946 49.9511 23.0546C50.7617 23.1021 51.4112 23.1906 51.9698 23.3561C51.921 22.1836 51.7926 21.3933 51.4547 20.73C50.9753 19.7892 50.2104 19.0243 49.2696 18.545C48.2 18 46.7999 18 43.9996 18H11.9996C9.19938 18 7.79924 18 6.72969 18.545C5.78888 19.0243 5.02397 19.7892 4.54461 20.73C4.20665 21.3933 4.07828 22.1837 4.02951 23.3563C4.58803 23.1908 5.23754 23.1021 6.04813 23.0547C6.05212 22.9947 6.05644 22.9361 6.06112 22.8789C6.11913 22.1688 6.22174 21.8439 6.32662 21.638C6.61424 21.0735 7.07318 20.6146 7.63767 20.327C7.84351 20.2221 8.16843 20.1195 8.87851 20.0615C9.61194 20.0016 10.5665 20 11.9996 20Z" fill="#1D1D1F"/>
<path fill-rule="evenodd" clip-rule="evenodd" d="M15.9998 15H38.9998C40.4329 15 41.3875 15.0016 42.1209 15.0615C42.831 15.1195 43.1559 15.2221 43.3617 15.327C43.9262 15.6146 44.3852 16.0735 44.6728 16.638C44.7777 16.8439 44.8803 17.1688 44.9383 17.8789C44.942 17.9238 44.9454 17.9697 44.9487 18.0163C45.7364 18.0341 46.3933 18.0709 46.9601 18.1478C46.9048 17.0886 46.7723 16.3532 46.4548 15.73C45.9754 14.7892 45.2105 14.0243 44.2697 13.545C43.2002 13 41.8 13 38.9998 13H15.9998C13.1995 13 11.7994 13 10.7298 13.545C9.789 14.0243 9.02409 14.7892 8.54473 15.73C8.20678 16.3933 8.0784 17.1837 8.02963 18.3563C8.58816 18.1907 9.23766 18.1021 10.0483 18.0547C10.0522 17.9947 10.0566 17.9361 10.0612 17.8789C10.1193 17.1688 10.2219 16.8439 10.3267 16.638C10.6144 16.0735 11.0733 15.6146 11.6378 15.327C11.8436 15.2221 12.1686 15.1195 12.8786 15.0615C13.6121 15.0016 14.5666 15 15.9998 15Z" fill="#1D1D1F"/>
</svg>
