<svg width="144" height="48" viewBox="0 0 144 48" fill="none" xmlns="http://www.w3.org/2000/svg">
<g clip-path="url(#clip0)">
<path d="M132.162 0.000156H11.4416C11.0016 0.000156 10.5668 0.000156 10.1279 0.002556C9.76056 0.004956 9.39611 0.011928 9.0252 0.017796C8.21942 0.0272782 7.41553 0.0981675 6.62052 0.229848C5.82663 0.364395 5.05761 0.618055 4.33946 0.982248C3.6222 1.34952 2.96681 1.82676 2.39708 2.39664C1.82436 2.96492 1.34696 3.62178 0.98322 4.34195C0.61848 5.06069 0.365569 5.83088 0.23322 6.62593C0.0996131 7.41998 0.0277181 8.22318 0.01818 9.02833C0.007044 9.39625 0.005868 9.7654 0 10.1334V37.8705C0.005868 38.2431 0.007044 38.604 0.01818 38.9768C0.027721 39.7819 0.0996161 40.585 0.23322 41.379C0.365203 42.1745 0.61813 42.9452 0.98322 43.6642C1.34679 44.382 1.82427 45.0362 2.39708 45.6014C2.96465 46.1738 3.62046 46.6513 4.33946 47.0158C5.0576 47.381 5.82654 47.6361 6.62052 47.7728C7.41566 47.9034 8.21947 47.9743 9.0252 47.9849C9.39611 47.9931 9.76056 47.9978 10.1279 47.9978C10.5668 48.0002 11.0016 48.0002 11.4416 48.0002H132.162C132.593 48.0002 133.031 48.0002 133.463 47.9978C133.828 47.9978 134.203 47.9931 134.569 47.9849C135.373 47.9749 136.175 47.9039 136.969 47.7728C137.765 47.6352 138.537 47.3801 139.259 47.0158C139.977 46.6511 140.632 46.1736 141.199 45.6014C141.771 45.034 142.249 44.3803 142.617 43.6642C142.98 42.9447 143.23 42.1741 143.36 41.379C143.494 40.5849 143.568 39.7819 143.583 38.9768C143.588 38.604 143.588 38.2431 143.588 37.8705C143.597 37.4345 143.597 37.001 143.597 36.5579V11.4435C143.597 11.0041 143.597 10.5681 143.588 10.1334C143.588 9.7654 143.588 9.39625 143.583 9.02828C143.568 8.22306 143.494 7.42004 143.36 6.62588C143.23 5.83129 142.979 5.06116 142.617 4.3419C141.876 2.89839 140.702 1.72339 139.259 0.98214C138.537 0.618837 137.765 0.365244 136.969 0.22974C136.175 0.0974793 135.373 0.0265653 134.569 0.017628C134.203 0.011772 133.828 0.00474 133.463 0.0024C133.031 0 132.593 0 132.162 0V0.000156Z" fill="white"/>
<path d="M29.9961 23.8678C30.0095 22.8263 30.2862 21.805 30.8003 20.8991C31.3145 19.9932 32.0494 19.2321 32.9368 18.6866C32.3731 17.8815 31.6294 17.2189 30.7648 16.7516C29.9003 16.2842 28.9386 16.0248 27.9563 15.9941C25.8608 15.7741 23.8293 17.248 22.7615 17.248C21.673 17.248 20.0289 16.0159 18.2585 16.0523C17.1134 16.0893 15.9974 16.4223 15.0192 17.0189C14.041 17.6154 13.234 18.4552 12.6769 19.4564C10.2636 23.6348 12.0637 29.7756 14.3755 33.1532C15.5322 34.807 16.8839 36.6545 18.6528 36.5889C20.3836 36.5171 21.0301 35.4852 23.1194 35.4852C25.1893 35.4852 25.7958 36.5889 27.6005 36.5473C29.4578 36.5171 30.628 34.8861 31.7441 33.2165C32.5752 32.0381 33.2147 30.7357 33.6389 29.3575C32.5599 28.9011 31.639 28.1372 30.9912 27.1609C30.3434 26.1847 29.9973 25.0394 29.9961 23.8678Z" fill="black"/>
<path d="M26.5874 13.7729C27.6001 12.5572 28.099 10.9946 27.9782 9.41699C26.4311 9.57949 25.0019 10.3189 23.9756 11.488C23.4737 12.0591 23.0894 12.7235 22.8445 13.4432C22.5996 14.163 22.499 14.9239 22.5483 15.6826C23.3222 15.6905 24.0878 15.5228 24.7874 15.192C25.487 14.8612 26.1025 14.376 26.5874 13.7729Z" fill="black"/>
<path d="M50.7623 32.5682H45.0822L43.7181 36.5959H41.3123L46.6923 21.6943H49.1919L54.572 36.5959H52.1251L50.7623 32.5682ZM45.6705 30.7096H50.1729L47.9533 24.1729H47.8912L45.6705 30.7096Z" fill="black"/>
<path d="M66.1912 31.1647C66.1912 34.5409 64.3841 36.71 61.6572 36.71C60.9664 36.7462 60.2794 36.587 59.6748 36.2509C59.0703 35.9147 58.5726 35.4151 58.2388 34.8092H58.1872V40.1905H55.9572V25.7319H58.1157V27.5389H58.1568C58.5059 26.936 59.012 26.4389 59.6211 26.1007C60.2303 25.7625 60.9197 25.5958 61.6161 25.6182C64.3736 25.6182 66.1912 27.7979 66.1912 31.1647ZM63.899 31.1647C63.899 28.9651 62.7623 27.519 61.0279 27.519C59.324 27.519 58.1779 28.9956 58.1779 31.1647C58.1779 33.3538 59.324 34.8198 61.0279 34.8198C62.7623 34.8198 63.8989 33.3842 63.8989 31.1647H63.899Z" fill="black"/>
<path d="M78.1495 31.1647C78.1495 34.5409 76.3419 36.71 73.6149 36.71C72.9242 36.7462 72.2372 36.587 71.6326 36.2509C71.0281 35.9147 70.5304 35.4151 70.1966 34.8092H70.145V40.1905H67.9149V25.7319H70.0735V27.5389H70.1145C70.4637 26.936 70.9697 26.4389 71.5789 26.1007C72.1881 25.7625 72.8775 25.5958 73.5739 25.6182C76.3314 25.6182 78.1495 27.7979 78.1495 31.1647ZM75.8568 31.1647C75.8568 28.9651 74.72 27.519 72.9857 27.519C71.2818 27.519 70.1357 28.9956 70.1357 31.1647C70.1357 33.3538 71.2818 34.8198 72.9857 34.8198C74.72 34.8198 75.8568 33.3842 75.8568 31.1647Z" fill="black"/>
<path d="M86.0515 32.4444C86.2168 33.9221 87.6523 34.8924 89.614 34.8924C91.4937 34.8924 92.8461 33.9221 92.8461 32.5897C92.8461 31.433 92.0305 30.7405 90.0992 30.2658L88.168 29.8006C85.4316 29.1397 84.1613 27.86 84.1613 25.7834C84.1613 23.2123 86.4019 21.4463 89.5824 21.4463C92.7324 21.4463 94.891 23.2123 94.9637 25.7834H92.7125C92.5777 24.2963 91.3484 23.3986 89.5519 23.3986C87.7554 23.3986 86.5261 24.3068 86.5261 25.6287C86.5261 26.6822 87.3113 27.3022 89.232 27.7767L90.8738 28.1798C93.9312 28.9029 95.2004 30.1311 95.2004 32.3107C95.2004 35.0986 92.9808 36.8447 89.4488 36.8447C86.1441 36.8447 83.9128 35.1396 83.7687 32.4443L86.0515 32.4444Z" fill="black"/>
<path d="M100.016 23.1611V25.7322H102.082V27.4982H100.016V33.4877C100.016 34.4182 100.429 34.8518 101.337 34.8518C101.583 34.8475 101.828 34.8303 102.071 34.8002V36.5556C101.663 36.6319 101.248 36.6665 100.832 36.6588C98.6328 36.6588 97.775 35.8326 97.775 33.7255V27.4982H96.1953V25.7322H97.775V23.1611H100.016Z" fill="black"/>
<path d="M103.277 31.165C103.277 27.7467 105.29 25.5986 108.43 25.5986C111.58 25.5986 113.583 27.7466 113.583 31.165C113.583 34.5928 111.59 36.7314 108.43 36.7314C105.27 36.7314 103.277 34.5928 103.277 31.165ZM111.311 31.165C111.311 28.8201 110.237 27.4361 108.43 27.4361C106.623 27.4361 105.548 28.8307 105.548 31.165C105.548 33.5193 106.623 34.8928 108.43 34.8928C110.237 34.8928 111.311 33.5193 111.311 31.165H111.311Z" fill="black"/>
<path d="M115.422 25.7318H117.549V27.581H117.601C117.745 27.0034 118.083 26.493 118.559 26.1356C119.035 25.7781 119.619 25.5954 120.214 25.6181C120.471 25.6172 120.727 25.6451 120.978 25.7013V27.7872C120.654 27.6881 120.315 27.6426 119.976 27.6525C119.652 27.6393 119.329 27.6965 119.029 27.8199C118.729 27.9434 118.46 28.1303 118.239 28.3677C118.018 28.6052 117.852 28.8876 117.75 29.1956C117.649 29.5036 117.616 29.8299 117.652 30.1521V36.5962H115.422L115.422 25.7318Z" fill="black"/>
<path d="M131.26 33.4057C130.96 35.3779 129.039 36.7314 126.582 36.7314C123.421 36.7314 121.46 34.6139 121.46 31.2166C121.46 27.8088 123.432 25.5986 126.488 25.5986C129.494 25.5986 131.384 27.6635 131.384 30.9576V31.7217H123.711V31.8564C123.675 32.2563 123.726 32.6591 123.858 33.0381C123.99 33.4171 124.201 33.7636 124.478 34.0547C124.754 34.3458 125.089 34.5747 125.461 34.7262C125.833 34.8778 126.232 34.9485 126.634 34.9338C127.161 34.9832 127.689 34.8611 128.141 34.5858C128.594 34.3104 128.945 33.8966 129.143 33.4057L131.26 33.4057ZM123.721 30.1631H129.153C129.173 29.8036 129.119 29.4438 128.993 29.1063C128.867 28.7689 128.673 28.461 128.423 28.2021C128.173 27.9432 127.872 27.7388 127.539 27.6017C127.206 27.4647 126.848 27.3979 126.488 27.4057C126.125 27.4035 125.765 27.4733 125.429 27.611C125.093 27.7487 124.788 27.9515 124.53 28.2079C124.273 28.4643 124.069 28.769 123.93 29.1046C123.791 29.4402 123.72 29.7999 123.721 30.1631V30.1631Z" fill="black"/>
<path d="M44.086 13.5044H45.0434C45.2083 13.5249 45.3755 13.511 45.5347 13.4637C45.6939 13.4164 45.8416 13.3366 45.9684 13.2293C46.0953 13.1221 46.1985 12.9898 46.2717 12.8407C46.3448 12.6915 46.3863 12.5289 46.3935 12.363C46.3935 11.7026 45.8966 11.276 45.054 11.276C44.8851 11.2525 44.7133 11.2629 44.5485 11.3069C44.3838 11.3508 44.2295 11.4273 44.0948 11.5318C43.9601 11.6364 43.8478 11.7668 43.7643 11.9155C43.6809 12.0642 43.6281 12.2281 43.6091 12.3975H42.5579C42.576 12.09 42.6572 11.7894 42.7965 11.5146C42.9357 11.2398 43.1301 10.9966 43.3674 10.8002C43.6048 10.6037 43.88 10.4582 44.176 10.3728C44.472 10.2873 44.7824 10.2637 45.088 10.3034C46.4977 10.3034 47.4904 11.0926 47.4904 12.2288C47.4937 12.6094 47.3663 12.9796 47.1296 13.2777C46.8928 13.5757 46.561 13.7836 46.1896 13.8665V13.9508C46.63 13.9704 47.0447 14.1635 47.3431 14.4879C47.6416 14.8124 47.7994 15.2418 47.7821 15.6823C47.7495 15.999 47.6541 16.3059 47.5013 16.5852C47.3485 16.8645 47.1416 17.1105 46.8925 17.3088C46.6434 17.507 46.3573 17.6536 46.0508 17.7398C45.7444 17.8261 45.4238 17.8503 45.1079 17.811C44.7913 17.8542 44.4693 17.8331 44.161 17.7492C43.8528 17.6652 43.5645 17.5201 43.3136 17.3224C43.0626 17.1246 42.854 16.8784 42.7002 16.5984C42.5464 16.3183 42.4506 16.0101 42.4185 15.6923H43.486C43.5505 16.3772 44.1798 16.8191 45.1079 16.8191C46.036 16.8191 46.6419 16.3228 46.6419 15.6232C46.6419 14.9136 46.0712 14.4765 45.0739 14.4765H44.086V13.5044Z" fill="black"/>
<path d="M48.9951 16.1096C48.9951 15.1369 49.7205 14.5762 51.0049 14.4965L52.4686 14.4121V13.9457C52.4686 13.375 52.0924 13.0527 51.3623 13.0527C50.767 13.0527 50.3557 13.2713 50.2361 13.6533H49.2037C49.3127 12.7252 50.1869 12.1299 51.4127 12.1299C52.7674 12.1299 53.5315 12.8043 53.5315 13.9457V17.6377H52.5037V16.8783H52.4193C52.2481 17.1507 52.0076 17.3728 51.7224 17.5218C51.4373 17.6709 51.1177 17.7416 50.7963 17.7267C50.5695 17.7503 50.3402 17.7261 50.1233 17.6557C49.9064 17.5852 49.7066 17.4701 49.5369 17.3178C49.3672 17.1654 49.2313 16.9792 49.138 16.7711C49.0447 16.563 48.996 16.3376 48.9951 16.1096ZM52.4686 15.6478V15.1961L51.149 15.2805C50.4048 15.3303 50.0673 15.5834 50.0673 16.0598C50.0673 16.5461 50.4892 16.8291 51.0693 16.8291C51.2393 16.8463 51.411 16.8291 51.5742 16.7786C51.7374 16.7281 51.8888 16.6453 52.0194 16.5351C52.1499 16.4249 52.257 16.2895 52.3341 16.1371C52.4113 15.9847 52.457 15.8183 52.4686 15.6478Z" fill="black"/>
<path d="M56.3613 13.132V17.6379H55.2949V12.2344H58.8528V13.132L56.3613 13.132Z" fill="black"/>
<path d="M65.3156 14.9332C65.3156 16.6499 64.4473 17.7263 63.0832 17.7263C62.7484 17.7492 62.414 17.6759 62.1194 17.5151C61.8247 17.3543 61.5822 17.1127 61.4203 16.8187H61.3359V19.4337H60.2695V12.2337H61.2961V13.1267H61.3758C61.5406 12.8225 61.7863 12.5697 62.0857 12.3963C62.3852 12.2229 62.7267 12.1356 63.0727 12.1441C64.4473 12.1441 65.3156 13.2158 65.3156 14.9332ZM64.2188 14.9332C64.2188 13.7917 63.6785 13.1021 62.775 13.1021C61.8774 13.1021 61.316 13.8064 61.316 14.9378C61.316 16.064 61.8774 16.7689 62.7703 16.7689C63.6785 16.7689 64.2188 16.0792 64.2188 14.9332Z" fill="black"/>
<path d="M66.736 19.5733V18.6551C66.8514 18.6697 66.9677 18.6764 67.084 18.675C67.3112 18.6918 67.5366 18.6242 67.717 18.485C67.8974 18.3458 68.02 18.1449 68.0613 17.9209L68.141 17.6578L66.1852 12.2344H67.3465L68.7012 16.5264H68.7856L70.1356 12.2344H71.2665L69.252 17.8611C68.7903 19.176 68.2794 19.5979 67.1778 19.5979C67.0887 19.5979 66.8356 19.5879 66.736 19.5733Z" fill="black"/>
<path d="M72.0974 16.1044H73.1591C73.2634 16.5808 73.7099 16.8292 74.3345 16.8292C75.0447 16.8292 75.4806 16.5163 75.4806 16.03C75.4806 15.5091 75.0892 15.2607 74.3345 15.2607H73.5259V14.4322H74.3205C74.965 14.4322 75.2931 14.1843 75.2931 13.7326C75.2931 13.3359 74.9755 13.033 74.3205 13.033C73.724 13.033 73.288 13.2861 73.2189 13.7127H72.1912C72.268 13.2225 72.5341 12.7821 72.9323 12.4861C73.3305 12.1902 73.829 12.0623 74.3205 12.13C75.6048 12.13 76.3396 12.7107 76.3396 13.6236C76.3456 13.8778 76.2641 14.1264 76.1089 14.3277C75.9536 14.5291 75.7339 14.6711 75.4865 14.7299V14.8142C75.781 14.8522 76.0513 14.997 76.2462 15.2211C76.441 15.4452 76.5468 15.7331 76.5435 16.03C76.5435 17.0572 75.6693 17.7369 74.3345 17.7369C73.1544 17.7368 72.1959 17.196 72.0974 16.1044Z" fill="black"/>
<path d="M78.0791 17.6379V12.2344H79.1361V15.951H79.2205L81.7107 12.2344H82.7678V17.6379H81.7107V13.9014H81.6311L79.1361 17.6379L78.0791 17.6379Z" fill="black"/>
<path d="M88.5909 13.132H86.8893V17.6378H85.8217V13.132H84.1201V12.2344H88.5909V13.132Z" fill="black"/>
<path d="M94.3355 16.1788C94.1902 16.6726 93.876 17.0997 93.4478 17.3854C93.0196 17.6712 92.5047 17.7974 91.9929 17.7421C91.6369 17.7515 91.2831 17.6833 90.9561 17.5423C90.6291 17.4012 90.3367 17.1907 90.0992 16.9254C89.8617 16.66 89.6848 16.3461 89.5808 16.0055C89.4768 15.6649 89.4481 15.3058 89.4968 14.953C89.4494 14.5992 89.4786 14.2392 89.5824 13.8976C89.6861 13.556 89.8621 13.2407 90.0983 12.973C90.3346 12.7053 90.6256 12.4915 90.9516 12.3461C91.2777 12.2006 91.6312 12.1269 91.9882 12.13C93.4917 12.13 94.3999 13.1572 94.3999 14.854V15.2261H90.5843V15.2859C90.5674 15.4842 90.5922 15.6839 90.6571 15.8721C90.7219 16.0602 90.8255 16.2328 90.961 16.3786C91.0965 16.5244 91.2611 16.6402 91.444 16.7186C91.627 16.797 91.8243 16.8363 92.0234 16.8339C92.2783 16.8643 92.5365 16.8183 92.7652 16.7017C92.9939 16.585 93.1828 16.403 93.3077 16.1788L94.3355 16.1788ZM90.5843 14.4374H93.3124C93.3259 14.2561 93.3013 14.0741 93.2402 13.9029C93.1792 13.7317 93.083 13.5751 92.9578 13.4433C92.8327 13.3115 92.6814 13.2073 92.5136 13.1374C92.3458 13.0676 92.1652 13.0336 91.9835 13.0376C91.799 13.0351 91.6159 13.0696 91.4449 13.1391C91.274 13.2085 91.1188 13.3115 90.9883 13.442C90.8579 13.5725 90.7549 13.7279 90.6855 13.8988C90.6161 14.0698 90.5817 14.2529 90.5843 14.4374H90.5843Z" fill="black"/>
<path d="M98.8564 12.2344H101.293C102.35 12.2344 102.97 12.7699 102.97 13.6084C102.971 13.8744 102.882 14.133 102.715 14.3407C102.549 14.5485 102.317 14.6929 102.057 14.7498V14.8342C102.372 14.8541 102.668 14.9945 102.883 15.2263C103.098 15.4581 103.216 15.7637 103.212 16.0799C103.212 17.0226 102.503 17.6379 101.317 17.6379H98.8564V12.2344ZM99.9135 13.0529V14.4521H100.971C101.615 14.4521 101.923 14.2043 101.923 13.7473C101.923 13.326 101.655 13.0529 101.089 13.0529L99.9135 13.0529ZM99.9135 15.2361V16.8193H101.178C101.808 16.8193 102.146 16.541 102.146 16.0301C102.146 15.4893 101.764 15.2362 101.044 15.2362L99.9135 15.2361Z" fill="black"/>
</g>
<defs>
<clipPath id="clip0">
<rect width="143.597" height="48" fill="white"/>
</clipPath>
</defs>
</svg>
