<svg width="16" height="16" viewBox="0 0 16 16" fill="none" xmlns="http://www.w3.org/2000/svg">
<path d="M8 11.3447C8.31152 11.3394 8.55859 11.2266 8.81641 10.9741L12.4849 7.21436C12.6675 7.02637 12.7534 6.81152 12.7534 6.54834C12.7534 6.01123 12.3184 5.5708 11.792 5.5708C11.5288 5.5708 11.2817 5.67822 11.0776 5.8877L8.00537 9.0835L4.92236 5.8877C4.72363 5.68359 4.47656 5.5708 4.20801 5.5708C3.67627 5.5708 3.24121 6.01123 3.24121 6.54834C3.24121 6.80615 3.33252 7.021 3.51514 7.21436L7.18896 10.9741C7.44678 11.2319 7.69385 11.3447 8 11.3447Z" fill="black"/>
</svg>
