<svg width="64" height="64" viewBox="0 0 64 64" fill="none" xmlns="http://www.w3.org/2000/svg">
<path d="M2.70786 33.66C1.98171 32.609 1.78185 32.2922 1.7046 31.979C1.62699 31.6644 1.62699 31.3356 1.7046 31.021C1.78185 30.7078 1.98171 30.391 2.70786 29.34L18.5064 6.4737C18.7382 6.13808 18.8744 5.94268 18.9837 5.8116C18.9894 5.8047 18.9949 5.79828 19 5.79233C19.0051 5.79828 19.0106 5.8047 19.0163 5.8116C19.1256 5.94268 19.2618 6.13808 19.4936 6.4737L35.2921 29.34C36.0183 30.391 36.2182 30.7078 36.2954 31.021C36.373 31.3356 36.373 31.6644 36.2954 31.979C36.2182 32.2922 36.0183 32.609 35.2921 33.66L19.4936 56.5263C19.2618 56.8619 19.1256 57.0573 19.0163 57.1884C19.0106 57.1953 19.0051 57.2017 19 57.2077C18.9949 57.2017 18.9894 57.1953 18.9837 57.1884C18.8744 57.0573 18.7382 56.8619 18.5064 56.5263L2.70786 33.66Z" stroke="#1D1D1F" stroke-width="2"/>
<path d="M19 7L19 56.5" stroke="#1D1D1F" stroke-width="2"/>
<path d="M19 36L18.7441 36.9667C18.9118 37.0111 19.0882 37.0111 19.2559 36.9667L19 36ZM35.7441 30.5332L18.7441 35.0333L19.2559 36.9667L36.2559 32.4667L35.7441 30.5332ZM19.2559 35.0333L2.25596 30.5333L1.74417 32.4667L18.7441 36.9667L19.2559 35.0333Z" fill="#1D1D1F"/>
<path d="M37 5H42.0467C43.6777 5 45 6.32225 45 7.95334V7.95334C45 9.18442 44.2363 10.2864 43.0836 10.7186L39.5955 12.0267C38.34 12.4975 37.7123 12.7329 37.3561 13.2468C37 13.7607 37 14.4312 37 15.772V17H45" stroke="#1D1D1F" stroke-width="2" stroke-linecap="round" stroke-linejoin="round"/>
<path d="M59 9.49994L59 12.4999C59 14.9852 56.9853 16.9999 54.5 16.9999C52.0148 16.9999 50 14.9868 50 12.5015L50 9.50011C50 7.01483 52.0147 4.99992 54.5 4.99992C56.9853 4.99991 59.0001 7.01465 59 9.49994Z" stroke="#1D1D1F" stroke-width="2" stroke-linecap="round" stroke-linejoin="round"/>
<path d="M52 16L57 6" stroke="#1D1D1F" stroke-width="2"/>
<circle cx="48" cy="17" r="1" fill="#1D1D1F"/>
</svg>
