<svg width="64" height="64" viewBox="0 0 64 64" fill="none" xmlns="http://www.w3.org/2000/svg">
<path d="M16.8965 32.6577C16.0898 34.8131 16.2044 37.2951 18.2776 41.4943C13.4715 44.7924 15.3326 47.502 17.4121 50.7567C8.05524 55.9453 7.12776 55.9608 7.12776 55.9608C1.40727 42.3509 10.3468 33.0417 16.8965 32.6577Z" fill="white"/>
<path d="M16.8965 32.6577C16.0898 34.8131 16.2044 37.2951 18.2776 41.4943C13.4715 44.7924 15.3326 47.502 17.4121 50.7567C8.05524 55.9453 7.12776 55.9608 7.12776 55.9608C1.40727 42.3509 10.3468 33.0417 16.8965 32.6577Z" stroke="#1D1D1F" stroke-width="2" stroke-linejoin="round"/>
<path d="M36.8818 32.6577C37.6885 34.8131 37.574 37.2951 35.5007 41.4943C40.3068 44.7924 38.4457 47.502 36.3662 50.7567C45.7231 55.9453 46.6506 55.9608 46.6506 55.9608C52.371 42.3509 43.4315 33.0417 36.8818 32.6577Z" fill="white"/>
<path d="M36.8818 32.6577C37.6885 34.8131 37.574 37.2951 35.5007 41.4943C40.3068 44.7924 38.4457 47.502 36.3662 50.7567C45.7231 55.9453 46.6506 55.9608 46.6506 55.9608C52.371 42.3509 43.4315 33.0417 36.8818 32.6577Z" stroke="#1D1D1F" stroke-width="2" stroke-linejoin="round"/>
<path d="M25.5446 2H28.1211C32.373 2 35.4264 2.74013 38.0261 4.13057C40.6243 5.51947 42.6651 7.56023 44.054 10.1584C45.4444 12.7581 46.1845 15.8115 46.1845 20.0634V21.7171C46.1845 25.9689 45.4444 29.0223 44.054 31.622C42.6651 34.2202 40.6243 36.261 38.0261 37.6499C35.4264 39.0403 32.373 39.7805 28.1211 39.7805H25.6933C21.4414 39.7805 18.388 39.0403 15.7883 37.6499C13.1901 36.261 11.1493 34.2202 9.76045 31.622C8.37001 29.0223 7.62988 25.9689 7.62988 21.7171V20.0634C7.62988 15.8115 8.37001 12.7581 9.76045 10.1584C11.1493 7.56023 13.1901 5.51947 15.7883 4.13057C18.3571 2.75716 21.3702 2.01703 25.5446 2Z" fill="white" stroke="#1D1D1F" stroke-width="2"/>
<path d="M36.5846 6.49023C38.2445 7.38675 39.6488 8.58364 40.7652 10.0515L36.5846 6.49023Z" fill="white"/>
<path d="M36.5846 6.49023C38.2445 7.38675 39.6488 8.58364 40.7652 10.0515" stroke="#1D1D1F" stroke-width="2" stroke-linecap="round"/>
<path d="M8.05453 11.2358C8.91233 11.5997 9.59362 12.1122 10.0798 12.7285C10.5645 13.3447 10.8555 14.0647 10.9345 14.8467C11.0135 15.627 10.8788 16.4694 10.5149 17.3272L9.9931 18.555C9.62923 19.4144 9.11672 20.0941 8.50046 20.5803C7.88421 21.0665 7.16421 21.3576 6.38228 21.4366C5.6019 21.5155 4.76113 21.3808 3.90178 21.0169C3.04397 20.6515 2.36269 20.1406 1.87804 19.5243C1.39185 18.9081 1.10076 18.1865 1.02179 17.4061C0.942824 16.6257 1.07753 15.7834 1.4414 14.9256L1.96321 13.6962C2.32707 12.8384 2.83959 12.1571 3.45584 11.6725C4.0721 11.1863 4.79209 10.8952 5.57403 10.8162C6.35441 10.7373 7.19518 10.872 8.05453 11.2358Z" fill="white"/>
<path d="M8.05453 11.2358C8.91233 11.5997 9.59362 12.1122 10.0798 12.7285C10.5645 13.3447 10.8555 14.0647 10.9345 14.8467C11.0135 15.627 10.8788 16.4694 10.5149 17.3272L9.9931 18.555C9.62923 19.4144 9.11672 20.0941 8.50046 20.5803C7.88421 21.0665 7.16421 21.3576 6.38228 21.4366C5.6019 21.5155 4.76113 21.3808 3.90178 21.0169C3.04397 20.6515 2.36269 20.1406 1.87804 19.5243C1.39185 18.9081 1.10076 18.1865 1.02179 17.4061C0.942824 16.6257 1.07753 15.7834 1.4414 14.9256L1.96321 13.6962C2.32707 12.8384 2.83959 12.1571 3.45584 11.6725C4.0721 11.1863 4.79209 10.8952 5.57403 10.8162C6.35441 10.7373 7.19518 10.872 8.05453 11.2358Z" stroke="#1D1D1F" stroke-width="2"/>
<path d="M5.95174 13.8579L4.30977 17.7261" stroke="white" stroke-width="2" stroke-linecap="round" stroke-linejoin="round"/>
<path d="M45.0403 11.2358C44.1825 11.5997 43.5012 12.1122 43.0166 12.7285C42.5304 13.3447 42.2393 14.0647 42.1603 14.8467C42.0814 15.627 42.2161 16.4694 42.58 17.3272L43.1018 18.555C43.4656 19.4144 43.9781 20.0941 44.5944 20.5803C45.2106 21.0665 45.9306 21.3576 46.7126 21.4366C47.493 21.5155 48.3337 21.3808 49.1931 21.0169C50.0509 20.6515 50.7322 20.1406 51.2184 19.5243C51.703 18.9081 51.9941 18.1865 52.0731 17.4061C52.152 16.6257 52.0173 15.7834 51.6535 14.9256L51.1316 13.6962C50.7678 12.8384 50.2553 12.1571 49.639 11.6725C49.0228 11.1863 48.3028 10.8952 47.5208 10.8162C46.7404 10.7373 45.8997 10.872 45.0403 11.2358Z" fill="white"/>
<path d="M45.0403 11.2358C44.1825 11.5997 43.5012 12.1122 43.0166 12.7285C42.5304 13.3447 42.2393 14.0647 42.1603 14.8467C42.0814 15.627 42.2161 16.4694 42.58 17.3272L43.1018 18.555C43.4656 19.4144 43.9781 20.0941 44.5944 20.5803C45.2106 21.0665 45.9306 21.3576 46.7126 21.4366C47.493 21.5155 48.3337 21.3808 49.1931 21.0169C50.0509 20.6515 50.7322 20.1406 51.2184 19.5243C51.703 18.9081 51.9941 18.1865 52.0731 17.4061C52.152 16.6257 52.0173 15.7834 51.6535 14.9256L51.1316 13.6962C50.7678 12.8384 50.2553 12.1571 49.639 11.6725C49.0228 11.1863 48.3028 10.8952 47.5208 10.8162C46.7404 10.7373 45.8997 10.872 45.0403 11.2358Z" stroke="#1D1D1F" stroke-width="2"/>
<path d="M24.6869 11.7549H29.2825C31.6112 11.7549 33.4151 12.1853 34.9294 12.9951C36.4422 13.8049 37.6313 14.9941 38.4411 16.5069C39.2509 18.0212 39.6814 19.825 39.6814 22.1538V22.7236C39.6814 25.0524 39.2509 26.8562 38.4411 28.3705C37.6313 29.8833 36.4422 31.0725 34.9294 31.8823C33.4151 32.6921 31.6112 33.1225 29.2825 33.1225H24.6869C22.3581 33.1225 20.5543 32.6921 19.0399 31.8823C17.5272 31.0725 16.338 29.8833 15.5282 28.3705C14.7184 26.8562 14.288 25.0524 14.288 22.7236V22.1538C14.288 19.825 14.7184 18.0212 15.5282 16.5069C16.338 14.9941 17.5272 13.8049 19.0399 12.9951C20.5543 12.1853 22.3581 11.7549 24.6869 11.7549Z" fill="white"/>
<path d="M24.6869 11.7549H29.2825C31.6112 11.7549 33.4151 12.1853 34.9294 12.9951C36.4422 13.8049 37.6313 14.9941 38.4411 16.5069C39.2509 18.0212 39.6814 19.825 39.6814 22.1538V22.7236C39.6814 25.0524 39.2509 26.8562 38.4411 28.3705C37.6313 29.8833 36.4422 31.0725 34.9294 31.8823C33.4151 32.6921 31.6112 33.1225 29.2825 33.1225H24.6869C22.3581 33.1225 20.5543 32.6921 19.0399 31.8823C17.5272 31.0725 16.338 29.8833 15.5282 28.3705C14.7184 26.8562 14.288 25.0524 14.288 22.7236V22.1538C14.288 19.825 14.7184 18.0212 15.5282 16.5069C16.338 14.9941 17.5272 13.8049 19.0399 12.9951C20.5543 12.1853 22.3581 11.7549 24.6869 11.7549Z" stroke="#1D1D1F" stroke-width="2"/>
<path d="M19.2427 24.6063C20.6966 24.6063 21.875 23.428 21.875 21.974C21.875 20.5201 20.6966 19.3418 19.2427 19.3418C17.7888 19.3418 16.6105 20.5201 16.6105 21.974C16.6105 23.428 17.7888 24.6063 19.2427 24.6063Z" fill="#1D1D1F"/>
<path d="M18.4685 22.4385C18.8959 22.4385 19.2427 22.0917 19.2427 21.6643C19.2427 21.237 18.8959 20.8901 18.4685 20.8901C18.0412 20.8901 17.6943 21.237 17.6943 21.6643C17.6943 22.0917 18.0412 22.4385 18.4685 22.4385Z" fill="white"/>
<path d="M17.5396 18.4903L20.4815 17.4839" stroke="#1D1D1F" stroke-width="2" stroke-linecap="round"/>
<path d="M34.5717 24.6063C33.1178 24.6063 31.9395 23.428 31.9395 21.974C31.9395 20.5201 33.1178 19.3418 34.5717 19.3418C36.0257 19.3418 37.204 20.5201 37.204 21.974C37.204 23.428 36.0257 24.6063 34.5717 24.6063Z" fill="#1D1D1F"/>
<path d="M33.9524 22.4385C33.525 22.4385 33.1782 22.0917 33.1782 21.6643C33.1782 21.237 33.525 20.8901 33.9524 20.8901C34.3797 20.8901 34.7266 21.237 34.7266 21.6643C34.7266 22.0917 34.3797 22.4385 33.9524 22.4385Z" fill="white"/>
<path d="M36.2749 18.4903L33.333 17.4839" stroke="#1D1D1F" stroke-width="2" stroke-linecap="round"/>
<path d="M24.3525 21.1613C24.3525 21.1613 24.341 23.1138 26.9846 23.1742C29.3749 23.2287 29.617 21.1613 29.617 21.1613L29.6075 21.1226C29.6264 22.1061 28.4651 23.1997 26.9946 23.1742C25.5408 23.1489 24.4393 22.4932 24.343 21.1226L24.3525 21.1613Z" stroke="#1D1D1F" stroke-width="2" stroke-linecap="round" stroke-linejoin="round"/>
<path d="M24.3525 21.1613C24.3525 21.1613 24.341 23.1138 26.9846 23.1742C29.3749 23.2287 29.617 21.1613 29.617 21.1613L29.6075 21.1226C29.6264 22.1061 28.4651 23.1997 26.9946 23.1742C25.5408 23.1489 24.4393 22.4932 24.343 21.1226L24.3525 21.1613Z" fill="#1D1D1F"/>
<path d="M26.8898 61.6178C35.6746 61.7185 42.8773 54.6063 42.979 45.7329C43.0808 36.8594 36.0431 29.5839 27.2583 29.4832C18.4735 29.3824 11.2708 36.4946 11.169 45.3681C11.0673 54.2416 18.105 61.517 26.8898 61.6178Z" fill="white"/>
<path d="M26.8898 61.6178C35.6746 61.7185 42.8773 54.6063 42.979 45.7329C43.0808 36.8594 36.0431 29.5839 27.2583 29.4832C18.4735 29.3824 11.2708 36.4946 11.169 45.3681C11.0673 54.2416 18.105 61.517 26.8898 61.6178Z" stroke="#1D1D1F" stroke-width="2"/>
<path d="M27.1395 61.5353C35.9482 61.5353 43.0878 54.3601 43.0878 45.5096C43.0878 36.6591 35.9482 29.4839 27.1395 29.4839C18.3307 29.4839 11.1912 36.6591 11.1912 45.5096C11.1912 54.3601 18.3307 61.5353 27.1395 61.5353Z" stroke="#1D1D1F" stroke-width="2"/>
<path d="M36.1243 49.4911L25.6384 45.0425L32.3635 45.0127C32.1223 42.5695 29.6151 40.5834 27.2508 40.5834C26.7149 40.5834 26.1819 40.6728 25.6757 40.847L23.3486 36.8911C24.5724 36.3284 25.9049 36.0395 27.2508 36.041C32.4275 36.041 36.8508 40.3214 36.8508 45.5055C36.8508 46.9035 36.6707 48.2985 36.1228 49.4911H36.1243ZM27.2511 55.3146C22.0745 55.3146 17.6363 51.1117 17.6363 45.9276C17.6363 44.7097 17.867 43.3043 18.2884 42.2368L22.4184 43.9981C22.405 44.0561 22.3886 44.1321 22.3693 44.2169C22.2457 44.6219 22.1727 45.0388 22.1534 45.4601C22.1445 45.5435 22.1415 45.6283 22.143 45.7117C22.143 45.7311 22.1459 45.7504 22.1474 45.7698C22.1653 47.3107 22.8814 48.7593 24.0918 49.7092C25.3037 50.6591 26.8804 51.0075 28.3782 50.6561L30.7261 54.6491C29.6199 55.0898 28.4407 55.3161 27.2511 55.3146Z" fill="#1D1D1F"/>
<path d="M7.13201 56.3146L6.08375 53.1574C5.28479 50.7528 6.58698 48.1577 8.99006 47.3588L9.04425 47.3417C11.4969 46.5613 14.1214 47.8976 14.9327 50.3394L15.981 53.4965C16.7784 55.9012 15.4778 58.4962 13.0731 59.2952L13.0205 59.3122C10.5679 60.0926 7.94336 58.7564 7.13201 56.3146Z" fill="white"/>
<path d="M7.13201 56.3146L6.08375 53.1574C5.28479 50.7528 6.58698 48.1577 8.99006 47.3588L9.04425 47.3417C11.4969 46.5613 14.1214 47.8976 14.9327 50.3394L15.981 53.4965C16.7784 55.9012 15.4778 58.4962 13.0731 59.2952L13.0205 59.3122C10.5679 60.0926 7.94336 58.7564 7.13201 56.3146Z" stroke="#1D1D1F" stroke-width="2"/>
<path d="M14.2388 50.7921L10.1676 51.7909L14.2388 50.7921Z" fill="white"/>
<path d="M14.2388 50.7921L10.1676 51.7909" stroke="#1D1D1F" stroke-width="2" stroke-linecap="round"/>
<path d="M15.2422 53.9L11.2601 55.1678L15.2422 53.9Z" fill="white"/>
<path d="M15.2422 53.9L11.2601 55.1678" stroke="#1D1D1F" stroke-width="2" stroke-linecap="round"/>
<path d="M46.6471 56.3146L47.6953 53.1574C48.4928 50.7528 47.1921 48.1577 44.7875 47.3588L44.7348 47.3417C42.2822 46.5613 39.6577 47.8976 38.8464 50.3394L37.7981 53.4965C36.9991 55.9012 38.3013 58.4962 40.7044 59.2952L40.7586 59.3122C43.2112 60.0926 45.8357 58.7564 46.6471 56.3146Z" fill="white"/>
<path d="M46.6471 56.3146L47.6953 53.1574C48.4928 50.7528 47.1921 48.1577 44.7875 47.3588L44.7348 47.3417C42.2822 46.5613 39.6577 47.8976 38.8464 50.3394L37.7981 53.4965C36.9991 55.9012 38.3013 58.4962 40.7044 59.2952L40.7586 59.3122C43.2112 60.0926 45.8357 58.7564 46.6471 56.3146Z" stroke="#1D1D1F" stroke-width="2"/>
<path d="M39.5396 50.7921L43.6108 51.7909L39.5396 50.7921Z" fill="white"/>
<path d="M39.5396 50.7921L43.6108 51.7909" stroke="#1D1D1F" stroke-width="2" stroke-linecap="round"/>
<path d="M38.5362 53.9L42.5184 55.1678L38.5362 53.9Z" fill="white"/>
<path d="M38.5362 53.9L42.5184 55.1678" stroke="#1D1D1F" stroke-width="2" stroke-linecap="round"/>
</svg>
