<svg width="135" height="40" viewBox="0 0 135 40" fill="none" xmlns="http://www.w3.org/2000/svg">
<path fill-rule="evenodd" clip-rule="evenodd" d="M8.6468 0.00124139L126.026 0C129.147 0 130.278 0.32489 131.419 0.934964C132.56 1.54504 133.455 2.4403 134.065 3.58104L134.191 3.82607C134.72 4.89357 135 6.07616 135 8.9736V31.0264L134.995 31.6653C134.952 34.3084 134.632 35.3597 134.065 36.419C133.455 37.5597 132.56 38.455 131.419 39.065L131.174 39.1914C130.106 39.7199 128.924 40 126.026 40H8.9736L8.33467 39.995C5.69159 39.9521 4.6403 39.6315 3.58104 39.065C2.4403 38.455 1.54504 37.5597 0.934964 36.419L0.808614 36.1739C0.280134 35.1064 0 33.9238 0 31.0264V8.9736C0 5.85328 0.32489 4.72178 0.934964 3.58104C1.54504 2.4403 2.4403 1.54504 3.58104 0.934964L3.82607 0.808614C4.85251 0.300461 5.98536 0.0219162 8.6468 0.00124139Z" fill="black"/>
<path fill-rule="evenodd" clip-rule="evenodd" d="M106.936 31H108.802V18.499H106.936V31ZM123.743 23.002L121.604 28.422H121.54L119.32 23.002H117.31L120.639 30.577L118.741 34.791H120.688L125.818 23.002H123.743ZM113.161 29.58C112.549 29.58 111.697 29.275 111.697 28.519C111.697 27.554 112.759 27.184 113.675 27.184C114.496 27.184 114.881 27.361 115.38 27.602C115.235 28.76 114.238 29.58 113.161 29.58ZM113.386 22.729C112.035 22.729 110.636 23.324 110.057 24.643L111.713 25.334C112.067 24.643 112.726 24.417 113.418 24.417C114.383 24.417 115.364 24.996 115.38 26.026V26.154C115.042 25.961 114.319 25.672 113.434 25.672C111.649 25.672 109.831 26.653 109.831 28.486C109.831 30.159 111.295 31.237 112.935 31.237C114.19 31.237 114.881 30.674 115.316 30.014H115.38V30.979H117.181V26.187C117.181 23.967 115.525 22.729 113.386 22.729ZM101.854 24.524H99.2V20.239H101.854C103.249 20.239 104.041 21.394 104.041 22.381C104.041 23.35 103.249 24.524 101.854 24.524ZM101.806 18.499H97.335V31H99.2V26.264H101.806C103.874 26.264 105.907 24.766 105.907 22.381C105.907 19.996 103.874 18.499 101.806 18.499ZM77.425 29.582C76.136 29.582 75.057 28.503 75.057 27.021C75.057 25.523 76.136 24.427 77.425 24.427C78.698 24.427 79.696 25.523 79.696 27.021C79.696 28.503 78.698 29.582 77.425 29.582ZM79.567 23.702H79.503C79.084 23.203 78.279 22.752 77.264 22.752C75.137 22.752 73.188 24.62 73.188 27.021C73.188 29.405 75.137 31.258 77.264 31.258C78.279 31.258 79.084 30.807 79.503 30.291H79.567V30.903C79.567 32.531 78.698 33.401 77.296 33.401C76.152 33.401 75.443 32.579 75.153 31.886L73.526 32.563C73.993 33.691 75.234 35.076 77.296 35.076C79.487 35.076 81.34 33.787 81.34 30.646V23.009H79.567V23.702ZM82.629 31H84.498V18.498H82.629V31ZM87.252 26.876C87.204 25.233 88.525 24.395 89.475 24.395C90.217 24.395 90.845 24.765 91.054 25.297L87.252 26.876ZM93.052 25.458C92.698 24.508 91.618 22.752 89.411 22.752C87.22 22.752 85.4 24.475 85.4 27.005C85.4 29.389 87.204 31.258 89.62 31.258C91.57 31.258 92.698 30.066 93.165 29.373L91.715 28.406C91.232 29.115 90.571 29.582 89.62 29.582C88.67 29.582 87.993 29.147 87.558 28.294L93.245 25.942L93.052 25.458ZM47.744 24.057V25.861H52.061C51.932 26.876 51.594 27.617 51.079 28.133C50.45 28.761 49.467 29.453 47.744 29.453C45.086 29.453 43.007 27.311 43.007 24.653C43.007 21.994 45.086 19.852 47.744 19.852C49.178 19.852 50.225 20.416 50.998 21.141L52.271 19.868C51.191 18.837 49.758 18.047 47.744 18.047C44.103 18.047 41.042 21.012 41.042 24.653C41.042 28.294 44.103 31.258 47.744 31.258C49.709 31.258 51.191 30.614 52.351 29.405C53.543 28.213 53.914 26.538 53.914 25.184C53.914 24.765 53.882 24.379 53.817 24.057H47.744ZM58.823 29.582C57.534 29.582 56.422 28.519 56.422 27.005C56.422 25.474 57.534 24.427 58.823 24.427C60.111 24.427 61.223 25.474 61.223 27.005C61.223 28.519 60.111 29.582 58.823 29.582ZM58.823 22.752C56.47 22.752 54.553 24.54 54.553 27.005C54.553 29.453 56.47 31.258 58.823 31.258C61.175 31.258 63.092 29.453 63.092 27.005C63.092 24.54 61.175 22.752 58.823 22.752ZM68.136 29.582C66.847 29.582 65.735 28.519 65.735 27.005C65.735 25.474 66.847 24.427 68.136 24.427C69.425 24.427 70.536 25.474 70.536 27.005C70.536 28.519 69.425 29.582 68.136 29.582ZM68.136 22.752C65.784 22.752 63.867 24.54 63.867 27.005C63.867 29.453 65.784 31.258 68.136 31.258C70.488 31.258 72.405 29.453 72.405 27.005C72.405 24.54 70.488 22.752 68.136 22.752Z" fill="white"/>
<path fill-rule="evenodd" clip-rule="evenodd" d="M58.1789 14.234C58.6779 14.234 59.1429 14.135 59.5699 13.935C59.9959 13.737 60.3519 13.467 60.6359 13.125L60.6939 13.055L60.0179 12.379L59.9479 12.459C59.4529 13.022 58.8719 13.295 58.1789 13.297C57.5469 13.296 57.0259 13.087 56.5939 12.663C56.1639 12.241 55.9499 11.695 55.9489 11C55.9499 10.306 56.1639 9.76001 56.5939 9.33701C57.0259 8.91301 57.5469 8.70501 58.1789 8.70401C58.8589 8.70501 59.3779 8.94401 59.7679 9.42901L59.8369 9.51401L60.4529 8.91801L60.5209 8.85201L60.4589 8.78101C59.8779 8.10601 59.1069 7.76401 58.1789 7.766C57.2739 7.76501 56.5019 8.07601 55.8879 8.69201C55.2709 9.30701 54.9609 10.084 54.9619 11C54.9609 11.916 55.2709 12.693 55.8879 13.308C56.5019 13.924 57.2739 14.235 58.1789 14.234ZM59.9519 12.596L59.9555 12.5996C59.9781 12.5753 60.0006 12.5504 60.0229 12.525L59.9519 12.596ZM60.0936 12.5959L60.0229 12.525L60.0979 12.591L60.0936 12.5959ZM59.7769 9.29401L59.7817 9.2893C59.8035 9.31418 59.8249 9.33975 59.8459 9.36599L59.7769 9.29401ZM59.9239 9.30401L59.8459 9.36599L59.9178 9.2964L59.9239 9.30401Z" fill="#FFFFFE"/>
<path fill-rule="evenodd" clip-rule="evenodd" d="M54.3979 11C54.3989 11.899 54.0929 12.672 53.4859 13.294C52.8799 13.92 52.1139 14.235 51.2139 14.234C50.3149 14.235 49.5489 13.92 48.9429 13.294C48.3349 12.672 48.0299 11.899 48.0309 11C48.0299 10.101 48.3359 9.32901 48.9439 8.70601C49.5499 8.08101 50.3149 7.76501 51.2139 7.76601C52.1099 7.76501 52.8729 8.08201 53.4819 8.71001C54.0919 9.33501 54.3989 10.106 54.3979 11ZM49.6559 12.652C50.0839 13.084 50.5949 13.295 51.2139 13.297C51.8339 13.296 52.3459 13.084 52.7729 12.652C53.1979 12.22 53.4099 11.677 53.4109 11C53.4099 10.323 53.1979 9.78001 52.7729 9.34801C52.3459 8.91601 51.8339 8.70501 51.2139 8.70401C50.5949 8.70501 50.0839 8.91601 49.6559 9.34801C49.2309 9.77901 49.0189 10.323 49.0189 11C49.0189 11.677 49.2309 12.221 49.6559 12.652Z" fill="#FFFFFE"/>
<path fill-rule="evenodd" clip-rule="evenodd" d="M42.2139 14.1V15.373H41.2769V13.163H41.9252C42.3854 12.7496 42.6259 12.0471 42.6259 11.032V7.90001H46.8319V13.163H47.5019V15.373H46.5639V14.1H42.2139ZM43.5969 8.83701H45.8599V13.163H43.1076C43.4358 12.6004 43.5969 11.894 43.5969 11.049V8.83701Z" fill="#FFFFFE"/>
<path fill-rule="evenodd" clip-rule="evenodd" d="M63.7769 8.83701V14.1H62.8059V8.83701H61.1299V7.90001H65.4529V8.83701H63.7769Z" fill="#FFFFFE"/>
<path d="M70.8008 7.90001H69.6749L68.2747 11.2281L66.8419 7.90001H65.7148L67.7798 12.433L67.5808 12.869C67.5018 13.045 67.4169 13.158 67.3419 13.211C67.2689 13.263 67.1508 13.297 66.9848 13.297C66.8628 13.296 66.7469 13.265 66.6319 13.201L66.5209 13.138L66.2608 14.058L66.3428 14.092C66.5648 14.186 66.7758 14.234 66.9768 14.234C67.6398 14.237 68.1488 13.838 68.4678 13.102L68.4669 13.103L70.8008 7.90001Z" fill="#FFFFFE"/>
<path fill-rule="evenodd" clip-rule="evenodd" d="M72.3899 14.1H71.4199V7.90001H75.9599V14.1H74.9889V8.83701H72.3899V14.1Z" fill="#FFFFFE"/>
<path d="M78.1049 14.1V11.393H80.9049V14.1H81.8759V7.90001H80.9049V10.472H78.1049V7.90001H77.1339V14.1H78.1049Z" fill="#FFFFFE"/>
<path fill-rule="evenodd" clip-rule="evenodd" d="M88.1289 13.294C87.5229 13.92 86.7569 14.235 85.8569 14.234C84.9579 14.235 84.1919 13.92 83.5869 13.294C82.9789 12.672 82.6739 11.899 82.6739 11C82.6739 10.101 82.9789 9.32901 83.5869 8.70601C84.1919 8.08101 84.9569 7.76501 85.8569 7.76601C86.7529 7.76501 87.5159 8.08201 88.1249 8.71001C88.7349 9.33501 89.0419 10.106 89.0409 11C89.0419 11.899 88.7359 12.672 88.1289 13.294ZM84.2989 12.652C84.7269 13.084 85.2379 13.295 85.8569 13.297C86.4769 13.296 86.9889 13.084 87.4159 12.652C87.8409 12.22 88.0529 11.677 88.0539 11C88.0529 10.323 87.8409 9.78001 87.4159 9.34801C86.9889 8.91601 86.4769 8.70501 85.8569 8.70401C85.2379 8.70501 84.7269 8.91601 84.2989 9.34801C83.8739 9.77901 83.6629 10.323 83.6609 11C83.6629 11.677 83.8739 12.221 84.2989 12.652Z" fill="#FFFFFE"/>
<path fill-rule="evenodd" clip-rule="evenodd" d="M91.9939 14.1H94.3809C94.8949 14.101 95.3489 13.928 95.7259 13.588C96.1059 13.248 96.3009 12.807 96.2999 12.291C96.3009 11.947 96.1969 11.636 95.9939 11.374C95.8306 11.1628 95.3887 10.8892 95.3887 10.8892C95.3887 10.8892 95.7357 10.6277 95.8589 10.444C96.0189 10.21 96.0989 9.93602 96.0989 9.63402C96.0999 9.14102 95.9139 8.71702 95.5499 8.39102L95.5479 8.38902L95.5499 8.39002C95.1899 8.06502 94.7549 7.89902 94.2639 7.90001H91.9939V14.1ZM92.9639 13.163V11.393H94.3809C94.6669 11.394 94.8819 11.485 95.0539 11.667C95.2299 11.858 95.3109 12.054 95.3119 12.273C95.3109 12.494 95.2319 12.695 95.0609 12.886C94.8939 13.072 94.6879 13.161 94.4149 13.163H92.9639ZM94.2639 10.472H92.9639V8.83702H94.2979C94.5549 8.83902 94.7449 8.92102 94.8969 9.08902C95.0539 9.26502 95.1269 9.44702 95.1279 9.65102C95.1269 9.85402 95.0519 10.037 94.8899 10.216C94.7319 10.388 94.5329 10.471 94.2639 10.472Z" fill="#FFFFFE"/>
<path fill-rule="evenodd" clip-rule="evenodd" d="M10.5099 32.39L10.4349 32.318C10.1449 32.01 9.9729 31.533 9.9729 30.913V31.059V8.94299C9.9729 8.94099 9.9729 8.93999 9.9729 8.93799C9.9729 8.93999 9.9729 8.94199 9.9729 8.94299V9.08999C9.9729 8.41899 10.1729 7.91399 10.5089 7.61099L22.8979 20.001L10.5099 32.39ZM9.9729 8.93699C9.9729 8.88199 9.9739 8.82799 9.9769 8.77499C9.9739 8.82799 9.9729 8.88199 9.9729 8.93699Z" fill="url(#paint0_linear)"/>
<path fill-rule="evenodd" clip-rule="evenodd" d="M27.0279 24.278L27.1219 24.225L32.0149 21.445C32.4809 21.18 32.792 20.858 32.9469 20.518C32.792 20.858 32.4819 21.18 32.0149 21.445L27.1219 24.225L27.0279 24.278ZM27.0289 24.132L22.8979 20.001L27.0289 15.87L32.0149 18.703C32.6479 19.063 33.0039 19.527 33.0629 20C33.0629 20.001 33.0629 20.001 33.0629 20.002C33.0039 20.475 32.6479 20.939 32.0149 21.299L27.0289 24.132Z" fill="url(#paint1_linear)"/>
<path fill-rule="evenodd" clip-rule="evenodd" d="M11.3928 32.861C11.0468 32.861 10.7448 32.749 10.5088 32.536H10.5098C10.7448 32.748 11.0478 32.861 11.3938 32.861C11.4238 32.861 11.4538 32.861 11.4848 32.859C11.4538 32.861 11.4228 32.861 11.3928 32.861ZM11.3928 32.715C11.0468 32.715 10.7448 32.602 10.5098 32.39L22.8978 20.001L27.0288 24.132L12.5138 32.379C12.1118 32.607 11.7318 32.715 11.3928 32.715Z" fill="url(#paint2_linear)"/>
<path fill-rule="evenodd" clip-rule="evenodd" d="M22.8978 20.001L10.5088 7.61099C10.7438 7.39899 11.0458 7.28699 11.3918 7.28699C11.7298 7.28699 12.1108 7.39499 12.5138 7.62299L27.0288 15.87L22.8978 20.001ZM27.1218 15.777L12.5138 7.47699C12.1118 7.24899 11.7298 7.14099 11.3918 7.14099C11.3898 7.14099 11.3888 7.14099 11.3868 7.14099C11.3888 7.14099 11.3908 7.14099 11.3928 7.14099C11.7308 7.14099 12.1118 7.24799 12.5138 7.47699L27.1218 15.777Z" fill="url(#paint3_linear)"/>
<defs>
<linearGradient id="paint0_linear" x1="16.4354" y1="7.61099" x2="16.4354" y2="32.39" gradientUnits="userSpaceOnUse">
<stop stop-color="#00C3FF"/>
<stop offset="1" stop-color="#00E3FF"/>
</linearGradient>
<linearGradient id="paint1_linear" x1="27.9804" y1="15.87" x2="27.9804" y2="24.278" gradientUnits="userSpaceOnUse">
<stop stop-color="#FFC800"/>
<stop offset="1" stop-color="#FFC900"/>
</linearGradient>
<linearGradient id="paint2_linear" x1="24.8357" y1="23.9253" x2="6.65283" y2="42.1819" gradientUnits="userSpaceOnUse">
<stop stop-color="#FF3944"/>
<stop offset="1" stop-color="#C31161"/>
</linearGradient>
<linearGradient id="paint3_linear" x1="18.8153" y1="7.14099" x2="18.8153" y2="20.001" gradientUnits="userSpaceOnUse">
<stop stop-color="#11D574"/>
<stop offset="1" stop-color="#00F076"/>
</linearGradient>
</defs>
</svg>
