<svg width="162" height="48" viewBox="0 0 162 48" fill="none" xmlns="http://www.w3.org/2000/svg">
<path fill-rule="evenodd" clip-rule="evenodd" d="M10.3762 0.00148967L151.232 0C154.976 0 156.334 0.389868 157.703 1.12196C159.072 1.85405 160.146 2.92836 160.878 4.29725L161.03 4.59129C161.664 5.87229 162 7.2914 162 10.7683V37.2317L161.994 37.9984C161.943 41.1701 161.558 42.4316 160.878 43.7028C160.146 45.0716 159.072 46.146 157.703 46.878L157.409 47.0297C156.128 47.6638 154.709 48 151.232 48H10.7683L10.0016 47.994C6.82991 47.9426 5.56836 47.5578 4.29725 46.878C2.92836 46.146 1.85405 45.0716 1.12196 43.7028L0.970336 43.4087C0.336161 42.1277 0 40.7086 0 37.2317V10.7683C0 7.02394 0.389868 5.66614 1.12196 4.29725C1.85405 2.92836 2.92836 1.85405 4.29725 1.12196L4.59129 0.970336C5.82302 0.360553 7.18244 0.0262994 10.3762 0.00148967Z" fill="white"/>
<path fill-rule="evenodd" clip-rule="evenodd" d="M128.323 37.1998H130.562V22.1986H128.323V37.1998ZM148.492 27.6023L145.925 34.1063H145.848L143.184 27.6023H140.772L144.767 36.6922L142.489 41.7491H144.826L150.982 27.6023H148.492ZM135.793 35.4958C135.059 35.4958 134.036 35.1298 134.036 34.2226C134.036 33.0646 135.311 32.6206 136.41 32.6206C137.395 32.6206 137.857 32.833 138.456 33.1222C138.282 34.5118 137.086 35.4958 135.793 35.4958ZM136.063 27.2746C134.442 27.2746 132.763 27.9886 132.068 29.5714L134.056 30.4006C134.48 29.5714 135.271 29.3002 136.102 29.3002C137.26 29.3002 138.437 29.995 138.456 31.231V31.3846C138.05 31.153 137.183 30.8063 136.121 30.8063C133.979 30.8063 131.797 31.9834 131.797 34.183C131.797 36.1906 133.554 37.4842 135.522 37.4842C137.028 37.4842 137.857 36.8086 138.379 36.0166H138.456V37.1746H140.617V31.4242C140.617 28.7602 138.63 27.2746 136.063 27.2746ZM122.225 29.4286H119.04V24.2866H122.225C123.899 24.2866 124.849 25.6726 124.849 26.857C124.849 28.0198 123.899 29.4286 122.225 29.4286ZM122.167 22.1986H116.802V37.1998H119.04V31.5166H122.167C124.649 31.5166 127.088 29.719 127.088 26.857C127.088 23.995 124.649 22.1986 122.167 22.1986ZM92.91 35.4983C91.3632 35.4983 90.0684 34.2034 90.0684 32.425C90.0684 30.6274 91.3632 29.3122 92.91 29.3122C94.4376 29.3122 95.6352 30.6274 95.6352 32.425C95.6352 34.2034 94.4376 35.4983 92.91 35.4983ZM95.4804 28.4422H95.4036C94.9008 27.8434 93.9348 27.3022 92.7168 27.3022C90.1644 27.3022 87.8256 29.5438 87.8256 32.425C87.8256 35.2858 90.1644 37.5094 92.7168 37.5094C93.9348 37.5094 94.9008 36.9683 95.4036 36.349H95.4804V37.0834C95.4804 39.0371 94.4376 40.0811 92.7552 40.0811C91.3824 40.0811 90.5316 39.0946 90.1836 38.2631L88.2312 39.0754C88.7916 40.429 90.2808 42.091 92.7552 42.091C95.3844 42.091 97.608 40.5443 97.608 36.775V27.6107H95.4804V28.4422ZM99.1548 37.1998H101.398V22.1974H99.1548V37.1998ZM104.702 32.251C104.645 30.2794 106.23 29.2738 107.37 29.2738C108.26 29.2738 109.014 29.7179 109.265 30.3563L104.702 32.251ZM111.662 30.5494C111.238 29.4094 109.942 27.3022 107.293 27.3022C104.664 27.3022 102.48 29.3698 102.48 32.4058C102.48 35.2666 104.645 37.5094 107.544 37.5094C109.884 37.5094 111.238 36.079 111.798 35.2474L110.058 34.087C109.478 34.9378 108.685 35.4983 107.544 35.4983C106.404 35.4983 105.592 34.9763 105.07 33.9527L111.894 31.1302L111.662 30.5494ZM57.2928 28.8682V31.033H62.4732C62.3184 32.251 61.9128 33.1402 61.2948 33.7594C60.54 34.513 59.3604 35.3434 57.2928 35.3434C54.1032 35.3434 51.6084 32.773 51.6084 29.5834C51.6084 26.3926 54.1032 23.8222 57.2928 23.8222C59.0136 23.8222 60.27 24.499 61.1976 25.3691L62.7252 23.8414C61.4292 22.6042 59.7096 21.6562 57.2928 21.6562C52.9236 21.6562 49.2504 25.2142 49.2504 29.5834C49.2504 33.9526 52.9236 37.5094 57.2928 37.5094C59.6508 37.5094 61.4292 36.7367 62.8212 35.2859C64.2516 33.8555 64.6968 31.8454 64.6968 30.2206C64.6968 29.7178 64.6584 29.2546 64.5804 28.8682H57.2928ZM70.5876 35.4983C69.0408 35.4983 67.7064 34.2226 67.7064 32.4058C67.7064 30.5686 69.0408 29.3122 70.5876 29.3122C72.1332 29.3122 73.4676 30.5686 73.4676 32.4058C73.4676 34.2226 72.1332 35.4983 70.5876 35.4983ZM70.5876 27.3022C67.764 27.3022 65.4636 29.4478 65.4636 32.4058C65.4636 35.3434 67.764 37.5094 70.5876 37.5094C73.41 37.5094 75.7104 35.3434 75.7104 32.4058C75.7104 29.4478 73.41 27.3022 70.5876 27.3022ZM81.7632 35.4983C80.2164 35.4983 78.882 34.2226 78.882 32.4058C78.882 30.5686 80.2164 29.3122 81.7632 29.3122C83.31 29.3122 84.6432 30.5686 84.6432 32.4058C84.6432 34.2226 83.31 35.4983 81.7632 35.4983ZM81.7632 27.3022C78.9408 27.3022 76.6404 29.4478 76.6404 32.4058C76.6404 35.3434 78.9408 37.5094 81.7632 37.5094C84.5856 37.5094 86.886 35.3434 86.886 32.4058C86.886 29.4478 84.5856 27.3022 81.7632 27.3022Z" fill="black"/>
<path fill-rule="evenodd" clip-rule="evenodd" d="M69.8148 17.081C70.4136 17.081 70.9716 16.9622 71.484 16.7222C71.9952 16.4846 72.4224 16.1606 72.7632 15.7502L72.8328 15.6662L72.0216 14.855L71.9376 14.951C71.3436 15.6266 70.6464 15.9542 69.8148 15.9566C69.0564 15.9554 68.4312 15.7046 67.9128 15.1958C67.3968 14.6894 67.1399 14.0342 67.1388 13.2002C67.1399 12.3674 67.3968 11.7122 67.9128 11.2046C68.4312 10.6958 69.0564 10.4462 69.8148 10.445C70.6308 10.4462 71.2536 10.733 71.7215 11.315L71.8044 11.417L72.5436 10.7018L72.6252 10.6226L72.5508 10.5374C71.8536 9.72736 70.9284 9.31696 69.8148 9.31935C68.7288 9.31816 67.8024 9.69136 67.0656 10.4306C66.3252 11.1686 65.9532 12.101 65.9544 13.2002C65.9532 14.2994 66.3252 15.2318 67.0656 15.9698C67.8024 16.709 68.7288 17.0822 69.8148 17.081ZM71.9424 15.1154L71.9467 15.1197C71.9739 15.0905 72.0009 15.0607 72.0276 15.0302L71.9424 15.1154ZM72.1125 15.1152L72.0276 15.0302L72.1176 15.1094L72.1125 15.1152ZM71.7324 11.153L71.7382 11.1473C71.7643 11.1772 71.79 11.2078 71.8152 11.2393L71.7324 11.153ZM71.9088 11.165L71.8152 11.2393L71.9015 11.1558L71.9088 11.165Z" fill="black"/>
<path fill-rule="evenodd" clip-rule="evenodd" d="M65.2776 13.2002C65.2788 14.279 64.9116 15.2066 64.1832 15.953C63.456 16.7042 62.5368 17.0822 61.4568 17.081C60.378 17.0822 59.4588 16.7042 58.7316 15.953C58.002 15.2066 57.636 14.279 57.6372 13.2002C57.636 12.1214 58.0032 11.195 58.7328 10.4474C59.46 9.69736 60.378 9.31816 61.4568 9.31936C62.532 9.31816 63.4476 9.69856 64.1784 10.4522C64.9104 11.2022 65.2788 12.1274 65.2776 13.2002ZM59.5872 15.1826C60.1008 15.701 60.714 15.9542 61.4568 15.9566C62.2008 15.9554 62.8152 15.701 63.3276 15.1826C63.8376 14.6642 64.092 14.0126 64.0932 13.2002C64.092 12.3878 63.8376 11.7362 63.3276 11.2178C62.8152 10.6994 62.2008 10.4462 61.4568 10.445C60.714 10.4462 60.1008 10.6994 59.5872 11.2178C59.0772 11.735 58.8228 12.3878 58.8228 13.2002C58.8228 14.0126 59.0772 14.6654 59.5872 15.1826Z" fill="black"/>
<path fill-rule="evenodd" clip-rule="evenodd" d="M50.6567 16.9202V18.4478H49.5323V15.7958H50.3104C50.8626 15.2996 51.1511 14.4567 51.1511 13.2386V9.48016H56.1983V15.7958H57.0023V18.4478H55.8767V16.9202H50.6567ZM52.3163 10.6046H55.0319V15.7958H51.7293C52.1231 15.1206 52.3163 14.2729 52.3163 13.259V10.6046Z" fill="black"/>
<path fill-rule="evenodd" clip-rule="evenodd" d="M76.5324 10.6046V16.9202H75.3672V10.6046H73.356V9.48016H78.5436V10.6046H76.5324Z" fill="black"/>
<path d="M84.9611 9.48016H83.6099L81.9298 13.4739L80.2103 9.48016H78.8579L81.3359 14.9198L81.0971 15.443C81.0023 15.6542 80.9003 15.7898 80.8103 15.8534C80.7227 15.9158 80.5811 15.9566 80.3819 15.9566C80.2355 15.9554 80.0963 15.9182 79.9583 15.8414L79.8251 15.7658L79.5131 16.8698L79.6115 16.9106C79.8779 17.0234 80.1311 17.081 80.3723 17.081C81.1679 17.0846 81.7787 16.6058 82.1615 15.7226L82.1603 15.7238L84.9611 9.48016Z" fill="black"/>
<path fill-rule="evenodd" clip-rule="evenodd" d="M86.868 16.9202H85.704V9.48016H91.152V16.9202H89.9868V10.6046H86.868V16.9202Z" fill="black"/>
<path d="M93.726 16.9202V13.6718H97.086V16.9202H98.2512V9.48016H97.086V12.5666H93.726V9.48016H92.5608V16.9202H93.726Z" fill="black"/>
<path fill-rule="evenodd" clip-rule="evenodd" d="M105.755 15.953C105.028 16.7042 104.108 17.0822 103.028 17.081C101.95 17.0822 101.03 16.7042 100.304 15.953C99.5748 15.2066 99.2088 14.279 99.2088 13.2002C99.2088 12.1214 99.5748 11.195 100.304 10.4474C101.03 9.69736 101.948 9.31816 103.028 9.31936C104.104 9.31816 105.019 9.69856 105.75 10.4522C106.482 11.2022 106.85 12.1274 106.849 13.2002C106.85 14.279 106.483 15.2066 105.755 15.953ZM101.159 15.1826C101.672 15.701 102.286 15.9542 103.028 15.9566C103.772 15.9554 104.387 15.701 104.899 15.1826C105.409 14.6642 105.664 14.0126 105.665 13.2002C105.664 12.3878 105.409 11.7362 104.899 11.2178C104.387 10.6994 103.772 10.4462 103.028 10.445C102.286 10.4462 101.672 10.6994 101.159 11.2178C100.649 11.735 100.396 12.3878 100.393 13.2002C100.396 14.0126 100.649 14.6654 101.159 15.1826Z" fill="black"/>
<path fill-rule="evenodd" clip-rule="evenodd" d="M110.393 16.9202H113.257C113.874 16.9214 114.419 16.7138 114.871 16.3058C115.327 15.8978 115.561 15.3686 115.56 14.7494C115.561 14.3366 115.436 13.9634 115.193 13.649C114.997 13.3955 114.467 13.0672 114.467 13.0672C114.467 13.0672 114.883 12.7534 115.031 12.533C115.223 12.2522 115.319 11.9234 115.319 11.561C115.32 10.9694 115.097 10.4606 114.66 10.0694L114.658 10.067L114.66 10.0682C114.228 9.67817 113.706 9.47897 113.117 9.48016H110.393V16.9202ZM111.557 15.7958V13.6718H113.257C113.6 13.673 113.858 13.7822 114.065 14.0006C114.276 14.2298 114.373 14.465 114.374 14.7278C114.373 14.993 114.278 15.2342 114.073 15.4634C113.873 15.6866 113.626 15.7934 113.298 15.7958H111.557ZM113.117 12.5666H111.557V10.6046H113.158C113.466 10.607 113.694 10.7054 113.876 10.907C114.065 11.1182 114.152 11.3366 114.154 11.5814C114.152 11.825 114.062 12.0446 113.868 12.2594C113.678 12.4658 113.44 12.5654 113.117 12.5666Z" fill="black"/>
<path fill-rule="evenodd" clip-rule="evenodd" d="M12.6119 38.8681L12.5219 38.7817C12.1739 38.4121 11.9675 37.8397 11.9675 37.0957V37.2709V10.7317C11.9675 10.7293 11.9675 10.7281 11.9675 10.7257C11.9675 10.7281 11.9675 10.7305 11.9675 10.7317V10.9081C11.9675 10.1029 12.2075 9.4969 12.6107 9.1333L27.4775 24.0013L12.6119 38.8681ZM11.9675 10.7245C11.9675 10.6585 11.9687 10.5937 11.9723 10.5301C11.9687 10.5937 11.9675 10.6585 11.9675 10.7245Z" fill="url(#paint0_linear)"/>
<path fill-rule="evenodd" clip-rule="evenodd" d="M32.4335 29.134L32.5463 29.0704L38.4179 25.7344C38.9771 25.4164 39.3503 25.03 39.5363 24.622C39.3503 25.03 38.9783 25.4164 38.4179 25.7344L32.5463 29.0704L32.4335 29.134ZM32.4347 28.9588L27.4775 24.0016L32.4347 19.0444L38.4179 22.444C39.1775 22.876 39.6047 23.4328 39.6755 24.0004C39.6755 24.0016 39.6755 24.0016 39.6755 24.0028C39.6047 24.5704 39.1775 25.1272 38.4179 25.5592L32.4347 28.9588Z" fill="url(#paint1_linear)"/>
<path fill-rule="evenodd" clip-rule="evenodd" d="M13.6715 39.4335C13.2563 39.4335 12.8939 39.2991 12.6107 39.0435H12.6119C12.8939 39.2979 13.2575 39.4335 13.6727 39.4335C13.7087 39.4335 13.7447 39.4335 13.7819 39.4311C13.7447 39.4335 13.7075 39.4335 13.6715 39.4335ZM13.6715 39.2583C13.2563 39.2583 12.8939 39.1227 12.6119 38.8683L27.4775 24.0015L32.4347 28.9587L15.0167 38.8551C14.5343 39.1287 14.0783 39.2583 13.6715 39.2583Z" fill="url(#paint2_linear)"/>
<path fill-rule="evenodd" clip-rule="evenodd" d="M27.4775 24.0013L12.6107 9.13334C12.8927 8.87894 13.2551 8.74454 13.6703 8.74454C14.0759 8.74454 14.5331 8.87414 15.0167 9.14774L32.4347 19.0441L27.4775 24.0013ZM32.5463 18.9325L15.0167 8.97254C14.5343 8.69894 14.0759 8.56934 13.6703 8.56934C13.6679 8.56934 13.6667 8.56934 13.6643 8.56934C13.6667 8.56934 13.6691 8.56934 13.6715 8.56934C14.0771 8.56934 14.5343 8.69774 15.0167 8.97254L32.5463 18.9325Z" fill="url(#paint3_linear)"/>
<defs>
<linearGradient id="paint0_linear" x1="19.7225" y1="9.1333" x2="19.7225" y2="38.8681" gradientUnits="userSpaceOnUse">
<stop stop-color="#00C3FF"/>
<stop offset="1" stop-color="#00E3FF"/>
</linearGradient>
<linearGradient id="paint1_linear" x1="33.5765" y1="19.0444" x2="33.5765" y2="29.134" gradientUnits="userSpaceOnUse">
<stop stop-color="#FFC800"/>
<stop offset="1" stop-color="#FFC900"/>
</linearGradient>
<linearGradient id="paint2_linear" x1="29.803" y1="28.7106" x2="7.98357" y2="50.6186" gradientUnits="userSpaceOnUse">
<stop stop-color="#FF3944"/>
<stop offset="1" stop-color="#C31161"/>
</linearGradient>
<linearGradient id="paint3_linear" x1="22.5785" y1="8.56934" x2="22.5785" y2="24.0013" gradientUnits="userSpaceOnUse">
<stop stop-color="#11D574"/>
<stop offset="1" stop-color="#00F076"/>
</linearGradient>
</defs>
</svg>
