<svg width="162" height="48" viewBox="0 0 162 48" fill="none" xmlns="http://www.w3.org/2000/svg">
<path fill-rule="evenodd" clip-rule="evenodd" d="M10.3762 0.00148967L151.232 0C154.976 0 156.334 0.389868 157.703 1.12196C159.072 1.85405 160.146 2.92836 160.878 4.29725L161.03 4.59129C161.664 5.87229 162 7.2914 162 10.7683V37.2317L161.994 37.9984C161.943 41.1701 161.558 42.4316 160.878 43.7028C160.146 45.0716 159.072 46.146 157.703 46.878L157.409 47.0297C156.128 47.6638 154.709 48 151.232 48H10.7683L10.0016 47.994C6.82991 47.9426 5.56836 47.5578 4.29725 46.878C2.92836 46.146 1.85405 45.0716 1.12196 43.7028L0.970336 43.4087C0.336161 42.1277 0 40.7086 0 37.2317V10.7683C0 7.02394 0.389868 5.66614 1.12196 4.29725C1.85405 2.92836 2.92836 1.85405 4.29725 1.12196L4.59129 0.970336C5.82302 0.360553 7.18244 0.0262994 10.3762 0.00148967Z" fill="black"/>
<path fill-rule="evenodd" clip-rule="evenodd" d="M128.323 37.2H130.562V22.1988H128.323V37.2ZM148.492 27.6024L145.925 34.1064H145.848L143.184 27.6024H140.772L144.767 36.6924L142.489 41.7492H144.826L150.982 27.6024H148.492ZM135.793 35.496C135.059 35.496 134.036 35.13 134.036 34.2228C134.036 33.0648 135.311 32.6208 136.41 32.6208C137.395 32.6208 137.857 32.8332 138.456 33.1224C138.282 34.512 137.086 35.496 135.793 35.496ZM136.063 27.2748C134.442 27.2748 132.763 27.9888 132.068 29.5716L134.056 30.4008C134.48 29.5716 135.271 29.3004 136.102 29.3004C137.26 29.3004 138.437 29.9952 138.456 31.2312V31.3848C138.05 31.1532 137.183 30.8064 136.121 30.8064C133.979 30.8064 131.797 31.9836 131.797 34.1832C131.797 36.1908 133.554 37.4844 135.522 37.4844C137.028 37.4844 137.857 36.8088 138.379 36.0168H138.456V37.1748H140.617V31.4244C140.617 28.7604 138.63 27.2748 136.063 27.2748ZM122.225 29.4288H119.04V24.2868H122.225C123.899 24.2868 124.849 25.6728 124.849 26.8572C124.849 28.02 123.899 29.4288 122.225 29.4288ZM122.167 22.1988H116.802V37.2H119.04V31.5168H122.167C124.649 31.5168 127.088 29.7192 127.088 26.8572C127.088 23.9952 124.649 22.1988 122.167 22.1988ZM92.91 35.4984C91.3632 35.4984 90.0684 34.2036 90.0684 32.4252C90.0684 30.6276 91.3632 29.3124 92.91 29.3124C94.4376 29.3124 95.6352 30.6276 95.6352 32.4252C95.6352 34.2036 94.4376 35.4984 92.91 35.4984ZM95.4804 28.4424H95.4036C94.9008 27.8436 93.9348 27.3024 92.7168 27.3024C90.1644 27.3024 87.8256 29.544 87.8256 32.4252C87.8256 35.286 90.1644 37.5096 92.7168 37.5096C93.9348 37.5096 94.9008 36.9684 95.4036 36.3492H95.4804V37.0836C95.4804 39.0372 94.4376 40.0812 92.7552 40.0812C91.3824 40.0812 90.5316 39.0948 90.1836 38.2632L88.2312 39.0756C88.7916 40.4292 90.2808 42.0912 92.7552 42.0912C95.3844 42.0912 97.608 40.5444 97.608 36.7752V27.6108H95.4804V28.4424ZM99.1548 37.2H101.398V22.1976H99.1548V37.2ZM104.702 32.2512C104.645 30.2796 106.23 29.274 107.37 29.274C108.26 29.274 109.014 29.718 109.265 30.3564L104.702 32.2512ZM111.662 30.5496C111.238 29.4096 109.942 27.3024 107.293 27.3024C104.664 27.3024 102.48 29.37 102.48 32.406C102.48 35.2668 104.645 37.5096 107.544 37.5096C109.884 37.5096 111.238 36.0792 111.798 35.2476L110.058 34.0872C109.478 34.938 108.685 35.4984 107.544 35.4984C106.404 35.4984 105.592 34.9764 105.07 33.9528L111.894 31.1304L111.662 30.5496ZM57.2928 28.8684V31.0332H62.4732C62.3184 32.2512 61.9128 33.1404 61.2948 33.7596C60.54 34.5132 59.3604 35.3436 57.2928 35.3436C54.1032 35.3436 51.6084 32.7732 51.6084 29.5836C51.6084 26.3928 54.1032 23.8224 57.2928 23.8224C59.0136 23.8224 60.27 24.4992 61.1976 25.3692L62.7252 23.8416C61.4292 22.6044 59.7096 21.6564 57.2928 21.6564C52.9236 21.6564 49.2504 25.2144 49.2504 29.5836C49.2504 33.9528 52.9236 37.5096 57.2928 37.5096C59.6508 37.5096 61.4292 36.7368 62.8212 35.286C64.2516 33.8556 64.6968 31.8456 64.6968 30.2208C64.6968 29.718 64.6584 29.2548 64.5804 28.8684H57.2928ZM70.5876 35.4984C69.0408 35.4984 67.7064 34.2228 67.7064 32.406C67.7064 30.5688 69.0408 29.3124 70.5876 29.3124C72.1332 29.3124 73.4676 30.5688 73.4676 32.406C73.4676 34.2228 72.1332 35.4984 70.5876 35.4984ZM70.5876 27.3024C67.764 27.3024 65.4636 29.448 65.4636 32.406C65.4636 35.3436 67.764 37.5096 70.5876 37.5096C73.41 37.5096 75.7104 35.3436 75.7104 32.406C75.7104 29.448 73.41 27.3024 70.5876 27.3024ZM81.7632 35.4984C80.2164 35.4984 78.882 34.2228 78.882 32.406C78.882 30.5688 80.2164 29.3124 81.7632 29.3124C83.31 29.3124 84.6432 30.5688 84.6432 32.406C84.6432 34.2228 83.31 35.4984 81.7632 35.4984ZM81.7632 27.3024C78.9408 27.3024 76.6404 29.448 76.6404 32.406C76.6404 35.3436 78.9408 37.5096 81.7632 37.5096C84.5856 37.5096 86.886 35.3436 86.886 32.406C86.886 29.448 84.5856 27.3024 81.7632 27.3024Z" fill="white"/>
<path fill-rule="evenodd" clip-rule="evenodd" d="M69.8148 17.0808C70.4136 17.0808 70.9715 16.962 71.484 16.722C71.9952 16.4844 72.4224 16.1604 72.7632 15.75L72.8328 15.666L72.0215 14.8548L71.9375 14.9508C71.3435 15.6264 70.6464 15.954 69.8148 15.9564C69.0564 15.9552 68.4312 15.7044 67.9128 15.1956C67.3968 14.6892 67.1399 14.034 67.1388 13.2C67.1399 12.3672 67.3968 11.712 67.9128 11.2044C68.4312 10.6956 69.0564 10.446 69.8148 10.4448C70.6308 10.446 71.2535 10.7328 71.7215 11.3148L71.8043 11.4168L72.5436 10.7016L72.6252 10.6224L72.5508 10.5372C71.8536 9.72723 70.9284 9.31683 69.8148 9.31922C68.7288 9.31803 67.8024 9.69123 67.0656 10.4304C66.3252 11.1684 65.9532 12.1008 65.9543 13.2C65.9532 14.2992 66.3252 15.2316 67.0656 15.9696C67.8024 16.7088 68.7288 17.082 69.8148 17.0808ZM71.9424 15.1152L71.9467 15.1196C71.9739 15.0904 72.0009 15.0606 72.0276 15.0301L71.9424 15.1152ZM72.1125 15.1151L72.0276 15.0301L72.1175 15.1092L72.1125 15.1151ZM71.7324 11.1528L71.7382 11.1472C71.7643 11.177 71.79 11.2077 71.8152 11.2392L71.7324 11.1528ZM71.9088 11.1648L71.8152 11.2392L71.9015 11.1557L71.9088 11.1648Z" fill="#FFFFFE"/>
<path fill-rule="evenodd" clip-rule="evenodd" d="M65.2776 13.2C65.2788 14.2788 64.9116 15.2064 64.1832 15.9528C63.456 16.704 62.5368 17.082 61.4568 17.0808C60.378 17.082 59.4588 16.704 58.7316 15.9528C58.002 15.2064 57.636 14.2788 57.6372 13.2C57.636 12.1212 58.0032 11.1948 58.7328 10.4472C59.46 9.69724 60.378 9.31804 61.4568 9.31924C62.532 9.31804 63.4476 9.69844 64.1784 10.452C64.9104 11.202 65.2788 12.1272 65.2776 13.2ZM59.5872 15.1824C60.1008 15.7008 60.714 15.954 61.4568 15.9564C62.2008 15.9552 62.8152 15.7008 63.3276 15.1824C63.8376 14.664 64.092 14.0124 64.0932 13.2C64.092 12.3876 63.8376 11.736 63.3276 11.2176C62.8152 10.6992 62.2008 10.446 61.4568 10.4448C60.714 10.446 60.1008 10.6992 59.5872 11.2176C59.0772 11.7348 58.8228 12.3876 58.8228 13.2C58.8228 14.0124 59.0772 14.6652 59.5872 15.1824Z" fill="#FFFFFE"/>
<path fill-rule="evenodd" clip-rule="evenodd" d="M50.6567 16.92V18.4476H49.5323V15.7956H50.3104C50.8626 15.2995 51.1511 14.4565 51.1511 13.2384V9.48004H56.1983V15.7956H57.0023V18.4476H55.8767V16.92H50.6567ZM52.3163 10.6044H55.0319V15.7956H51.7293C52.1231 15.1205 52.3163 14.2728 52.3163 13.2588V10.6044Z" fill="#FFFFFE"/>
<path fill-rule="evenodd" clip-rule="evenodd" d="M76.5324 10.6044V16.92H75.3672V10.6044H73.356V9.48004H78.5436V10.6044H76.5324Z" fill="#FFFFFE"/>
<path d="M84.9611 9.48004H83.6099L81.9297 13.4738L80.2103 9.48004H78.8579L81.3359 14.9196L81.0971 15.4428C81.0023 15.654 80.9003 15.7896 80.8103 15.8532C80.7227 15.9156 80.5811 15.9564 80.3819 15.9564C80.2355 15.9552 80.0963 15.918 79.9583 15.8412L79.8251 15.7656L79.5131 16.8696L79.6115 16.9104C79.8779 17.0232 80.1311 17.0809 80.3723 17.0809C81.1679 17.0844 81.7787 16.6056 82.1615 15.7224L82.1603 15.7236L84.9611 9.48004Z" fill="#FFFFFE"/>
<path fill-rule="evenodd" clip-rule="evenodd" d="M86.868 16.92H85.704V9.48004H91.152V16.92H89.9868V10.6044H86.868V16.92Z" fill="#FFFFFE"/>
<path d="M93.726 16.92V13.6716H97.086V16.92H98.2512V9.48004H97.086V12.5664H93.726V9.48004H92.5608V16.92H93.726Z" fill="#FFFFFE"/>
<path fill-rule="evenodd" clip-rule="evenodd" d="M105.755 15.9528C105.028 16.704 104.108 17.082 103.028 17.0808C101.95 17.082 101.03 16.704 100.304 15.9528C99.5748 15.2064 99.2088 14.2788 99.2088 13.2C99.2088 12.1212 99.5748 11.1948 100.304 10.4472C101.03 9.69724 101.948 9.31804 103.028 9.31924C104.104 9.31804 105.019 9.69844 105.75 10.452C106.482 11.202 106.85 12.1272 106.849 13.2C106.85 14.2788 106.483 15.2064 105.755 15.9528ZM101.159 15.1824C101.672 15.7008 102.286 15.954 103.028 15.9564C103.772 15.9552 104.387 15.7008 104.899 15.1824C105.409 14.664 105.664 14.0124 105.665 13.2C105.664 12.3876 105.409 11.736 104.899 11.2176C104.387 10.6992 103.772 10.446 103.028 10.4448C102.286 10.446 101.672 10.6992 101.159 11.2176C100.649 11.7348 100.396 12.3876 100.393 13.2C100.396 14.0124 100.649 14.6652 101.159 15.1824Z" fill="#FFFFFE"/>
<path fill-rule="evenodd" clip-rule="evenodd" d="M110.393 16.92H113.257C113.874 16.9212 114.419 16.7136 114.871 16.3056C115.327 15.8976 115.561 15.3684 115.56 14.7492C115.561 14.3364 115.436 13.9632 115.193 13.6488C114.997 13.3954 114.467 13.0671 114.467 13.0671C114.467 13.0671 114.883 12.7533 115.031 12.5328C115.223 12.252 115.319 11.9232 115.319 11.5608C115.32 10.9692 115.097 10.4604 114.66 10.0692L114.658 10.0668L114.66 10.068C114.228 9.67804 113.706 9.47885 113.117 9.48004H110.393V16.92ZM111.557 15.7956V13.6716H113.257C113.6 13.6728 113.858 13.782 114.065 14.0004C114.276 14.2296 114.373 14.4648 114.374 14.7276C114.373 14.9928 114.278 15.234 114.073 15.4632C113.873 15.6864 113.626 15.7932 113.298 15.7956H111.557ZM113.117 12.5664H111.557V10.6044H113.158C113.466 10.6068 113.694 10.7052 113.876 10.9068C114.065 11.118 114.152 11.3364 114.154 11.5812C114.152 11.8248 114.062 12.0444 113.868 12.2592C113.678 12.4656 113.44 12.5652 113.117 12.5664Z" fill="#FFFFFE"/>
<path fill-rule="evenodd" clip-rule="evenodd" d="M12.6121 38.868L12.5221 38.7816C12.1741 38.412 11.9677 37.8396 11.9677 37.0956V37.2708V10.7316C11.9677 10.7292 11.9677 10.728 11.9677 10.7256C11.9677 10.728 11.9677 10.7304 11.9677 10.7316V10.908C11.9677 10.1028 12.2077 9.49678 12.6109 9.13318L27.4777 24.0012L12.6121 38.868ZM11.9677 10.7244C11.9677 10.6584 11.9689 10.5936 11.9725 10.53C11.9689 10.5936 11.9677 10.6584 11.9677 10.7244Z" fill="url(#paint0_linear)"/>
<path fill-rule="evenodd" clip-rule="evenodd" d="M32.4337 29.1336L32.5465 29.07L38.4181 25.734C38.9773 25.416 39.3505 25.0296 39.5365 24.6216C39.3505 25.0296 38.9785 25.416 38.4181 25.734L32.5465 29.07L32.4337 29.1336ZM32.4349 28.9584L27.4777 24.0012L32.4349 19.044L38.4181 22.4436C39.1777 22.8756 39.6049 23.4324 39.6757 24C39.6757 24.0012 39.6757 24.0012 39.6757 24.0024C39.6049 24.57 39.1777 25.1268 38.4181 25.5588L32.4349 28.9584Z" fill="url(#paint1_linear)"/>
<path fill-rule="evenodd" clip-rule="evenodd" d="M13.6716 39.4332C13.2564 39.4332 12.894 39.2988 12.6108 39.0432H12.612C12.894 39.2976 13.2576 39.4332 13.6728 39.4332C13.7088 39.4332 13.7448 39.4332 13.782 39.4308C13.7448 39.4332 13.7076 39.4332 13.6716 39.4332ZM13.6716 39.258C13.2564 39.258 12.894 39.1224 12.612 38.868L27.4776 24.0012L32.4348 28.9584L15.0168 38.8548C14.5344 39.1284 14.0784 39.258 13.6716 39.258Z" fill="url(#paint2_linear)"/>
<path fill-rule="evenodd" clip-rule="evenodd" d="M27.4776 24.0012L12.6108 9.13321C12.8928 8.87881 13.2552 8.74441 13.6704 8.74441C14.076 8.74441 14.5332 8.87401 15.0168 9.14761L32.4348 19.044L27.4776 24.0012ZM32.5464 18.9324L15.0168 8.97241C14.5344 8.69881 14.076 8.56921 13.6704 8.56921C13.668 8.56921 13.6668 8.56921 13.6644 8.56921C13.6668 8.56921 13.6692 8.56921 13.6716 8.56921C14.0772 8.56921 14.5344 8.69761 15.0168 8.97241L32.5464 18.9324Z" fill="url(#paint3_linear)"/>
<defs>
<linearGradient id="paint0_linear" x1="19.7227" y1="9.13318" x2="19.7227" y2="38.868" gradientUnits="userSpaceOnUse">
<stop stop-color="#00C3FF"/>
<stop offset="1" stop-color="#00E3FF"/>
</linearGradient>
<linearGradient id="paint1_linear" x1="33.5767" y1="19.044" x2="33.5767" y2="29.1336" gradientUnits="userSpaceOnUse">
<stop stop-color="#FFC800"/>
<stop offset="1" stop-color="#FFC900"/>
</linearGradient>
<linearGradient id="paint2_linear" x1="29.8031" y1="28.7104" x2="7.98369" y2="50.6183" gradientUnits="userSpaceOnUse">
<stop stop-color="#FF3944"/>
<stop offset="1" stop-color="#C31161"/>
</linearGradient>
<linearGradient id="paint3_linear" x1="22.5786" y1="8.56921" x2="22.5786" y2="24.0012" gradientUnits="userSpaceOnUse">
<stop stop-color="#11D574"/>
<stop offset="1" stop-color="#00F076"/>
</linearGradient>
</defs>
</svg>
