<svg width="64" height="64" viewBox="0 0 64 64" fill="none" xmlns="http://www.w3.org/2000/svg">
<g clip-path="url(#clip0)">
<path fill-rule="evenodd" clip-rule="evenodd" d="M55.4429 13.3379C54.2784 13.0095 52.8231 13 49.5 13H25.5C22.1768 13 20.7216 13.0095 19.557 13.3379C16.5432 14.1879 14.1879 16.5433 13.3379 19.5571C13.0095 20.7216 13 22.1769 13 25.5C13 26.4874 13.0008 27.3098 13.0106 28.0088C12.2297 28.0184 11.578 28.0386 11.0102 28.081C10.9999 27.3838 10.9999 26.6003 11 25.7051L11 25.5L11 25.295C10.9998 22.2345 10.9997 20.4797 11.413 19.0142C12.4518 15.3306 15.3306 12.4519 19.0141 11.413C20.4796 10.9997 22.2345 10.9998 25.295 11L25.5 11H49.5L49.705 11C52.7655 10.9998 54.5203 10.9997 55.9858 11.413C59.6694 12.4519 62.5481 15.3306 63.587 19.0142C64.0003 20.4797 64.0002 22.2345 64 25.295L64 25.5L64 25.705C64.0002 28.7655 64.0003 30.5204 63.587 31.9859C62.9878 34.1105 61.7764 35.9674 60.1518 37.3578C60.6473 38.9108 61.2604 40.1087 61.766 40.9367C62.0518 41.4048 62.3029 41.754 62.4781 41.9815C62.5656 42.0951 62.6342 42.1782 62.6785 42.2304C62.7006 42.2565 62.7167 42.2749 62.7261 42.2854L62.7338 42.2941L62.7342 42.2945L62.7348 42.2952L62.7354 42.2959C62.9881 42.5701 63.0673 42.9623 62.9405 43.3132C62.8134 43.665 62.5005 43.9165 62.1296 43.965L62 42.9734C62.1296 43.965 62.1291 43.9651 62.1285 43.9651L62.1274 43.9653L62.1248 43.9656L62.1184 43.9664L62.1011 43.9684C62.0875 43.97 62.07 43.9719 62.0485 43.9739C62.0056 43.9781 61.9471 43.983 61.8737 43.9874C61.727 43.9962 61.521 44.0032 61.2624 43.9985C60.7454 43.9891 60.0173 43.9329 59.1332 43.751C57.7321 43.4627 55.9478 42.8602 53.9997 41.6389C53.9988 40.6861 53.9946 39.8886 53.9758 39.2018C56.1393 40.8062 58.1091 41.4984 59.5362 41.792C59.6967 41.8251 59.8505 41.8531 59.9971 41.8768C59.3565 40.8098 58.5974 39.2671 58.0379 37.2692C57.9266 36.872 58.0707 36.4472 58.4007 36.1996C59.9569 35.032 61.1179 33.3724 61.6621 31.443C61.9905 30.2784 62 28.8232 62 25.5C62 22.1769 61.9905 20.7216 61.6621 19.5571C60.8121 16.5433 58.4567 14.1879 55.4429 13.3379Z" fill="#1D1D1F"/>
<path d="M2.37545 36.2856L1.41299 36.0142H1.41299L2.37545 36.2856ZM2.37545 48.7144L1.41299 48.9858L2.37545 48.7144ZM5.17836 53.312L6.15041 53.5468C6.23512 53.1961 6.12435 52.827 5.86055 52.5808L5.17836 53.312ZM2 59.9734L1.26657 59.2936C1.01228 59.568 0.932388 59.9614 1.0595 60.3132C1.1866 60.665 1.49945 60.9165 1.87039 60.965L2 59.9734ZM10.9651 56.7428L11.579 57.5322H11.579L10.9651 56.7428ZM11.8123 55.9594L11.8547 54.9603C11.5558 54.9476 11.2669 55.0694 11.0674 55.2923L11.8123 55.9594ZM45.7144 55.6246L45.443 54.6621H45.443L45.7144 55.6246ZM52.6246 48.7144L53.587 48.9858V48.9858L52.6246 48.7144ZM52.6246 36.2856L53.587 36.0142V36.0142L52.6246 36.2856ZM45.7144 29.3754L45.9858 28.413L45.9858 28.413L45.7144 29.3754ZM9.2856 29.3754L9.01415 28.413V28.413L9.2856 29.3754ZM3 42.5C3 39.1768 3.00946 37.7216 3.3379 36.557L1.41299 36.0142C0.990536 37.5121 1 39.3123 1 42.5H3ZM3.3379 48.443C3.00946 47.2784 3 45.8232 3 42.5H1C1 45.6877 0.990536 47.4879 1.41299 48.9858L3.3379 48.443ZM5.86055 52.5808C4.67586 51.4755 3.79206 50.0533 3.3379 48.443L1.41299 48.9858C1.96808 50.954 3.04859 52.6926 4.49617 54.0432L5.86055 52.5808ZM2 59.9734C2.73343 60.6532 2.73367 60.6529 2.73392 60.6527C2.73401 60.6525 2.73427 60.6523 2.73446 60.6521C2.73483 60.6517 2.73524 60.6512 2.73568 60.6507C2.73657 60.6498 2.73758 60.6487 2.73872 60.6474C2.74099 60.645 2.74378 60.6419 2.74706 60.6383C2.75363 60.631 2.76219 60.6215 2.77263 60.6097C2.79353 60.5861 2.82199 60.5535 2.85723 60.5117C2.9277 60.4283 3.02533 60.3086 3.14375 60.1531C3.38053 59.8421 3.70091 59.3872 4.05368 58.7915C4.75918 57.6001 5.59582 55.8429 6.15041 53.5468L4.20632 53.0772C3.70505 55.1525 2.9525 56.7259 2.33279 57.7724C2.02295 58.2956 1.74671 58.6865 1.55253 58.9415C1.45547 59.069 1.37903 59.1623 1.3293 59.2212C1.30444 59.2507 1.28627 59.2714 1.27555 59.2835C1.2702 59.2896 1.26671 59.2935 1.26518 59.2951C1.26441 59.296 1.26414 59.2963 1.26437 59.296C1.26448 59.2959 1.26472 59.2956 1.26509 59.2952C1.26527 59.295 1.26549 59.2948 1.26574 59.2945C1.26586 59.2944 1.26607 59.2942 1.26613 59.2941C1.26635 59.2939 1.26657 59.2936 2 59.9734ZM10.3511 55.9535C8.0596 57.7357 5.9625 58.4836 4.46376 58.792C3.71234 58.9466 3.10783 58.9914 2.70111 58.9988C2.4978 59.0025 2.34416 58.9969 2.24664 58.991C2.19789 58.9881 2.16322 58.9851 2.14343 58.9832C2.13354 58.9822 2.12737 58.9815 2.12503 58.9813C2.12386 58.9811 2.12365 58.9811 2.12441 58.9812C2.12479 58.9812 2.12541 58.9813 2.12628 58.9814C2.12671 58.9815 2.12721 58.9815 2.12776 58.9816C2.12804 58.9816 2.1285 58.9817 2.12864 58.9817C2.12912 58.9818 2.12961 58.9818 2 59.9734C1.87039 60.965 1.87091 60.965 1.87145 60.9651C1.87165 60.9651 1.87221 60.9652 1.87261 60.9653C1.87342 60.9654 1.87429 60.9655 1.87523 60.9656C1.87709 60.9658 1.87922 60.9661 1.8816 60.9664C1.88635 60.967 1.89212 60.9677 1.89889 60.9684C1.91244 60.97 1.92999 60.9719 1.95145 60.9739C1.99437 60.9781 2.05292 60.983 2.12627 60.9874C2.27295 60.9962 2.47897 61.0032 2.73754 60.9985C3.25459 60.9891 3.98272 60.9329 4.86682 60.751C6.63912 60.3863 9.02455 59.5189 11.579 57.5322L10.3511 55.9535ZM11.0674 55.2923C10.871 55.5115 10.6348 55.7329 10.3511 55.9535L11.579 57.5322C11.9498 57.2438 12.2751 56.9415 12.5572 56.6266L11.0674 55.2923ZM15.5 55C13.9412 55 12.7845 54.9998 11.8547 54.9603L11.7699 56.9585C12.7518 57.0002 13.9577 57 15.5 57V55ZM39.5 55H15.5V57H39.5V55ZM45.443 54.6621C44.2784 54.9905 42.8232 55 39.5 55V57C42.6877 57 44.4879 57.0095 45.9858 56.587L45.443 54.6621ZM51.6621 48.443C50.8121 51.4568 48.4568 53.8121 45.443 54.6621L45.9858 56.587C49.6694 55.5481 52.5481 52.6694 53.587 48.9858L51.6621 48.443ZM52 42.5C52 45.8232 51.9905 47.2784 51.6621 48.443L53.587 48.9858C54.0095 47.4879 54 45.6877 54 42.5H52ZM51.6621 36.557C51.9905 37.7216 52 39.1768 52 42.5H54C54 39.3123 54.0095 37.5121 53.587 36.0142L51.6621 36.557ZM45.443 30.3379C48.4568 31.1879 50.8121 33.5432 51.6621 36.557L53.587 36.0142C52.5481 32.3306 49.6694 29.4519 45.9858 28.413L45.443 30.3379ZM39.5 30C42.8232 30 44.2784 30.0095 45.443 30.3379L45.9858 28.413C44.4879 27.9905 42.6877 28 39.5 28V30ZM15.5 30H39.5V28H15.5V30ZM9.55704 30.3379C10.7216 30.0095 12.1768 30 15.5 30V28C12.3123 28 10.5121 27.9905 9.01415 28.413L9.55704 30.3379ZM3.3379 36.557C4.18788 33.5432 6.54324 31.1879 9.55704 30.3379L9.01415 28.413C5.33063 29.4519 2.45185 32.3306 1.41299 36.0142L3.3379 36.557Z" fill="#1D1D1F"/>
<path d="M12.2949 47H10.5723V39.9043H8.04102V47H6.31836V38.4688H12.2949V47Z" fill="#1D1D1F"/>
<path d="M16.0121 44V47H14.2895V38.4688H17.1957C18.0395 38.4688 18.7113 38.7305 19.2113 39.2539C19.7152 39.7773 19.9672 40.457 19.9672 41.293C19.9672 42.1289 19.7191 42.7891 19.223 43.2734C18.727 43.7578 18.0395 44 17.1605 44H16.0121ZM16.0121 42.5645H17.1957C17.5238 42.5645 17.7777 42.457 17.9574 42.2422C18.1371 42.0273 18.227 41.7148 18.227 41.3047C18.227 40.8789 18.1352 40.541 17.9516 40.291C17.768 40.0371 17.5219 39.9082 17.2133 39.9043H16.0121V42.5645Z" fill="#1D1D1F"/>
<path d="M25.8992 38.4688H27.6219V47H25.8992V41.3516L23.3855 47H21.657V38.4688H23.3855V44.123L25.8992 38.4688Z" fill="#1D1D1F"/>
<path d="M29.5988 47V38.4688H32.2355C33.1262 38.4688 33.802 38.668 34.2629 39.0664C34.7277 39.4609 34.9602 40.041 34.9602 40.8066C34.9602 41.2402 34.8645 41.6133 34.673 41.9258C34.4816 42.2383 34.2199 42.4668 33.8879 42.6113C34.2707 42.7207 34.5656 42.9414 34.7727 43.2734C34.9797 43.6016 35.0832 44.0078 35.0832 44.4922C35.0832 45.3203 34.8547 45.9453 34.3977 46.3672C33.9445 46.7891 33.2863 47 32.423 47H29.5988ZM31.3215 43.291V45.5703H32.423C32.7316 45.5703 32.966 45.4746 33.1262 45.2832C33.2863 45.0918 33.3664 44.8203 33.3664 44.4688C33.3664 43.7031 33.0891 43.3105 32.5344 43.291H31.3215ZM31.3215 42.0371H32.218C32.8937 42.0371 33.2316 41.6875 33.2316 40.9883C33.2316 40.6016 33.1535 40.3242 32.9973 40.1562C32.841 39.9883 32.5871 39.9043 32.2355 39.9043H31.3215V42.0371Z" fill="#1D1D1F"/>
<path d="M41.3434 43.3086H38.6598V45.5703H41.8355V47H36.9371V38.4688H41.8238V39.9043H38.6598V41.9199H41.3434V43.3086Z" fill="#1D1D1F"/>
<path d="M49.0742 39.9043H46.9648V47H45.2363V39.9043H43.1621V38.4688H49.0742V39.9043Z" fill="#1D1D1F"/>
</g>
<defs>
<clipPath id="clip0">
<rect width="64" height="64" fill="white"/>
</clipPath>
</defs>
</svg>
