<svg width="50" height="50" viewBox="0 0 50 50" fill="none" xmlns="http://www.w3.org/2000/svg">
<path d="M0 17.3333C0 11.2661 0 8.23248 1.18076 5.9151C2.21939 3.87668 3.87668 2.21939 5.9151 1.18076C8.23248 0 11.2661 0 17.3333 0H32.6667C38.7339 0 41.7675 0 44.0849 1.18076C46.1233 2.21939 47.7806 3.87668 48.8192 5.9151C50 8.23248 50 11.2661 50 17.3333V32.6667C50 38.7339 50 41.7675 48.8192 44.0849C47.7806 46.1233 46.1233 47.7806 44.0849 48.8192C41.7675 50 38.7339 50 32.6667 50H17.3333C11.2661 50 8.23248 50 5.9151 48.8192C3.87668 47.7806 2.21939 46.1233 1.18076 44.0849C0 41.7675 0 38.7339 0 32.6667V17.3333Z" fill="white"/>
<path d="M0.5 17.3333C0.5 14.2915 0.500389 12.0401 0.645935 10.2587C0.791004 8.48318 1.07778 7.21855 1.62627 6.1421C2.61696 4.19776 4.19776 2.61696 6.1421 1.62627C7.21855 1.07778 8.48318 0.791004 10.2587 0.645935C12.0401 0.500389 14.2915 0.5 17.3333 0.5H32.6667C35.7085 0.5 37.9599 0.500389 39.7413 0.645935C41.5168 0.791004 42.7814 1.07779 43.8579 1.62627C45.8022 2.61696 47.383 4.19776 48.3737 6.1421C48.9222 7.21855 49.209 8.48318 49.3541 10.2587C49.4996 12.0401 49.5 14.2915 49.5 17.3333V32.6667C49.5 35.7085 49.4996 37.9599 49.3541 39.7413C49.209 41.5168 48.9222 42.7814 48.3737 43.8579C47.383 45.8022 45.8022 47.383 43.8579 48.3737C42.7814 48.9222 41.5168 49.209 39.7413 49.3541C37.9599 49.4996 35.7085 49.5 32.6667 49.5H17.3333C14.2915 49.5 12.0401 49.4996 10.2587 49.3541C8.48318 49.209 7.21855 48.9222 6.1421 48.3737C4.19776 47.383 2.61696 45.8022 1.62627 43.8579C1.07779 42.7814 0.791004 41.5168 0.645935 39.7413C0.500389 37.9599 0.5 35.7085 0.5 32.6667V17.3333Z" stroke="black" stroke-opacity="0.1"/>
<path d="M33.4543 45.2211C42.5785 45.6526 43.4985 37.6752 40.8257 33.0297C38.2364 28.5293 34.3525 26.988 28.0711 27.5792C21.7896 28.1704 28.0981 38.4039 32.4075 37.6534C34.3627 37.3129 32.6661 45.1838 33.4543 45.2211Z" fill="white" stroke="black" stroke-width="1.25"/>
<path d="M16.5453 45.2211C7.42119 45.6526 6.50119 37.6752 9.17394 33.0297C11.7632 28.5293 15.6472 26.988 21.9286 27.5792C28.21 28.1704 21.9016 38.4039 17.5921 37.6534C15.637 37.3129 17.3336 45.1838 16.5453 45.2211Z" fill="white" stroke="black" stroke-width="1.25"/>
<path d="M26.1422 4.77892C29.261 4.77892 31.2864 5.28017 33.0443 6.22141C34.8023 7.16266 36.182 8.5439 37.1221 10.3039C38.0522 12.0449 38.5522 14.0479 38.563 17.1136V18.9765C38.563 22.099 38.0623 24.1266 37.1221 25.8866C36.182 27.6466 34.8023 29.0278 33.0443 29.9691C31.2864 30.9103 29.261 31.4116 26.1422 31.4116H23.858C20.7391 31.4116 18.7137 30.9103 16.9558 29.9691C15.1978 29.0278 13.8181 27.6466 12.878 25.8866C11.9378 24.1266 11.4371 22.099 11.4371 18.9765V17.214C11.4371 14.0915 11.9378 12.0639 12.878 10.3039C13.8181 8.5439 15.1978 7.16266 16.9558 6.22141C18.6948 5.29029 20.6956 4.78975 23.7577 4.77892H26.1422Z" fill="white" stroke="black" stroke-width="1.25"/>
<path d="M23.3487 12.4235H26.6513C28.3245 12.4235 29.6208 12.732 30.7088 13.3113C31.7967 13.8907 32.6506 14.7409 33.2324 15.8241C33.8143 16.9074 34.1241 18.1981 34.1241 19.8641V20.2719C34.1241 21.9379 33.8143 23.2286 33.2324 24.3119C32.6506 25.3952 31.7967 26.2454 30.7088 26.8247C29.6208 27.4041 28.3245 27.7126 26.6513 27.7126H23.3487C21.6755 27.7126 20.3792 27.4041 19.2912 26.8247C18.2033 26.2454 17.3494 25.3952 16.7676 24.3119C16.1857 23.2286 15.8759 21.9379 15.8759 20.2719V19.8641C15.8759 18.1981 16.1857 16.9074 16.7676 15.8241C17.3494 14.7409 18.2033 13.8907 19.2912 13.3113C20.3792 12.732 21.6755 12.4235 23.3487 12.4235Z" fill="white" stroke="black" stroke-width="1.25"/>
<path d="M19.205 22.1641C20.2945 22.1641 21.1778 21.2809 21.1778 20.1913C21.1778 19.1018 20.2945 18.2185 19.205 18.2185C18.1154 18.2185 17.2322 19.1018 17.2322 20.1913C17.2322 21.2809 18.1154 22.1641 19.205 22.1641Z" fill="black"/>
<path d="M30.7951 22.1641C31.8846 22.1641 32.7678 21.2809 32.7678 20.1913C32.7678 19.1018 31.8846 18.2185 30.7951 18.2185C29.7055 18.2185 28.8223 19.1018 28.8223 20.1913C28.8223 21.2809 29.7055 22.1641 30.7951 22.1641Z" fill="black"/>
<path d="M22.9039 19.8214C22.9039 20.911 23.8424 21.7942 25 21.7942C26.1577 21.7942 27.0961 20.911 27.0961 19.8214" stroke="black" stroke-width="1.25" stroke-linecap="round"/>
<path d="M11.4045 12.4594C11.9942 12.5427 12.5057 12.7561 12.9164 13.0695C13.3272 13.3828 13.6372 13.7962 13.8237 14.2793C14.0103 14.7624 14.0735 15.3152 13.9906 15.9077L13.9152 16.4472C13.8323 17.0397 13.6199 17.5536 13.308 17.9663C12.9962 18.3791 12.5848 18.6905 12.104 18.878C11.6232 19.0655 11.073 19.1289 10.4833 19.0457C9.89368 18.9624 9.38217 18.749 8.97142 18.4356C8.56068 18.1223 8.2507 17.7089 8.06413 17.2258C7.87755 16.7427 7.81438 16.1899 7.89725 15.5974L7.97271 15.0579C8.05558 14.4654 8.26797 13.9515 8.57984 13.5388C8.89171 13.126 9.30307 12.8146 9.78386 12.6271C10.2647 12.4396 10.8149 12.3762 11.4045 12.4594Z" fill="white" stroke="black" stroke-width="1.25"/>
<path d="M10.6447 14.5287L10.3694 16.3074" stroke="#D8D8D8" stroke-width="1.62755" stroke-linecap="round" stroke-linejoin="round"/>
<path d="M38.5828 12.4585C37.9949 12.5393 37.4854 12.7457 37.0767 13.0488C36.6679 13.3519 36.3598 13.7518 36.1745 14.2196C35.9893 14.6875 35.9268 15.2233 36.0095 15.7982L36.1146 16.5299C36.1972 17.1049 36.4082 17.6031 36.7182 18.0029C37.0281 18.4026 37.437 18.704 37.9154 18.8852C38.3937 19.0664 38.9416 19.1274 39.5295 19.0466C40.1174 18.9658 40.6268 18.7594 41.0356 18.4563C41.4443 18.1532 41.7525 17.7533 41.9377 17.2855C42.123 16.8176 42.1854 16.2818 42.1028 15.7068L41.9976 14.9752C41.915 14.4002 41.704 13.902 41.3941 13.5022C41.0841 13.1025 40.6752 12.8011 40.1969 12.6199C39.7185 12.4387 39.1707 12.3777 38.5828 12.4585Z" fill="white" stroke="black" stroke-width="1.25"/>
<path d="M39.3524 14.5287L39.6277 16.3074" stroke="#D8D8D8" stroke-width="1.62755" stroke-linecap="round" stroke-linejoin="round"/>
<path d="M25 25.2466C19.0753 25.2466 14.2729 30.0495 14.2729 35.9736C14.2729 41.8978 19.0758 46.7007 25 46.7007C30.9242 46.7007 35.727 41.8978 35.727 35.9736C35.727 30.0495 30.9249 25.2466 25 25.2466Z" fill="#07A6B3"/>
<path d="M25 25.2466C19.0753 25.2466 14.2729 30.0495 14.2729 35.9736C14.2729 41.8978 19.0758 46.7007 25 46.7007C30.9242 46.7007 35.727 41.8978 35.727 35.9736C35.727 30.0495 30.9249 25.2466 25 25.2466Z" stroke="black" stroke-width="1.25"/>
<path d="M18.6791 33.5521L21.5943 34.792C21.5849 34.8327 21.5729 34.8861 21.5594 34.946C21.4722 35.23 21.4209 35.5237 21.4066 35.8204C21.4003 35.8791 21.3981 35.9383 21.4 35.9974L21.4026 36.0381C21.4157 37.1222 21.9207 38.1418 22.7756 38.8103C23.6305 39.4788 24.743 39.7238 25.8003 39.4766L27.4575 42.2863C26.6772 42.597 25.8447 42.7562 25.0047 42.7551C21.3511 42.7551 18.2185 39.7978 18.2185 36.1488C18.2185 35.2921 18.3817 34.3033 18.6791 33.5521ZM25.0054 29.1922C28.659 29.1922 31.7814 32.2043 31.7814 35.8523C31.7808 36.775 31.669 37.6955 31.3366 38.4983L31.2668 38.6568L23.8669 35.5262L28.6136 35.5056C28.4431 33.7865 26.6736 32.3891 25.0049 32.3891C24.6265 32.3888 24.2507 32.4514 23.8928 32.5743L22.2505 29.7903C23.1149 29.3949 24.0546 29.1908 25.0054 29.1922Z" fill="white"/>
<path d="M13.5291 42.9674L12.7291 40.7234C12.12 39.0151 13.0317 37.143 14.7653 36.5419L14.8043 36.5286C16.5734 35.9394 18.4937 36.8614 19.1125 38.5973L19.9125 40.8413C20.5216 42.5495 19.6099 44.4217 17.8763 45.0227L17.8373 45.036C16.0682 45.6252 14.1479 44.7032 13.5291 42.9674Z" fill="white" stroke="black" stroke-width="1.25"/>
<path d="M18.6994 38.4764L16.2458 39.3027" stroke="black" stroke-width="1.25" stroke-linecap="round"/>
<path d="M19.6298 40.5562L17.187 41.4147" stroke="black" stroke-width="1.25" stroke-linecap="round"/>
<path d="M36.4977 42.9674L37.2977 40.7234C37.9067 39.0151 36.995 37.143 35.2614 36.5419L35.2224 36.5286C33.4533 35.9394 31.533 36.8614 30.9142 38.5973L30.1142 40.8413C29.5052 42.5495 30.4168 44.4217 32.1505 45.0227L32.1895 45.036C33.9586 45.6252 35.8788 44.7032 36.4977 42.9674Z" fill="white" stroke="black" stroke-width="1.25"/>
<path d="M31.3273 38.4764L33.781 39.3027" stroke="black" stroke-width="1.25" stroke-linecap="round"/>
<path d="M30.3969 40.5562L32.8397 41.4147" stroke="black" stroke-width="1.25" stroke-linecap="round"/>
</svg>
