<svg width="23" height="18" viewBox="0 0 23 18" fill="none" xmlns="http://www.w3.org/2000/svg">
<path d="M0 9.95801C0 14.502 3.05078 17.542 8.07812 17.542H10.4199C12.9014 17.542 14.3408 16.3711 14.373 14.3838C15.1572 14.1367 15.6406 13.4814 15.6406 12.5898C15.6406 12.2568 15.5762 11.9453 15.4795 11.6445C16.3389 11.3652 16.876 10.6562 16.876 9.72168C16.876 9.47461 16.8438 9.2168 16.7578 8.95898H20.335C21.6992 8.95898 22.6016 8.05664 22.6016 6.78906C22.6016 5.51074 21.6992 4.6084 20.335 4.6084H11.376C11.3223 4.6084 11.2793 4.57617 11.2793 4.52246C11.2793 4.47949 11.3115 4.44727 11.3545 4.43652L13.0732 3.7168C13.9111 3.3623 14.3516 2.72852 14.3623 1.96582C14.3623 0.923828 13.6963 0 12.5146 0C12.1924 0 11.7627 0.0751953 11.3867 0.193359L6.06934 2.08398C2.04102 3.52344 0 6.16602 0 9.95801ZM1.48242 10.0117C1.48242 7.00391 2.86816 4.71582 6.53125 3.40527L11.8379 1.50391C11.999 1.43945 12.1279 1.40723 12.3213 1.40723C12.6973 1.40723 13.0088 1.68652 13.0088 2.12695C13.0088 2.48145 12.7939 2.69629 12.4287 2.85742L9.16309 4.31836C8.62598 4.55469 8.4541 4.8877 8.4541 5.27441C8.4541 5.71484 8.80859 6.03711 9.30273 6.03711H20.4316C20.8936 6.03711 21.2158 6.34863 21.2158 6.78906C21.2158 7.24023 20.8936 7.53027 20.4316 7.53027H12.4824C12.1064 7.53027 11.8271 7.85254 11.8271 8.22852C11.8271 8.59375 12.1064 8.89453 12.4824 8.89453H15.3398C15.4365 9.07715 15.4902 9.32422 15.4902 9.53906C15.4902 10.0762 15.1357 10.3984 14.5771 10.3984H12.0742C11.6768 10.3984 11.4189 10.7207 11.4189 11.0859C11.4189 11.4404 11.6768 11.7627 12.0742 11.7627H14.1045C14.2012 11.9453 14.2549 12.1924 14.2549 12.4072C14.2549 12.9443 13.9004 13.2666 13.3418 13.2666H11.666C11.2686 13.2666 11 13.5889 11 13.9541C11 14.3086 11.2686 14.6309 11.666 14.6309H12.9014C12.9014 15.5869 11.9131 16.124 10.2051 16.124H8.25C3.93164 16.124 1.48242 13.8145 1.48242 10.0117Z" fill="#5F6368"/>
</svg>
