<svg width="64" height="64" viewBox="0 0 64 64" fill="none" xmlns="http://www.w3.org/2000/svg">
<path d="M44.0058 14.4993L44.6744 13.7556L44.0058 14.4993C44.3638 14.8211 44.6391 15.2245 44.8084 15.6751C44.9846 16.1443 45 16.7113 45 18.3682V29.1657C45 35.5629 44.9896 38.5508 44.1633 41.2422C43.4227 43.6547 42.2089 45.8955 40.5927 47.8337C38.7897 49.9961 36.2927 51.637 30.9343 55.1316L25.9498 58.3823C24.6204 59.2494 24.1578 59.534 23.6873 59.6447C23.2353 59.7511 22.7647 59.7511 22.3127 59.6447C21.8422 59.534 21.3796 59.2494 20.0502 58.3823L15.0657 55.1316C9.70729 51.637 7.2103 49.9961 5.4073 47.8337C3.79115 45.8955 2.57732 43.6547 1.83668 41.2422C1.0104 38.5508 1 35.5629 1 29.1657V18.3682C1 16.7113 1.01539 16.1443 1.19162 15.6751C1.36091 15.2245 1.63619 14.8211 1.99419 14.4993C2.36684 14.1642 2.88924 13.9433 4.43224 13.3395L21.0322 6.84383C21.9361 6.49014 22.2465 6.37489 22.5541 6.32866C22.8497 6.28423 23.1503 6.28423 23.4459 6.32866C23.7535 6.37489 24.0639 6.49014 24.9678 6.84383L41.5678 13.3395C43.1108 13.9433 43.6332 14.1642 44.0058 14.4993Z" stroke="#1D1D1F" stroke-width="2"/>
<circle cx="23" cy="23" r="5" stroke="#1D1D1F" stroke-width="2"/>
<line x1="23" y1="29" x2="23" y2="47" stroke="#1D1D1F" stroke-width="2" stroke-linecap="round"/>
<path d="M26 45H23" stroke="#1D1D1F" stroke-width="2" stroke-linecap="round"/>
<path d="M25 41H23" stroke="#1D1D1F" stroke-width="2" stroke-linecap="round"/>
</svg>
