<svg width="64" height="64" viewBox="0 0 64 64" fill="none" xmlns="http://www.w3.org/2000/svg">
<g clip-path="url(#clip0)">
<path fill-rule="evenodd" clip-rule="evenodd" d="M2 32C2 19.2975 12.2975 9 25 9C37.7025 9 48 19.2975 48 32C48 44.7025 37.7025 55 25 55C12.2975 55 2 44.7025 2 32ZM25 7C11.1929 7 0 18.1929 0 32C0 45.8071 11.1929 57 25 57C38.8071 57 50 45.8071 50 32C50 18.1929 38.8071 7 25 7ZM13 28.7728C13 24.8796 15.7552 22 19.5351 22C21.9488 22 23.9526 23.5435 25 25.4094C26.0247 23.5435 28.074 22 30.4649 22C34.222 22 37 24.8796 37 28.7728C37 35.3843 29.5996 40.844 25.7742 43.6544C25.5237 43.8387 25.2049 44 25 44C24.7951 44 24.4763 43.8157 24.203 43.6544C20.2182 41.1204 13 35.3843 13 28.7728Z" fill="#1D1D1F"/>
</g>
<defs>
<clipPath id="clip0">
<rect width="64" height="64" fill="white"/>
</clipPath>
</defs>
</svg>
