<svg width="426" height="96" viewBox="0 0 426 96" fill="none" xmlns="http://www.w3.org/2000/svg">
<path fill-rule="evenodd" clip-rule="evenodd" d="M426 0H0V96H426V0ZM12.192 34.1523V73H4.47998V26.9199H41.824V73H34.1121V34.1523H12.192ZM57.5445 40.9355C59.9765 38.7275 63.1765 37.4805 67.1125 37.4805C76.9045 37.4805 83.1765 45.2236 83.1765 55.7197C83.1765 66.0879 76.9685 73.96 67.4005 73.96C63.8165 73.96 60.8405 72.9678 58.5045 71.2402V88.3604H50.7285V38.4404H57.5445V40.9355ZM57.5445 55.7197C57.5445 62.4082 60.0085 67.0479 66.2165 67.0479C72.2325 67.0479 75.0165 62.0557 75.0165 55.7197C75.0165 49.4482 72.1685 44.3916 65.9605 44.3916C60.0725 44.3916 57.5445 48.9678 57.5445 55.7197ZM122.742 55.7197C122.742 66.5039 115.83 73.96 105.494 73.96C95.094 73.96 88.31 66.4082 88.31 55.7197C88.31 44.8721 95.286 37.4805 105.494 37.4805C115.926 37.4805 122.742 45.0322 122.742 55.7197ZM96.47 55.7197C96.47 62.4404 99.542 66.7275 105.494 66.7275C111.606 66.7275 114.582 62.2158 114.582 55.7197C114.582 49.0322 111.542 44.7119 105.494 44.7119C99.286 44.7119 96.47 49.1924 96.47 55.7197ZM152.576 72.3916C151.008 72.8398 148.833 73 146.721 73H129.729V38.4404H145.44C147.713 38.4404 149.729 38.7275 151.136 39.1123C154.464 40.1035 157.472 42.8564 157.472 47.8477C157.472 50.792 156.448 52.6162 154.912 53.8643C154.177 54.4717 153.409 54.9199 152.641 55.1436C153.44 55.2725 154.305 55.5283 155.008 55.8799C157.344 57.0322 159.169 59.1123 159.169 63.208C159.169 67.8477 156.896 71.1436 152.576 72.3916ZM143.776 44.4883H137.536V52.7119H143.937C144.751 52.7119 145.592 52.6602 146.327 52.5234C146.746 52.4453 147.131 52.3398 147.456 52.2002C148.833 51.624 149.505 50.2158 149.505 48.584C149.505 46.8877 148.8 45.3838 147.169 44.8721C146.081 44.4883 144.193 44.4883 143.776 44.4883ZM146.016 58.7598H137.536V67.0479H146.177C147.073 67.0479 148.224 66.8877 149.089 66.5684C150.625 66.0244 151.297 64.4238 151.297 62.8877C151.297 60.7764 150.081 59.5596 148.641 59.1123C147.776 58.7598 146.656 58.7598 146.016 58.7598ZM180.807 37.4805C191.526 37.4805 197.799 45.416 196.903 57.8643H171.878C172.487 63.5596 175.558 66.7275 180.807 66.7275C184.583 66.7275 187.398 65 188.903 61.7998L196.518 64.1035C193.862 70.376 187.911 73.96 181.255 73.96C170.758 73.96 163.622 66.5996 163.622 56.1035C163.622 44.7764 170.63 37.4805 180.807 37.4805ZM189.062 52.04C188.422 46.6318 185.895 44.2324 181.127 44.2324C175.943 44.2324 172.966 46.9199 172.07 52.04H189.062ZM210.794 40.9355C213.227 38.7275 216.427 37.4805 220.362 37.4805C230.154 37.4805 236.427 45.2236 236.427 55.7197C236.427 66.0879 230.219 73.96 220.651 73.96C217.067 73.96 214.091 72.9678 211.755 71.2402V88.3604H203.979V38.4404H210.794V40.9355ZM210.794 55.7197C210.794 62.4082 213.258 67.0479 219.466 67.0479C225.482 67.0479 228.266 62.0557 228.266 55.7197C228.266 49.4482 225.419 44.3916 219.211 44.3916C213.323 44.3916 210.794 48.9678 210.794 55.7197ZM250.808 60.4238L267.32 38.4404H273.432V73H266.04V50.4404L249.592 73H243.416V38.4404H250.808V60.4238ZM298.802 45.2881V73H291.089V45.2881H279.537V38.4404H310.354V45.2881H298.802ZM336.802 72.5518C335.106 72.9355 332.321 73 330.37 73H316.385L316.354 38.4404H324.065V49.96H330.273C332.226 49.96 334.914 50.0244 336.546 50.3115C342.401 51.5596 345.761 55.1123 345.761 61.5117C345.761 67.624 342.466 71.2402 336.802 72.5518ZM331.042 56.0078H324.065V66.9521H331.042C331.969 66.9521 333.185 66.8877 334.273 66.5996C336.161 66.0557 337.922 64.2002 337.922 61.5117C337.922 58.7275 336.193 56.8721 334.049 56.3281C333.057 56.0723 331.938 56.0078 331.042 56.0078ZM397.861 64.5195L406.533 55.8477H370.085V49.7998H406.501L397.861 41.1602L401.541 37.4805L416.901 52.8398L401.541 68.2002L397.861 64.5195Z" fill="white"/>
</svg>
